<?xml version="1.0" encoding="utf-8"?>
<!-- Created with Inkscape (http://www.inkscape.org/) -->
<svg height="800" id="svg4400" version="1.0" width="600" xmlns="http://www.w3.org/2000/svg" xmlns:svg="http://www.w3.org/2000/svg">
 <defs id="defs4403"/>
 <path cod="01403" d="M 466.524,250.79204 C 467.62686,248.2094 467.2006,245.56996 475.4482,243.01724 C 477.86773,241.84617 480.80604,242.40543 483.37582,241.02535 L 483.89648,236.52862 L 487.59968,234.44557 L 486.90533,230.97383 L 495.70042,216.39249 L 499.40362,214.77234 L 529.72354,173.80572 C 535.15804,172.43119 539.47912,170.59274 537.59283,166.16788 L 505.88421,136.77375 L 485.97953,130.75606 C 483.59245,129.05783 484.43116,126.92643 483.66503,125.20126 C 472.85718,114.16557 462.34467,102.3483 451.03061,91.87249 C 445.14265,79.00228 431.26051,75.17629 418.62739,71.22532 C 412.66602,60.08635 410.74779,48.12514 401.65158,40.02271 C 400.06833,39.56152 398.27129,38.81107 397.10215,40.36992 C 396.36843,42.20362 396.11348,47.32003 394.83232,46.10222 C 394.12167,45.42672 392.05274,43.84737 389.06972,49.29484 C 380.2915,47.2251 380.96046,57.2635 374.3436,60.451 C 373.59986,60.30225 372.85611,60.1535 372.11237,60.00475 C 372.96486,65.19481 365.55118,66.97535 363.63369,71.1609 C 361.23816,75.85245 354.24716,73.54866 349.80006,74.28463 C 343.18871,75.1358 331.69439,80.36109 324.81028,81.87081 C 321.01701,83.69825 317.92675,87.23682 314.10037,88.11826 L 322.92423,117.5868 L 349.93546,134.46882 C 364.18347,122.88388 367.82686,125.75979 371.31935,128.84148 L 382.94919,138.59554 L 361.94045,186.99066 L 392.70325,206.49878 L 409.9711,213.57796 C 423.21508,221.73485 413.15756,234.14396 427.42484,235.0595 L 434.58536,244.45767 L 466.524,250.79204 z " id="Colchane" style="fill:#fdf9d2;fill-opacity:1;fill-rule:evenodd;stroke:#d38d5f;stroke-width:1px;stroke-linecap:butt;stroke-linejoin:miter;stroke-opacity:1"/>
 <path cod="01404" d="M 61.971298,115.33927 C 88.82141,101.47624 100.99396,91.34686 114.62834,82.7633 C 130.49637,80.05377 140.1621,73.20937 148.9893,65.80595 C 159.13029,69.81577 171.30059,60.23333 182.01151,65.3597 C 204.10474,57.10126 210.61983,59.97006 224.85114,57.32727 C 241.38733,56.25126 241.48354,58.46325 247.16345,59.5585 C 257.3256,59.37826 271.86293,56.28123 272.15323,62.68223 C 274.75496,61.73561 277.60469,62.24975 280.18566,61.34349 C 285.2323,60.55867 286.8601,64.99987 286.87936,68.92967 C 275.66169,87.40863 284.87312,95.5093 251.64458,113.08493 L 238.13897,114.2104 L 223.13273,125.46508 L 208.12649,125.46508 C 204.19692,124.0189 201.92763,124.78642 200.99852,127.34086 L 201.37368,235.38579 L 210.75258,230.50876 L 214.12898,229.75845 L 236.26319,217.3783 L 241.14021,210.62549 L 252.3949,204.623 C 261.16454,200.6 267.20835,200.21144 273.02848,200.12112 L 285.40863,192.24285 L 288.78503,192.99316 C 294.82939,188.92484 301.10495,184.90276 302.29064,179.8627 L 303.79127,174.98567 C 310.02901,171.51919 309.59353,169.72102 307.91799,168.23286 C 308.99075,162.80291 311.48004,158.7895 316.54658,157.35334 C 319.31593,155.81751 323.41128,156.27067 328.17641,157.72849 L 343.55781,143.84772 L 349.93546,134.46882 C 364.18347,122.88388 367.82686,125.75979 371.31935,128.84148 L 382.94919,138.59554 L 361.94045,186.99066 L 392.70325,206.49878 L 409.58527,214.0019 C 409.94837,218.08291 406.82502,221.00178 404.33308,224.13111 L 408.4598,232.38454 L 408.4598,254.51874 L 397.95543,269.90014 L 381.07341,279.27904 L 381.82372,285.28154 L 389.32684,294.66044 L 390.45231,298.78716 L 384.07466,299.16232 C 377.32433,302.15115 371.93016,304.73685 364.19139,312.66793 C 359.66699,314.19929 359.57183,313.19966 348.80999,318.29527 L 330.42735,317.54496 L 325.17516,314.16855 L 319.54782,313.7934 L 179.61463,347.9326 L 164.23323,335.55245 L 115.8381,332.5512 L 106.83436,326.92386 L 106.4592,317.54496 L 103.83311,314.54371 C 103.48436,307.91595 105.84757,301.2882 102.70764,294.66044 C 109.52643,282.37992 98.17189,283.13568 97.0803,277.02811 C 99.34901,266.3898 98.89559,257.11256 99.33124,247.39078 L 92.57843,239.88766 L 95.95483,238.38704 C 93.73102,234.42342 91.6347,230.49167 93.32874,227.50751 C 85.89017,223.66115 81.32944,218.37587 75.69641,213.62674 C 79.66361,214.47847 83.09871,213.99994 85.07531,209.87518 C 87.56202,207.19131 81.00024,209.15633 85.82562,186.99066 C 82.74521,183.32898 83.67805,178.39034 82.36623,173.88336 C 81.05442,169.37639 77.89827,165.28128 77.49556,160.66943 C 77.34475,154.96329 76.02964,152.68657 71.56969,149.47506 C 70.99668,147.77101 70.55316,145.87273 71.94485,141.22163 L 64.066573,136.3446 C 64.066573,136.3446 61.982015,129.77374 62.980947,125.4611 C 63.979879,121.14846 63.233151,118.71321 61.971298,115.33927 z " id="Huara" style="fill:#fdf9d2;fill-opacity:1;fill-rule:evenodd;stroke:#d38d5f;stroke-width:1px;stroke-linecap:butt;stroke-linejoin:miter;stroke-opacity:1"/>
 <path cod="01402" d="M 314.10037,88.11826 C 309.28444,84.03978 310.15591,77.597 303.83671,75.17712 C 297.82706,74.20201 288.91008,76.3023 286.87936,68.92967 C 275.66169,87.40863 284.87312,95.5093 251.64458,113.08493 L 238.13897,114.2104 L 223.13273,125.46508 L 208.12649,125.46508 C 204.19692,124.0189 201.92763,124.78642 200.99852,127.34086 L 201.37368,235.38579 L 210.75258,230.50876 L 214.12898,229.75845 L 236.26319,217.3783 L 241.14021,210.62549 L 252.3949,204.623 C 261.16454,200.6 267.20835,200.21144 273.02848,200.12112 L 285.40863,192.24285 L 288.78503,192.99316 C 294.82939,188.92484 301.10495,184.90276 302.29064,179.8627 L 303.79127,174.98567 C 310.02901,171.51919 309.59353,169.72102 307.91799,168.23286 C 308.99075,162.80291 311.48004,158.7895 316.54658,157.35334 C 319.31593,155.81751 323.41128,156.27067 328.17641,157.72849 L 343.55781,143.84772 L 349.93546,134.46882 L 322.92423,117.5868 L 314.10037,88.11826 z " id="Camina" style="fill:#fdf9d2;fill-opacity:1;fill-rule:evenodd;stroke:#d38d5f;stroke-width:1px;stroke-linecap:butt;stroke-linejoin:miter;stroke-opacity:1"/>
 <path cod="01107" d="M 115.8381,332.5512 L 164.23323,335.55245 L 158.98105,388.24103 L 142.47418,407.95756 L 132.84518,398.32856 L 111.29455,419.42066 L 108.08488,407.95756 L 108.08488,401.99675 L 110.83602,397.41151 L 111.75307,363.48073 L 109.91898,360.72959 L 109.91898,353.85172 L 114.04569,342.84715 L 115.8381,332.5512 z " id="Alto Hospicio" style="fill:#fdf9d2;fill-opacity:1;fill-rule:evenodd;stroke:#d38d5f;stroke-width:1px;stroke-linecap:butt;stroke-linejoin:miter;stroke-opacity:1"/>
 <path cod="01405" d="M 423.09088,658.3117 L 507.00078,606.49846 L 515.23332,572.59541 C 510.05188,570.59797 508.36892,564.54364 503.61634,562.04182 C 500.5958,559.11521 501.71427,554.67891 499.90774,551.18032 C 498.85263,546.6384 502.08165,542.26171 500.17294,537.81911 C 500.24129,534.09902 503.07411,530.619 500.2642,526.86164 C 497.64223,522.74456 503.36462,517.68033 500.03573,513.93434 C 502.98531,513.84569 504.41214,516.3978 506.76375,506.60767 C 510.69132,501.01333 512.95641,498.99252 516.00614,497.3439 C 516.94142,497.65045 525.55673,495.25458 527.16781,490.48221 C 525.40196,488.76994 520.398,487.84244 519.44297,485.48841 C 518.08504,482.1413 517.00933,481.44032 513.55696,481.70623 C 507.19073,481.09715 509.40803,473.45041 503.05507,473.36395 C 491.75689,475.22289 494.71751,470.60223 488.44835,466.43361 C 485.85983,464.82622 482.42398,459.84922 479.08783,459.6108 L 473.17653,459.78467 L 452.83474,442.22466 L 452.83474,416.66702 L 455.09494,417.18861 C 455.76081,417.08976 461.59101,416.28241 463.85281,415.96808 C 466.32041,415.62431 469.25494,416.03781 471.25176,414.30208 C 473.70478,415.83994 472.90263,406.23063 471.60125,402.41644 C 470.67388,399.92502 469.2977,401.2269 467.14981,398.23735 C 464.83529,396.52987 463.95574,394.9838 464.69651,392.28485 C 465.75231,388.92252 462.92302,386.57661 461.26104,384.11804 C 459.39595,381.17056 464.27615,379.35347 462.9187,376.50502 C 461.80394,372.34587 462.39532,369.80239 465.41054,367.19599 C 462.9558,363.93614 464.98842,358.97938 462.41241,356.89294 C 459.71028,356.62248 454.20856,356.82801 452.77029,353.80602 C 452.08818,354.20264 448.70586,356.81712 446.57571,354.94618 L 450.57454,340.68956 L 466.39593,339.29866 L 479.08782,334.08282 L 497.16941,334.08282 L 508.29655,304.52637 L 501.16823,296.7026 L 506.21021,280.18576 L 488.83533,276.24346 C 488.47618,273.33878 480.38513,260.09616 475.29806,259.07537 C 472.89471,253.80548 466.46811,257.15318 464.27009,253.54699 C 467.77905,250.85392 466.67543,250.81627 466.524,250.79204 L 434.58536,244.45767 L 427.42484,235.0595 C 413.15756,234.14396 423.21508,221.73485 409.77818,213.78993 C 409.94837,218.08291 406.82502,221.00178 404.33308,224.13111 L 408.4598,232.38454 L 408.4598,254.51874 L 397.95543,269.90014 L 381.07341,279.27904 L 381.82372,285.28154 L 389.32684,294.66044 L 390.45231,298.78716 C 399.14346,302.98589 394.36348,310.35431 393.80078,316.73042 L 396.01943,330.92975 C 392.77813,333.86109 388.05497,333.45824 386.92298,341.13552 L 386.92298,348.67891 L 393.80078,352.45061 C 392.95304,359.20771 397.65996,358.44029 401.12231,374.63706 L 393.80078,380.18367 L 392.69146,385.50842 L 386.70112,391.2769 C 384.61755,401.24475 373.15438,399.48812 364.51467,401.2608 L 356.30568,395.27046 L 331.01312,391.05504 L 316.37007,391.05504 L 304.16752,396.82351 L 284.42158,396.15792 L 279.54056,391.2769 L 273.77208,391.49876 L 275.10327,519.95832 L 280.42801,517.29594 L 296.84599,517.73967 L 308.60481,510.86187 L 313.48583,510.86187 L 317.25752,514.18984 L 337.66906,515.74289 L 352.53398,512.19306 L 371.61433,511.9712 L 383.15129,506.86831 L 391.804,505.53713 L 395.5757,503.09662 L 398.6818,503.09662 L 398.90367,506.42458 L 402.4535,510.86187 L 403.34096,519.07086 L 400.90045,526.61425 L 402.00977,532.82646 L 398.90367,536.15443 L 403.11909,541.70104 L 400.90045,618.2443 L 411.10621,632.4437 L 415.76537,647.3086 L 423.09088,658.3117 z " id="Pica" style="fill:#fdf9d2;fill-opacity:1;fill-rule:evenodd;stroke:#d38d5f;stroke-width:1px;stroke-linecap:butt;stroke-linejoin:miter;stroke-opacity:1"/>
 <path cod="01401" d="M 423.09088,658.3117 L 314.87922,693.6181 L 254.35404,760.5626 C 251.4905,759.2871 250.13647,756.8988 248.85176,754.1432 C 246.3713,751.3322 246.29338,747.4868 244.26652,744.5142 C 240.86619,740.8998 238.39972,736.6184 235.55456,732.5926 C 233.43656,728.9153 231.26783,725.4812 229.59375,721.588 C 227.49805,718.5076 225.94019,713.7724 222.25736,712.4176 C 217.2927,711.4338 209.8527,710.3109 205.7505,706.4568 C 203.29034,703.9966 200.31804,703.7056 197.03854,703.7056 C 192.88287,707.8945 188.85345,707.4178 183.28282,705.9982 C 170.05176,706.2598 166.7224,703.5051 159.43957,701.413 L 156.18996,701.1001 L 156.18996,690.0515 L 168.42018,672.0289 L 164.87105,634.8082 L 183.67833,621.6525 L 139.61699,554.31085 L 126.32959,505.77201 L 130.80413,481.04358 C 130.74876,480.62773 132.39864,476.88587 128.43656,472.3625 L 111.29455,419.42066 L 132.84518,398.32856 L 142.47418,407.95756 L 158.98105,388.24103 L 164.23323,335.55245 L 179.61463,347.9326 L 319.54782,313.7934 L 325.17516,314.16855 L 330.42735,317.54496 L 348.80999,318.29527 C 359.57183,313.19966 359.66699,314.19929 364.19139,312.66793 C 371.93016,304.73685 377.32433,302.15115 384.07466,299.16232 L 390.45231,298.78716 C 399.14346,302.98589 394.36348,310.35431 393.80078,316.73042 L 396.01943,330.92975 C 392.77813,333.86109 388.05497,333.45824 386.92298,341.13552 L 386.92298,348.67891 L 393.80078,352.45061 C 392.95304,359.20771 397.65996,358.44029 401.12231,374.63706 L 393.80078,380.18367 L 392.69146,385.50842 L 386.70112,391.2769 C 384.61755,401.24475 373.15438,399.48812 364.51467,401.2608 L 356.30568,395.27046 L 331.01312,391.05504 L 316.37007,391.05504 L 304.16752,396.82351 L 284.42158,396.15792 L 279.54056,391.2769 L 273.77208,391.49876 L 275.10327,519.95832 L 280.42801,517.29594 L 296.84599,517.73967 L 308.60481,510.86187 L 313.48583,510.86187 L 317.25752,514.18984 L 337.66906,515.74289 L 352.53398,512.19306 L 371.61433,511.9712 L 383.15129,506.86831 L 391.804,505.53713 L 395.5757,503.09662 L 398.6818,503.09662 L 398.90367,506.42458 L 402.4535,510.86187 L 403.34096,519.07086 L 400.90045,526.61425 L 402.00977,532.82646 L 398.90367,536.15443 L 403.11909,541.70104 L 400.90045,618.2443 L 411.10621,632.4437 L 415.76537,647.3086 L 423.09088,658.3117 z " id="Pozo Almonte" style="fill:#fdf9d2;fill-opacity:1;fill-rule:evenodd;stroke:#d38d5f;stroke-width:1px;stroke-linecap:butt;stroke-linejoin:miter;stroke-opacity:1"/>
 <path cod="01101" d="M 111.29455,419.42066 L 128.43656,472.3625 C 132.39864,476.88587 130.74876,480.62773 130.80413,481.04358 L 126.32959,505.77201 L 139.61699,554.31085 L 183.67833,621.6525 L 164.87105,634.8082 L 168.42018,672.0289 L 156.18996,690.0515 L 156.2128,701.3551 C 152.13767,701.8953 147.92677,702.3413 143.84975,703.2471 C 136.63515,707.6438 136.79872,704.7739 130.09403,702.7886 C 127.70189,702.7886 126.20751,705.1903 124.59174,705.9982 C 123.54148,704.6779 123.07156,703.2488 122.72256,701.6095 C 122.86883,700.3767 123.00928,699.2642 122.84179,698.0326 C 116.95972,692.2474 118.41717,692.2412 117.95329,690.0441 C 117.82593,686.9485 119.2188,689.4919 115.68788,682.5324 C 116.25825,681.3917 116.28305,681.4303 117.35713,680.6247 C 118.38186,679.8562 119.43076,680.3396 120.33792,679.4324 C 123.65789,677.3895 123.53856,674.5231 123.31871,671.9208 C 125.82213,670.2097 118.46946,660.8041 117.83406,660.4746 C 118.51708,659.3818 120.56439,655.2184 115.44942,648.6706 C 116.76785,644.5746 115.32048,641.4007 111.87247,638.8935 C 112.06474,637.2586 112.27614,635.6162 110.91862,634.6013 C 110.67168,628.6504 107.60549,628.9018 105.91088,626.1358 C 115.20986,617.178 104.28618,611.68795 101.857,610.75491 C 99.70089,610.32269 98.42567,602.40296 96.84927,597.04326 C 98.46442,594.0433 97.14048,583.98821 99.83087,583.7279 C 107.34044,583.0013 99.8661,565.70192 100.30699,553.76215 C 97.86194,550.82217 95.64657,547.57595 91.36461,547.08517 C 90.32059,544.10893 88.58867,542.27918 86.59534,540.88512 C 92.94757,536.02999 88.93182,530.77609 87.5492,525.62346 C 93.66915,521.38189 90.65238,518.0855 87.78766,514.77338 C 88.67564,511.79286 91.44039,510.21992 88.86075,504.63868 C 93.43505,497.8079 87.15085,495.73336 87.78766,486.51546 C 90.68645,477.56664 89.08129,471.32019 89.09921,464.09989 C 89.86514,459.1427 94.298,460.16748 96.49157,455.27675 C 98.68515,450.38602 99.76275,438.19216 98.16082,429.40346 C 92.72861,427.18096 93.76575,423.99233 92.31847,421.53417 C 90.87119,419.07601 102.52716,412.47108 102.5724,410.20716 C 106.58147,365.15122 97.33963,393.85209 96.01465,367.8799 C 98.71625,340.95564 99.16233,361.00216 103.52625,344.86817 C 109.62221,327.96881 106.85484,327.1184 106.83436,326.92386 L 115.8381,332.5512 L 114.04569,342.84715 L 109.91898,353.85172 L 109.91898,360.72959 L 111.75307,363.48073 L 110.83602,397.41151 L 108.08488,401.99675 L 108.08488,407.95756 L 111.29455,419.42066" id="Iquique" style="fill:#ff0000;fill-opacity:1;fill-rule:evenodd;stroke:#d38d5f;stroke-width:1px;stroke-linecap:butt;stroke-linejoin:miter;stroke-opacity:1"/>
 <path d="M 515.25421,572.56768 L 507.00078,606.49846 L 423.09088,658.3117 L 314.87922,693.6181 L 254.35404,760.5626 C 251.4905,759.2871 250.13647,756.8988 248.85176,754.1432 C 246.3713,751.3322 246.29338,747.4868 244.26652,744.5142 C 240.86619,740.8998 238.39972,736.6184 235.55456,732.5926 C 233.43656,728.9153 231.26783,725.4812 229.59375,721.588 C 227.49805,718.5076 225.94019,713.7724 222.25736,712.4176 C 217.2927,711.4338 209.8527,710.3109 205.7505,706.4568 C 203.29034,703.9966 200.31804,703.7056 197.03854,703.7056 C 192.88287,707.8945 188.85345,707.4178 183.28282,705.9982 C 170.05176,706.2598 166.7224,703.5051 159.43957,701.413 C 154.36085,701.6926 148.99854,702.1032 143.84975,703.2471 C 136.63515,707.6438 136.79872,704.7739 130.09403,702.7886 C 127.70189,702.7886 126.20751,705.1903 124.59174,705.9982" id="LÍMITE REG" style="fill:none;fill-rule:evenodd;stroke:#ffb380;stroke-width:3;stroke-linecap:butt;stroke-linejoin:miter;stroke-miterlimit:4;stroke-dasharray:none;stroke-opacity:1"/>
 <path d="M 515.00475,573.14235 C 509.84419,571.11717 508.36892,564.54364 503.61634,562.04182 C 500.5958,559.11521 501.71427,554.67891 499.90774,551.18032 C 498.85263,546.6384 502.08165,542.26171 500.17294,537.81911 C 500.24129,534.09902 503.07411,530.619 500.2642,526.86164 C 497.64223,522.74456 503.36462,517.68033 500.03573,513.93434 C 502.98531,513.84569 504.41214,516.3978 506.76375,506.60767 C 510.69132,501.01333 512.95641,498.99252 516.00614,497.3439 C 516.94142,497.65045 525.55673,495.25458 527.16781,490.48221 C 525.40196,488.76994 520.398,487.84244 519.44297,485.48841 C 518.08504,482.1413 517.00933,481.44032 513.55696,481.70623 C 507.19073,481.09715 509.40803,473.45041 503.05507,473.36395 C 491.75689,475.22289 494.71751,470.60223 488.44835,466.43361 C 485.85983,464.82622 482.42398,459.84922 479.08783,459.6108 L 473.17653,459.78467 L 452.83474,442.22466 L 452.83474,416.66702 L 455.09494,417.18861 C 455.76081,417.08976 461.59101,416.28241 463.85281,415.96808 C 466.32041,415.62431 469.25494,416.03781 471.25176,414.30208 C 473.70478,415.83994 472.90263,406.23063 471.60125,402.41644 C 470.67388,399.92502 469.2977,401.2269 467.14981,398.23735 C 464.83529,396.52987 463.95574,394.9838 464.69651,392.28485 C 465.75231,388.92252 462.92302,386.57661 461.26104,384.11804 C 459.39595,381.17056 464.27615,379.35347 462.9187,376.50502 C 461.80394,372.34587 462.39532,369.80239 465.41054,367.19599 C 462.9558,363.93614 464.98842,358.97938 462.41241,356.89294 C 459.71028,356.62248 454.20856,356.82801 452.77029,353.80602 C 452.08818,354.20264 448.70586,356.81712 446.57571,354.94618 L 450.57454,340.68956 L 466.39593,339.29866 L 479.08782,334.08282 L 497.16941,334.08282 L 508.29655,304.52637 L 501.16823,296.7026 L 506.21021,280.18576 L 488.83533,276.24346 C 488.47618,273.33878 480.38513,260.09616 475.29806,259.07537 C 472.89471,253.80548 466.46811,257.15318 464.27009,253.54699 C 469.05272,250.11713 464.23749,246.48707 475.4482,243.01724 C 477.86773,241.84617 480.80604,242.40543 483.37582,241.02535 L 483.89648,236.52862 L 487.59968,234.44557 L 486.90533,230.97383 L 495.70042,216.39249 L 499.40362,214.77234 L 529.72354,173.80572 C 535.15804,172.43119 539.47912,170.59274 537.59283,166.16788 L 505.88421,136.77375 L 485.97953,130.75606 C 483.59245,129.05783 484.43116,126.92643 483.66503,125.20126 C 472.85718,114.16557 462.34467,102.3483 451.03061,91.87249 C 445.14265,79.00228 431.26051,75.17629 418.62739,71.22532 C 412.66602,60.08635 410.74779,48.12514 401.65158,40.02271" id="LÍMITE INTER" style="fill:none;fill-rule:evenodd;stroke:#ff9955;stroke-width:3;stroke-linecap:butt;stroke-linejoin:miter;stroke-miterlimit:4;stroke-opacity:1"/>
 <path d="M 61.95749,115.343 C 88.807601,101.47996 100.97936,91.33281 114.61374,82.74925 C 130.48177,80.03973 140.16154,73.21517 148.98874,65.81175 C 159.12973,69.82157 171.30907,60.24788 182.01999,65.37425 C 204.11322,57.11582 210.63243,59.95454 224.86374,57.31175 C 241.39993,56.23573 241.49633,58.4665 247.17624,59.56175 C 257.33839,59.38149 271.85469,56.28575 272.14499,62.68675 C 274.74672,61.74013 277.59527,62.24926 280.17624,61.343 C 285.22287,60.55818 286.84448,65.00695 286.86374,68.93675 C 288.89445,76.30938 297.82284,74.21164 303.83249,75.18675 C 310.1517,77.60664 309.29781,84.04577 314.11374,88.12425 C 317.94012,87.2428 321.00797,83.70169 324.80124,81.87425 C 331.68536,80.36454 343.18989,75.13167 349.80124,74.2805 C 354.24835,73.54454 361.24946,75.84705 363.64499,71.1555 C 365.56247,66.96995 372.96623,65.18931 372.11374,59.99925 C 372.85748,60.148 373.58875,60.288 374.33249,60.43675 C 380.94935,57.24925 380.30426,47.21076 389.08249,49.2805 C 392.06551,43.83303 394.12185,45.4175 394.83249,46.093 C 396.11365,47.31081 396.38003,42.20795 397.11374,40.37425 C 398.28288,38.8154 400.06174,39.5693 401.64499,40.0305" id="path6551" style="fill:none;fill-opacity:1;fill-rule:evenodd;stroke:#ffb380;stroke-width:3;stroke-linecap:butt;stroke-linejoin:miter;stroke-miterlimit:4;stroke-dasharray:none;stroke-opacity:1"/>
</svg>