<?xml version="1.0" encoding="utf-8"?>
<!-- Created with Inkscape (http://www.inkscape.org/) -->
<svg height="800" id="svg2" inkscape:version="0.44.1" sodipodi:docbase="C:\Documents and Settings\Administrador\Mis documentos\Mis imágenes\Mapas" sodipodi:docname="III Atacama.svg" sodipodi:version="0.32" version="1.0" width="600" xmlns="http://www.w3.org/2000/svg" xmlns:cc="http://web.resource.org/cc/" xmlns:dc="http://purl.org/dc/elements/1.1/" xmlns:inkscape="http://www.inkscape.org/namespaces/inkscape" xmlns:rdf="http://www.w3.org/1999/02/22-rdf-syntax-ns#" xmlns:sodipodi="http://sodipodi.sourceforge.net/DTD/sodipodi-0.dtd" xmlns:svg="http://www.w3.org/2000/svg">
 <metadata id="metadata7">
  <rdf:RDF>
   <cc:Work rdf:about="">
    <dc:format>
     image/svg+xml
    </dc:format>
    <dc:type rdf:resource="http://purl.org/dc/dcmitype/StillImage"/>
   </cc:Work>
  </rdf:RDF>
 </metadata>
 <defs id="defs5"/>
 <sodipodi:namedview bordercolor="#666666" borderopacity="1.0" gridtolerance="10.0" guidetolerance="10.0" height="800px" id="base" inkscape:current-layer="svg2" inkscape:cx="300" inkscape:cy="400" inkscape:guide-bbox="true" inkscape:pageopacity="0.0" inkscape:pageshadow="2" inkscape:window-height="712" inkscape:window-width="1024" inkscape:window-x="-4" inkscape:window-y="-4" inkscape:zoom="0.66625" objecttolerance="10.0" pagecolor="#ffffff" showguides="true" width="600px"/>
 <g id="Region Atacama" transform="matrix(1.297892,0,0,1.297892,23.10785,5.537541)">
  <g id="Provincia_Chanaral">
   <path cod="03202" d="M 396.00757,221.84852 L 369.82822,181.37229 L 372.72762,155.44501 L 383.64389,146.94764 L 394.65241,138.81523 L 381.59648,70.372287 C 379.84341,65.069922 376.09521,66.284525 377.67601,58.421468 C 378.48896,54.377768 379.54093,54.529367 376.56446,50.992042 C 374.97355,49.101351 373.59184,45.700248 372.8972,41.965029 L 371.78263,35.971712 L 375.04718,32.671999 C 379.12041,28.554894 380.44788,25.358788 379.11729,22.872554 C 375.2316,21.772274 377.75664,15.752595 378.13184,12.838348 C 378.5755,16.116045 371.35104,15.762464 366.71924,16.70521 C 359.62839,21.680127 352.53752,33.421921 345.44665,27.149028 L 335.5691,27.149028 C 330.72904,29.72424 327.23914,29.599142 325.17168,26.629151 L 318.93322,27.149028 C 321.66686,29.91387 323.55702,32.510026 319.45309,33.907357 C 323.86656,39.860343 322.12806,44.934473 316.85374,49.503485 L 309.05567,54.182333 C 315.16477,55.447103 315.52064,59.013167 314.77425,63.020143 C 317.7549,66.888867 323.79995,71.906747 316.33387,71.857952 C 317.39858,74.803885 316.9504,77.749828 311.13515,80.695761 C 308.67155,85.671507 305.84929,90.503793 289.82044,90.053448 L 274.22429,96.291895 C 272.14482,91.545946 270.06532,92.544766 267.98584,93.172669 C 268.29635,96.429105 264.4451,95.5238 260.70765,94.732282 C 261.26872,98.484087 260.64837,100.66065 257.06854,98.891253 L 258.10829,105.64958 C 246.95418,102.09147 232.63982,105.91965 230.55511,101.49061 C 224.30114,101.68716 216.6226,104.0206 212.87949,100.45087 L 210.28013,105.1297 L 210.21409,108.23141 L 203.7369,112.94209 L 203.58969,118.83044 C 197.70322,122.53924 199.99452,128.58453 199.02622,133.69852 L 194.46275,133.4041 C 192.22435,140.72464 188.35993,141.94759 184.59977,143.56151 C 184.77487,151.8597 178.05994,143.03064 174.73678,156.36867 L 171.93981,170.64792 L 177.38654,173.29767 L 184.89418,174.76976 L 184.01093,179.18602 L 189.60486,184.63275 L 189.45765,187.72413 C 199.7513,194.44333 192.42922,200.17285 190.63532,204.21151 C 191.73871,206.00245 191.97668,207.66977 190.34091,209.0694 C 188.03089,213.57549 184.15181,218.7092 187.39673,220.99331 L 192.54904,220.69889 C 196.39954,221.64421 195.14827,225.14042 194.46275,228.35375 C 196.56671,228.39857 198.456,228.6455 200.3511,229.53142 C 202.39577,230.55923 203.30369,228.59571 204.76736,227.6177 C 206.7499,228.23817 206.95461,230.75093 206.09224,232.47559 C 205.01673,234.23283 203.96618,234.83404 205.3562,236.74464 C 207.71952,238.94082 211.14604,240.62681 214.04151,238.80557 C 215.08891,237.00788 215.58279,235.01262 216.24965,233.06442 C 218.34265,231.9498 220.97875,232.7149 223.31567,232.18117 C 227.37291,230.19029 229.65457,226.24975 229.94006,221.87656 C 230.16621,220.97197 232.74319,221.43617 233.47307,221.58214 C 235.40818,223.2225 236.72481,225.12703 239.21421,225.8512 C 241.25763,229.31646 242.72655,235.22184 247.4579,235.41976 C 249.94399,234.73023 250.79064,233.56878 250.99091,231.15071 C 251.27556,229.50445 251.1754,228.29137 251.87416,226.73445 C 254.98192,223.46695 256.99198,217.90984 256.58484,217.60751 L 258.20414,209.51103 L 270.86409,208.62777 L 275.57477,202.2978 L 288.52914,202.44501 C 284.17682,211.00293 297.04858,213.33861 297.65608,218.78518 C 301.81639,219.30699 305.86453,216.30773 309.7272,214.66333 C 311.33132,213.80038 311.16616,215.1625 312.52416,215.841 C 314.60648,216.33343 316.32328,216.94114 317.38205,218.78518 C 318.10137,219.82957 319.05608,220.73684 320.03181,221.58214 C 322.23145,221.70117 323.76782,221.33825 325.47853,222.90702 C 327.19058,224.11211 328.07422,224.66318 330.04201,223.79027 C 332.60818,225.49173 336.70379,225.02225 338.87453,227.02887 C 338.68421,229.18482 338.76888,233.573 339.90499,234.83093 C 342.65581,235.20342 340.91049,230.85316 342.40754,227.76491 C 342.95181,226.29263 343.53496,224.92628 343.58521,223.34865 C 343.72102,221.17802 344.17597,219.00696 346.52938,218.63797 C 348.62318,218.37102 350.15068,219.23435 351.68169,220.55168 C 351.94844,221.96478 353.89706,222.51143 355.2147,223.20144 C 357.56756,223.58287 361.35297,223.49586 363.75281,223.49586 C 365.30706,223.08229 364.48807,222.21849 367.72744,220.40447 C 371.42625,218.97882 374.1789,220.61765 378.32647,220.55168 C 380.29995,220.68042 381.80109,221.93362 383.03715,223.34865 C 384.72743,224.43108 386.13063,224.48535 387.159,222.75981 C 388.62698,222.18075 390.23486,222.6492 391.72247,223.20144 C 393.58688,223.53782 394.52717,222.79472 396.00757,221.84852 z " id="Diego_de_Almagro" inkscape:label="#path5484" sodipodi:nodetypes="ccccccsscccccccccccccccccccccccccccccccccccccccccccccccccccccccccccccccccccccccccccccccccc" style="opacity:1;fill:#fdf9d2;fill-opacity:1;fill-rule:evenodd;stroke:#d38d5f;stroke-width:1;stroke-linecap:butt;stroke-linejoin:miter;stroke-miterlimit:4;stroke-dasharray:none;stroke-opacity:1"/>
   <path cod="03201" d="M 210.28013,105.1297 C 204.89622,101.77546 202.1546,99.301965 200.92245,97.33164 C 196.14432,98.408385 190.61046,99.107262 188.44554,101.49061 L 182.72696,105.64958 L 168.69043,103.5701 L 160.89236,102.01048 C 161.43906,94.745348 155.74251,97.885597 152.57442,96.811772 C 152.65812,110.97089 144.45126,104.4036 139.57764,106.16945 C 135.59233,110.97872 131.32582,115.43648 121.90203,113.44765 C 119.50398,119.5541 116.83639,126.51279 113.06421,123.3252 C 109.56678,128.50052 112.29028,129.01014 113.01268,131.02059 C 115.76543,132.0596 117.25647,134.84682 113.92015,136.42373 C 113.19184,138.77491 117.37341,140.69218 114.59984,142.84717 C 113.88684,145.98266 118.55803,147.96309 116.79296,151.27652 C 115.45414,152.59586 112.22571,155.10219 115.82146,155.94979 C 118.78384,155.82641 120.43924,157.80632 120.30605,160.7198 C 121.48457,164.63525 114.68131,161.83504 115.51221,165.55304 C 116.59089,168.19612 111.77436,166.55181 112.54871,169.74466 C 109.97078,171.96766 115.3882,173.99528 113.07842,176.74169 C 111.48364,178.76338 110.69139,181.37521 110.56401,183.93399 C 110.60817,186.54961 112.03478,188.67771 113.70342,190.54066 C 115.2339,192.75659 114.10254,195.75147 111.25983,195.48599 C 110.85209,197.67235 112.5174,201.78192 109.12134,201.94156 C 109.94981,202.32428 110.78018,202.70605 113.2921,202.24704 C 114.44615,202.78422 114.25493,203.86844 114.22709,204.81619 C 115.32065,205.46433 117.07117,204.56696 117.93556,205.87356 C 118.38274,207.26987 119.35181,208.92005 121.08949,208.55407 C 122.73883,208.09453 124.05721,209.41683 124.54408,210.86208 C 125.65558,212.27924 127.73151,211.74561 129.30938,211.80913 C 131.12097,211.63876 132.31006,213.24244 133.75284,214.04488 C 135.18165,215.26316 136.92715,216.31909 138.88497,215.94288 C 140.35192,216.25175 142.7636,215.42458 143.40821,217.18623 C 144.30033,218.80563 145.05473,219.55982 147.12657,219.39307 C 150.10678,219.76387 155.46194,228.44702 159.62963,232.97399 C 161.12824,233.65298 161.08816,234.55178 166.3123,234.69855 C 169.07892,237.78843 168.80288,239.86409 169.11471,242.13571 L 180.10879,232.65063 C 185.44448,226.25639 185.7209,237.18304 191.64179,228.66259 L 194.46275,228.35375 C 195.14827,225.14042 196.39954,221.64421 192.54904,220.69889 L 187.39673,220.99331 C 184.15181,218.7092 188.03089,213.57549 190.34091,209.0694 C 191.97668,207.66977 191.73871,206.00245 190.63532,204.21151 C 192.42922,200.17285 199.7513,194.44333 189.45765,187.72413 L 189.60486,184.63275 L 184.01093,179.18602 L 184.89418,174.76976 L 177.38654,173.29767 L 171.93981,170.64792 L 174.73678,156.36867 C 178.05994,143.03064 184.77487,151.8597 184.59977,143.56151 C 188.35993,141.94759 192.22435,140.72464 194.46275,133.4041 L 199.02622,133.69852 C 199.99452,128.58453 197.70322,122.53924 203.58969,118.83044 L 203.7369,112.94209 L 210.21409,108.23141 L 210.28013,105.1297" id="Chanaral" inkscape:label="#path9920" sodipodi:nodetypes="ccccccccccccccccccccccccccccccccccccccccccccccccccccccccc" style="opacity:1;fill:#fdf9d2;fill-opacity:1;fill-rule:evenodd;stroke:#d38d5f;stroke-width:1;stroke-linecap:butt;stroke-linejoin:miter;stroke-miterlimit:4;stroke-opacity:1"/>
  </g>
  <g id="Provincia_Copiapo">
   <path cod="03101" d="M 325.11715,319.51774 C 325.11715,320.16403 324.95248,322.79544 321.94552,320.46962 C 318.93856,318.1438 316.88795,314.55702 314.49542,311.61697 C 307.86873,310.25805 313.25567,308.34402 311.04853,303.97669 C 314.51526,298.59558 307.69471,295.81327 304.05966,292.64716 C 305.68784,286.62466 302.34402,283.95167 298.94784,279.11845 C 299.10392,273.8649 294.18431,271.5231 288.82356,272.44276 C 283.48386,277.57197 280.05733,270.70347 277.89331,271.44911 C 273.29859,275.51282 269.93945,280.62503 265.9694,285.36033 C 266.92249,292.9928 258.68483,292.56115 259.41881,299.11243 C 261.51624,304.77941 255.64253,307.68444 257.02647,319.47596 C 252.11778,323.43541 253.14455,332.55875 245.20619,332.46762 C 241.56897,327.04117 238.35215,330.56415 235.14368,333.82968 C 227.56844,340.83627 226.91757,331.31768 222.36057,335.93969 C 220.8085,333.79001 206.9086,334.16617 213.43967,331.39258 C 213.61883,327.09886 214.77936,319.21157 207.34352,321.7945 C 203.00154,317.15636 202.01651,317.78631 198.17683,321.22263 C 192.77409,328.77887 189.99836,322.41842 187.79052,321.15673 C 184.48919,319.27014 181.02294,317.06218 177.86497,314.50766 C 177.3673,308.48354 169.61006,301.49857 164.57875,308.18865 C 157.42921,311.52787 155.61716,318.28542 154.06189,325.05286 C 155.07078,330.64057 155.37994,336.65457 154.26115,342.73003 C 160.47431,345.04425 152.46911,349.193 156.63847,353.21316 C 167.69808,356.78666 154.64426,365.82781 161.50197,364.06776 C 165.56371,369.57207 163.1639,374.75504 171.24299,368.2843 C 180.02897,369.11705 172.70729,376.51985 177.78843,380.73903 C 184.36817,380.45289 183.55581,385.91477 182.74903,390.89157 C 186.67066,392.40365 183.93614,398.82374 187.80156,398.30624 C 192.90677,395.17742 191.987,397.86401 190.78253,401.61844 C 189.32183,405.16789 191.32519,402.94364 188.79521,405.59308 C 182.60717,405.31607 177.23352,409.66023 171.22925,410.52374 C 173.6904,404.85379 166.37281,406.55789 165.2422,405.78675 C 161.21591,403.04061 158.90082,404.90848 158.323,406.91795 C 153.99571,411.71377 148.24851,414.43047 143.01096,406.3167 C 136.69971,406.56487 133.41865,398.37199 127.7873,396.31105 C 124.82896,394.79264 119.90587,399.06542 116.65861,393.14718 C 113.90173,395.11315 108.98571,383.84664 106.9697,392.54242 C 106.64084,394.73213 105.68689,395.8043 104.4644,396.43246 C 102.11527,397.63953 98.774535,397.20706 96.97213,399.91423 C 93.716865,400.45242 93.062485,394.00563 88.509669,396.64832 C 84.956453,397.94865 81.875981,398.58674 79.823942,394.3316 C 78.240985,385.51211 64.019735,389.55306 61.287538,383.38295 C 61.42315,381.46942 64.953267,379.12132 62.600519,376.44574 C 65.185755,372.31657 61.271228,367.31511 66.575155,364.85305 C 66.225082,360.09214 69.755557,354.24396 71.844256,350.41324 C 72.81029,348.64151 72.09522,343.23282 72.746831,341.38792 C 72.464533,338.24137 73.824306,344.55021 76.765389,345.80668 C 77.972794,347.5717 80.492435,338.34609 82.101403,344.70511 C 82.717549,348.38089 90.355368,352.60534 85.376464,355.96518 C 85.42967,362.2287 92.081579,366.60953 97.665865,363.31376 C 100.28782,358.71254 106.02246,366.73789 107.97761,360.21598 C 113.37414,358.11504 108.37763,355.44474 106.76636,353.29123 C 110.41696,347.33092 106.27972,340.82492 106.09344,334.89343 C 112.57023,330.5763 102.40747,325.14782 107.5554,317.49938 C 107.61238,312.51516 109.14117,309.87379 108.64005,305.56474 C 108.13893,301.25569 106.32152,297.94668 106.32152,297.94668 L 123.21372,276.74862 L 146.06788,260.85008 L 149.04885,260.85008 L 169.11471,242.13571 L 180.10879,232.65063 C 185.44448,226.25639 185.7209,237.18304 191.64179,228.66259 L 194.46275,228.35375 C 196.56671,228.39857 198.456,228.6455 200.3511,229.53142 C 202.39577,230.55923 203.30369,228.59571 204.76736,227.6177 C 206.7499,228.23817 206.95461,230.75093 206.09224,232.47559 C 205.01673,234.23283 203.96618,234.83404 205.3562,236.74464 C 207.71952,238.94082 211.14604,240.62681 214.04151,238.80557 C 215.08891,237.00788 215.58279,235.01262 216.24965,233.06442 C 218.34265,231.9498 220.97875,232.7149 223.31567,232.18117 C 227.37291,230.19029 229.65457,226.24975 229.94006,221.87656 C 230.16621,220.97197 232.74319,221.43617 233.47307,221.58214 C 235.40818,223.2225 236.72481,225.12703 239.21421,225.8512 C 241.25763,229.31646 242.72655,235.22184 247.4579,235.41976 C 249.94399,234.73023 250.79064,233.56878 250.99091,231.15071 C 251.27556,229.50445 251.1754,228.29137 251.87416,226.73445 C 254.98192,223.46695 256.99198,217.90984 256.58484,217.60751 L 258.20414,209.51103 L 270.86409,208.62777 L 275.57477,202.2978 L 288.52914,202.44501 C 284.17682,211.00293 297.04858,213.33861 297.65608,218.78518 C 301.81639,219.30699 305.86453,216.30773 309.7272,214.66333 C 311.33132,213.80038 311.16616,215.1625 312.52416,215.841 C 314.60648,216.33343 316.32328,216.94114 317.38205,218.78518 C 318.10137,219.82957 319.05608,220.73684 320.03181,221.58214 C 322.23145,221.70117 323.76782,221.33825 325.47853,222.90702 C 327.19058,224.11211 328.07422,224.66318 330.04201,223.79027 C 332.60818,225.49173 336.70379,225.02225 338.87453,227.02887 C 338.68421,229.18482 338.76888,233.573 339.90499,234.83093 C 342.65581,235.20342 340.91049,230.85316 342.40754,227.76491 C 342.95181,226.29263 343.53496,224.92628 343.58521,223.34865 C 343.72102,221.17802 344.17597,219.00696 346.52938,218.63797 C 348.62318,218.37102 350.15068,219.23435 351.68169,220.55168 C 351.94844,221.96478 353.89706,222.51143 355.2147,223.20144 C 357.56756,223.58287 361.35297,223.49586 363.75281,223.49586 C 365.30706,223.08229 364.48807,222.21849 367.72744,220.40447 C 371.42625,218.97882 374.1789,220.61765 378.32647,220.55168 C 380.29995,220.68042 381.80109,221.93362 383.03715,223.34865 C 384.72743,224.43108 386.13063,224.48535 387.159,222.75981 C 388.62698,222.18075 390.23486,222.6492 391.72247,223.20144 C 393.58688,223.53782 394.52717,222.79472 396.00757,221.84852 L 409.56197,242.80514 C 410.04462,245.2184 408.90859,246.91354 407.29143,247.77902 C 404.83821,249.09194 403.7396,252.00173 403.66942,257.37229 C 403.61726,261.36358 403.60844,261.37229 399.61715,261.37229 C 393.34474,261.37229 384.19285,264.91862 380.38716,268.82387 C 377.28973,272.00232 376.78894,272.18688 374.05843,271.15623 C 371.30585,270.11724 370.91219,270.27446 368.5669,273.34929 C 366.17462,276.48572 365.85559,276.60481 362.5573,275.59254 C 359.99667,274.80666 358.26764,273.21286 356.02932,269.57513 C 353.02251,264.68844 352.93238,264.63369 348.80085,265.18439 C 346.24782,265.52468 344.22738,266.4412 343.61715,267.53583 C 343.06715,268.52242 341.21549,270.68923 339.50236,272.35096 C 337.10341,274.67793 336.23495,276.5692 335.72349,280.58032 C 335.10886,285.40044 335.24776,285.91176 337.58828,287.44533 C 341.03891,289.70627 340.76716,291.02245 336.36445,293.37251 C 333.27515,295.02151 332.41571,296.18872 331.46998,300.01969 C 330.83903,302.57551 329.37653,305.61291 328.21998,306.76946 C 327.06342,307.92602 326.11715,309.32229 326.11715,309.87229 C 326.11715,310.42229 324.99128,310.87229 323.61521,310.87229 L 321.11326,310.87229 L 323.11521,314.60748 C 324.21628,316.66184 325.11715,318.87145 325.11715,319.51774 z " id="Copiapo" inkscape:label="#path9939" sodipodi:nodetypes="cccccccccccccccccscccccccccccccscccccsccccccscccccccccsccccccccccccccccccccccccccccccccccccccccccccccccssssssssssssssssscccc" style="opacity:1;fill:#ff0000;fill-opacity:1;fill-rule:evenodd;stroke:#d38d5f;stroke-width:1;stroke-linecap:butt;stroke-linejoin:miter;stroke-miterlimit:4;stroke-opacity:1"/>
   <path cod="03103" d="M 238.30177,469.16493 C 237.6412,469.7193 236.60985,470.12537 233.99763,469.89908 C 232.36058,470.3191 230.48635,470.08532 229.12268,471.22861 C 226.22255,471.81587 223.44476,472.98083 220.40686,472.11496 C 217.55377,471.82622 215.31945,469.88972 212.55727,469.31665 C 209.70987,469.37791 206.8266,469.54037 205.1911,466.64911 C 203.58255,464.18724 201.70257,465.97778 199.78925,466.54956 C 198.51039,467.03176 196.90621,466.97641 196.95424,466.00496 C 197.07645,463.53305 194.08012,463.17834 197.36163,455.86513 C 199.22954,453.62686 196.65409,452.17638 196.84267,447.57158 C 196.54946,443.80935 195.87314,439.98058 194.4706,436.71544 C 192.16983,431.98504 192.87867,430.6207 194.3932,425.41541 C 195.69165,422.91744 193.05924,420.69612 191.25588,419.33535 C 189.4574,418.00388 187.77973,417.32955 188.79521,405.59308 C 191.32519,402.94364 189.32183,405.16789 190.78253,401.61844 C 191.987,397.86401 192.90677,395.17742 187.80156,398.30624 C 183.93614,398.82374 186.67066,392.40365 182.74903,390.89157 C 183.55581,385.91477 184.36817,380.45289 177.78843,380.73903 C 172.70729,376.51985 180.02897,369.11705 171.24299,368.2843 C 163.1639,374.75504 165.56371,369.57207 161.50197,364.06776 C 154.64426,365.82781 167.69808,356.78666 156.63847,353.21316 C 152.46911,349.193 160.47431,345.04425 154.26115,342.73003 C 155.37994,336.65457 155.07078,330.64057 154.06189,325.05286 C 155.61716,318.28542 157.42921,311.52787 164.57875,308.18865 C 169.61006,301.49857 177.3673,308.48354 177.86497,314.50766 C 181.02294,317.06218 184.48919,319.27014 187.79052,321.15673 C 189.99836,322.41842 192.77409,328.77887 198.17683,321.22263 C 202.01651,317.78631 203.00154,317.15636 207.34352,321.7945 C 214.77936,319.21157 213.61883,327.09886 213.43967,331.39258 C 206.9086,334.16617 220.8085,333.79001 222.36057,335.93969 C 226.91757,331.31768 227.56844,340.83627 235.14368,333.82968 C 238.35215,330.56415 241.56897,327.04117 245.20619,332.46762 C 253.14455,332.55875 252.11778,323.43541 257.02647,319.47596 C 255.64253,307.68444 261.51624,304.77941 259.41881,299.11243 C 258.68483,292.56115 266.92249,292.9928 265.9694,285.36033 C 269.93945,280.62503 273.29859,275.51282 277.89331,271.44911 C 280.05733,270.70347 283.48386,277.57197 288.82356,272.44276 C 294.18431,271.5231 299.10392,273.8649 298.94784,279.11845 C 302.34402,283.95167 305.68784,286.62466 304.05966,292.64716 C 307.69471,295.81327 314.51526,298.59558 311.04853,303.97669 C 313.25567,308.34402 307.86873,310.25805 314.49542,311.61697 C 316.88795,314.55702 318.93856,318.1438 321.94552,320.46962 C 324.95248,322.79544 325.11715,320.16403 325.11715,319.51774 C 325.11715,321.0263 320.00011,328.87229 319.01624,328.87229 C 318.60614,328.87229 316.83264,330.08226 315.07513,331.56111 C 311.9193,334.21656 311.88794,334.33082 312.54762,340.76968 C 313.14825,346.63219 313.00637,347.44725 311.14016,348.85493 C 309.90626,349.78567 308.83823,352.03255 308.50611,354.39636 C 307.78676,359.51617 303.33565,374.39937 301.23899,378.69547 C 299.16169,382.9519 297.68968,384.14744 294.37307,384.27183 C 292.50951,384.34172 291.00293,385.39874 289.4226,387.74511 C 288.17318,389.60016 287.40058,391.52187 287.70571,392.01558 C 288.01084,392.50929 287.10324,394.28855 285.68882,395.96949 C 284.2744,397.65043 283.11715,399.90914 283.11715,400.98885 C 283.11715,404.19589 279.38325,410.54662 276.13979,412.85617 C 274.47734,414.03994 273.11715,415.66696 273.11715,416.47177 C 273.11715,418.76936 270.52355,419.18468 267.70566,417.33833 C 264.73802,415.39385 262.11715,415.99495 262.11715,418.62006 C 262.11715,422.24906 255.70328,433.33142 252.80791,434.70525 C 251.26283,435.43837 249.51331,437.10348 248.92008,438.40547 C 248.32685,439.70747 246.50312,441.23929 244.86734,441.80953 C 242.73656,442.55232 242.0675,443.30053 242.50788,444.44814 C 242.85122,445.34287 242.24823,447.16149 241.14187,448.568 C 239.68701,450.41755 239.41434,451.55909 240.1148,452.8679 C 242.04592,456.47623 240.97328,466.11802 238.30177,469.16493 z " id="Tierra_Amarilla" inkscape:label="#path9997" sodipodi:nodetypes="cccccccscccccccccccccccccscccccccccccccccsssssssssssssssssssssssc" style="fill:#fdf9d2;fill-opacity:1;fill-rule:evenodd;stroke:#d38d5f;stroke-width:1;stroke-linecap:butt;stroke-linejoin:miter;stroke-miterlimit:4;stroke-opacity:1"/>
   <path cod="03102" d="M 109.12134,201.94156 C 108.29287,201.55884 110.83792,203.35784 108.64005,205.86761 C 106.44218,208.37738 102.59849,211.84138 106.55075,214.81693 C 110.56163,219.04501 103.26663,216.47747 102.99902,218.91438 C 102.22112,223.92 99.293207,228.29035 97.317029,232.85157 C 93.419463,236.44087 100.53529,240.21622 100.02834,243.95787 C 95.976842,247.0291 103.55634,244.77733 101.60486,248.08395 C 96.926269,251.58313 99.832596,257.55707 95.722486,260.85008 C 92.105175,262.27268 93.672547,266.30809 90.976216,268.11902 C 87.834464,274.24395 83.152398,262.67812 81.14882,267.14325 C 80.900949,270.85362 74.415039,276.0369 79.343404,278.74644 C 84.600053,280.09305 78.995485,283.76967 81.104707,286.92157 C 84.466827,289.797 86.417844,295.70144 81.423277,298.18949 C 77.058836,302.53335 85.003883,305.79797 84.950573,309.69014 C 85.607712,313.99269 91.800424,316.83145 90.091752,321.7945 C 88.51435,326.63696 87.812674,331.79202 87.993445,336.69704 C 83.284651,336.57276 87.441119,342.59024 83.467361,342.33011 C 79.493603,342.06998 81.485257,341.02933 82.101403,344.70511 C 82.717549,348.38089 90.355368,352.60534 85.376464,355.96518 C 85.42967,362.2287 92.081579,366.60953 97.665865,363.31376 C 100.28782,358.71254 106.02246,366.73789 107.97761,360.21598 C 113.37414,358.11504 108.37763,355.44474 106.76636,353.29123 C 110.41696,347.33092 106.27972,340.82492 106.09344,334.89343 C 112.57023,330.5763 102.40747,325.14782 107.5554,317.49938 C 107.61238,312.51516 109.14117,309.87379 108.64005,305.56474 C 108.13893,301.25569 106.32152,297.94668 106.32152,297.94668 L 123.21372,276.74862 L 146.06788,260.85008 L 149.04885,260.85008 L 169.11471,242.13571 C 168.80288,239.86409 169.07892,237.78843 166.3123,234.69855 C 161.08816,234.55178 161.12824,233.65298 159.62963,232.97399 C 155.46194,228.44702 150.10678,219.76387 147.12657,219.39307 C 145.05473,219.55982 144.30033,218.80563 143.40821,217.18623 C 142.7636,215.42458 140.35192,216.25175 138.88497,215.94288 C 136.92715,216.31909 135.18165,215.26316 133.75284,214.04488 C 132.31006,213.24244 131.12097,211.63876 129.30938,211.80913 C 127.73151,211.74561 125.65558,212.27924 124.54408,210.86208 C 124.05721,209.41683 122.73883,208.09453 121.08949,208.55407 C 119.35181,208.92005 118.38274,207.26987 117.93556,205.87356 C 117.07117,204.56696 115.32065,205.46433 114.22709,204.81619 C 114.25493,203.86844 114.44615,202.78422 113.2921,202.24704 C 110.78018,202.70605 109.94981,202.32428 109.12134,201.94156 z " id="Caldera" inkscape:label="#path9977" sodipodi:nodetypes="ccccccccccccccccccccccccscccccccccccccccccc" style="opacity:1;fill:#fdf9d2;fill-opacity:1;fill-rule:evenodd;stroke:#d38d5f;stroke-width:1;stroke-linecap:butt;stroke-linejoin:miter;stroke-miterlimit:4;stroke-opacity:1"/>
  </g>
  <g id="Provincia_Huasco">
   <path cod="03302" d="M 196.95424,466.00496 L 194.03693,467.90855 C 191.77678,468.30602 193.13253,471.41712 191.13798,471.96709 C 187.07183,470.35723 187.26489,463.16159 181.69373,464.36306 C 174.44886,466.41218 176.61352,471.20239 172.00485,473.89973 C 171.22347,478.85059 167.17165,481.50071 162.14558,480.62985 C 162.24577,476.47478 158.70452,475.65186 157.60535,475.64866 C 155.99805,468.78495 151.6197,476.2364 148.10657,476.59317 C 146.44425,474.27627 144.33779,470.79019 140.56956,469.87098 C 135.58718,468.36951 139.76444,474.23728 128.99995,473.54542 C 129.97583,476.44205 129.2648,479.25191 125.6489,478.08369 C 122.2561,482.55106 131.14027,483.39559 132.04581,487.34795 C 131.93645,490.79645 137.81482,493.34182 135.44057,496.1524 C 130.02881,494.70143 131.82661,503.78048 130.45312,507.14112 C 135.96959,508.66958 139.62749,508.50594 142.78717,512.12606 C 141.23534,514.41416 142.85758,519.13695 138.29262,519.52419 C 143.32091,520.24873 138.40704,525.61688 136.25104,527.62708 L 136.71733,530.01312 C 138.33422,530.78295 138.33554,533.77895 136.65982,536.30023 C 136.39353,542.28636 145.99485,545.64145 142.2622,552.08638 C 148.45079,555.60272 142.37888,561.43877 146.03311,565.09931 C 150.08758,567.47404 147.43709,568.37928 145.62558,571.61986 C 143.58914,574.61915 156.667,582.76569 155.73235,574.82118 C 161.51407,571.90727 166.95785,574.35153 170.34932,579.22717 C 173.72542,583.63928 176.63768,588.35149 179.58676,593.35502 C 182.65318,592.44789 184.80996,597.09267 187.19407,594.30594 C 193.49141,596.96504 199.06897,590.67996 205.21168,590.80491 C 207.029,590.87229 207.27971,588.08734 205.6895,585.01221 C 204.82471,583.33988 204.11715,580.84978 204.11715,579.47865 C 204.11715,578.10753 203.29124,576.39768 202.2818,575.67899 C 197.59392,572.34139 199.32878,563.36557 205.25398,560.30153 C 208.0822,558.839 208.31166,558.3591 207.84526,554.88189 C 207.38987,551.4867 207.73433,550.68401 210.97536,547.58781 C 215.52945,543.23722 218.16267,541.87229 222.00172,541.87229 C 225.84632,541.87229 226.92335,539.91082 226.35077,533.95186 C 226.01257,530.43207 226.44211,528.15565 228.0328,525.03762 C 229.59188,521.98158 230.11465,519.29976 229.96774,515.11128 C 229.81123,510.64897 230.33655,508.26001 232.32918,504.37229 C 233.73867,501.62229 235.46555,497.45397 236.16669,495.10936 C 237.35546,491.13406 237.28807,490.68313 235.16789,488.4263 C 233.36596,486.50823 232.99731,485.21437 233.39081,482.18924 C 234.01064,477.42412 236.23684,471.52002 238.30177,469.16493 C 237.6412,469.7193 236.60985,470.12537 233.99763,469.89908 C 232.36058,470.3191 230.48635,470.08532 229.12268,471.22861 C 226.22255,471.81587 223.44476,472.98083 220.40686,472.11496 C 217.55377,471.82622 215.31945,469.88972 212.55727,469.31665 C 209.70987,469.37791 206.8266,469.54037 205.1911,466.64911 C 203.58255,464.18724 201.70257,465.97778 199.78925,466.54956 C 198.51039,467.03176 196.90621,466.97641 196.95424,466.00496 z " id="Alto_del_Carmen" inkscape:label="#path10010" sodipodi:nodetypes="cccccccccccccccccccccccccccsssssssssssssscccccccc" style="fill:#fdf9d2;fill-opacity:1;fill-rule:evenodd;stroke:#d38d5f;stroke-width:1;stroke-linecap:butt;stroke-linejoin:miter;stroke-miterlimit:4;stroke-opacity:1"/>
   <path cod="03301" d="M 99.789301,431.89725 C 101.36421,432.9153 103.78568,438.67961 99.620016,440.64528 C 99.875371,444.04845 92.893717,443.8444 97.230335,446.79066 C 98.772537,450.41892 92.397976,452.40175 90.875121,455.42079 C 89.674837,452.58065 89.406546,464.9756 85.500788,471.52444 C 82.78315,473.16276 84.861198,480.57191 80.469397,478.5991 C 79.471712,473.1475 75.545377,479.06097 72.249831,478.17043 C 70.102607,480.10143 67.469681,481.55711 67.953101,485.23822 C 67.475333,490.432 75.271602,489.11581 78.702613,489.01064 C 84.114542,490.05572 78.182782,496.87299 75.79994,498.66926 C 71.43314,501.51048 76.881445,506.96181 72.056295,508.90587 C 72.626778,513.06026 74.656943,517.1659 74.99669,521.50187 C 76.448346,525.6659 79.397136,529.478 79.363115,534.14657 C 82.492912,537.17306 81.217476,541.74256 77.42637,542.02417 C 81.256322,546.06308 72.743114,547.57117 71.590463,551.14131 C 72.123562,547.12763 64.637185,547.67382 62.894498,549.01968 C 61.595555,550.80928 57.770905,547.4181 58.795209,551.09773 C 60.66841,555.62626 58.190904,566.56536 63.847034,566.05023 C 65.03275,568.02956 67.503614,566.84834 69.548711,566.28715 C 72.227923,565.55194 73.692656,569.86411 72.127072,573.25437 C 75.929506,576.45668 82.624775,569.7905 81.666967,564.9284 C 88.268772,562.67456 80.064448,557.52985 86.533915,552.40211 C 83.320168,547.4577 87.840229,548.06384 90.881799,546.41298 C 92.097396,542.53611 93.73265,543.53131 96.68943,544.1923 C 98.859066,544.67733 102.50976,544.82189 104.73078,543.82718 C 115.06366,534.81744 114.76912,540.40139 115.60388,534.94178 C 111.29409,531.65456 120.15732,530.22971 122.30225,531.31511 C 124.1956,530.86968 127.53458,528.75312 128.39158,528.75141 C 129.53296,528.74913 128.92408,531.04056 131.87584,530.74702 C 133.93994,530.18376 135.66282,529.51104 136.71733,530.01312 L 136.25104,527.62708 C 138.40704,525.61688 143.32091,520.24873 138.29262,519.52419 C 142.85758,519.13695 141.23534,514.41416 142.78717,512.12606 C 139.62749,508.50594 135.96959,508.66958 130.45312,507.14112 C 131.82661,503.78048 130.02881,494.70143 135.44057,496.1524 C 137.81482,493.34182 131.93645,490.79645 132.04581,487.34795 C 131.14027,483.39559 122.2561,482.55106 125.6489,478.08369 C 129.2648,479.25191 129.97583,476.44205 128.99995,473.54542 C 139.76444,474.23728 135.58718,468.36951 140.56956,469.87098 C 144.33779,470.79019 146.44425,474.27627 148.10657,476.59317 C 151.6197,476.2364 155.99805,468.78495 157.60535,475.64866 C 158.70452,475.65186 162.24577,476.47478 162.14558,480.62985 C 167.17165,481.50071 171.22347,478.85059 172.00485,473.89973 C 176.61352,471.20239 174.44886,466.41218 181.69373,464.36306 C 187.26489,463.16159 187.07183,470.35723 191.13798,471.96709 C 193.13253,471.41712 191.77678,468.30602 194.03693,467.90855 L 196.95424,466.00496 C 197.07645,463.53305 194.08012,463.17834 197.36163,455.86513 C 199.22954,453.62686 196.65409,452.17638 196.84267,447.57158 C 196.54946,443.80935 195.87314,439.98058 194.4706,436.71544 C 192.16983,431.98504 192.87867,430.6207 194.3932,425.41541 C 195.69165,422.91744 193.05924,420.69612 191.25588,419.33535 C 189.4574,418.00388 187.77973,417.32955 188.79521,405.59308 C 182.60717,405.31607 177.23352,409.66023 171.22925,410.52374 C 173.6904,404.85379 166.37281,406.55789 165.2422,405.78675 C 161.21591,403.04061 158.90082,404.90848 158.323,406.91795 C 153.99571,411.71377 148.24851,414.43047 143.01096,406.3167 C 136.69971,406.56487 133.41865,398.37199 127.7873,396.31105 C 124.82896,394.79264 119.90587,399.06542 116.65861,393.14718 C 113.90173,395.11315 108.98571,383.84664 106.9697,392.54242 C 106.64084,394.73213 105.68689,395.8043 104.4644,396.43246 L 105.23686,430.90679 C 99.407483,427.79678 101.47838,431.45844 99.789301,431.89725 z " id="Vallenar" inkscape:label="#path10929" sodipodi:nodetypes="ccccccccccccccccccsccccscccsccccccccccccccccccccccccccscccccccc" style="fill:#fdf9d2;fill-opacity:1;fill-rule:evenodd;stroke:#d38d5f;stroke-width:1;stroke-linecap:butt;stroke-linejoin:miter;stroke-miterlimit:4;stroke-opacity:1"/>
   <path cod="03303" d="M 77.008617,433.13534 C 78.005087,433.22716 81.15488,429.17195 80.722859,427.93539 C 81.543403,424.2819 83.063856,426.42288 86.913263,427.93539 C 89.135498,427.14327 91.509547,426.91658 93.846514,426.69731 C 94.538635,427.62014 95.051188,428.46862 95.579827,429.17347 C 96.740062,430.72046 97.321709,432.06026 99.789301,431.89725 C 101.36421,432.9153 103.78568,438.67961 99.620016,440.64528 C 99.875371,444.04845 92.893717,443.8444 97.230335,446.79066 C 98.772537,450.41892 92.397976,452.40175 90.875121,455.42079 C 89.674837,452.58065 89.406546,464.9756 85.500788,471.52444 C 82.78315,473.16276 84.861198,480.57191 80.469397,478.5991 C 79.471712,473.1475 75.545377,479.06097 72.249831,478.17043 C 70.102607,480.10143 67.469681,481.55711 67.953101,485.23822 C 67.475333,490.432 75.271602,489.11581 78.702613,489.01064 C 84.114542,490.05572 78.182782,496.87299 75.79994,498.66926 C 71.43314,501.51048 76.881445,506.96181 72.056295,508.90587 C 72.626778,513.06026 74.656943,517.1659 74.99669,521.50187 C 76.448346,525.6659 79.397136,529.478 79.363115,534.14657 C 82.492912,537.17306 81.217476,541.74256 77.42637,542.02417 C 81.256322,546.06308 72.743114,547.57117 71.590463,551.14131 C 72.123562,547.12763 64.637185,547.67382 62.894498,549.01968 C 61.595555,550.80928 57.770905,547.4181 58.795209,551.09773 C 53.230802,550.12419 47.467299,553.78637 44.437596,547.50135 C 41.177475,545.63605 38.127146,545.33148 36.620368,549.58465 C 35.932366,554.81182 27.137962,551.12518 23.501142,551.65069 C 19.864322,552.1762 26.199754,551.0529 23.028299,549.51489 C 19.856844,547.97688 20.626651,542.88764 24.407384,543.53238 C 28.223544,541.8959 25.038246,537.19975 21.79022,538.12457 C 24.181896,536.37389 24.02724,533.73304 21.740406,531.92085 C 23.393577,529.37205 20.850535,526.84203 19.559188,524.77083 C 18.607353,522.80616 15.307023,526.47382 16.709444,522.99532 C 17.667823,521.12683 19.016201,518.73529 16.607237,517.43556 C 15.066972,514.35337 16.772735,510.92905 18.495033,508.33659 C 19.202321,504.55542 24.004394,506.18218 25.041078,503.11145 C 25.782226,499.87255 30.224186,501.89886 31.909201,499.18712 C 34.052606,496.98106 33.792565,493.14138 36.921722,491.53598 C 39.028325,489.43091 39.439101,486.42766 41.263856,484.117 C 41.653601,480.59765 46.561424,480.049 45.151717,476.53199 C 45.285353,475.33837 47.294323,473.32892 44.989974,473.09215 C 43.187152,471.74189 43.57355,468.68075 41.351894,467.80159 C 42.707698,469.8853 45.7761,469.92723 48.532762,469.78252 C 52.317954,471.67823 53.70261,470.19924 57.199327,468.54444 C 58.981305,470.92102 60.408543,471.86512 63.38973,471.0206 C 65.03951,470.19571 62.771013,468.05051 62.646881,467.55398 C 63.008349,464.97911 62.022208,462.71447 61.408801,460.1255 C 62.674539,457.79895 62.537357,455.27361 62.894498,452.69701 C 63.027778,452.16389 67.358527,450.70914 68.094436,449.97323 C 69.69568,448.37199 69.692018,446.23102 71.561062,445.76376 C 72.925562,445.42263 75.518343,446.01229 76.761001,445.76376 C 75.357155,444.17524 73.984279,442.74474 73.046759,440.81144 C 72.712099,440.23006 77.578026,434.23452 77.008617,433.13534 z " id="Freirina" inkscape:label="#path11840" sodipodi:nodetypes="ccccccccccccccccccccccccccccccccccccccccccccccssccc" style="opacity:1;fill:#fdf9d2;fill-opacity:1;fill-rule:evenodd;stroke:#d38d5f;stroke-width:1;stroke-linecap:butt;stroke-linejoin:miter;stroke-miterlimit:4;stroke-opacity:1"/>
   <path cod="03304" d="M 99.789301,431.89725 C 97.321709,432.06026 96.740062,430.72046 95.579827,429.17347 C 95.051188,428.46862 94.538635,427.62014 93.846514,426.69731 C 91.509547,426.91658 89.135498,427.14327 86.913263,427.93539 C 83.063856,426.42288 81.543403,424.2819 80.722859,427.93539 C 81.15488,429.17195 78.005087,433.22716 77.008617,433.13534 C 77.578026,434.23452 72.712099,440.23006 73.046759,440.81144 C 73.984279,442.74474 75.357155,444.17524 76.761001,445.76376 C 75.518343,446.01229 72.925562,445.42263 71.561062,445.76376 C 69.692018,446.23102 69.69568,448.37199 68.094436,449.97323 C 67.358527,450.70914 63.027778,452.16389 62.894498,452.69701 C 62.537357,455.27361 62.674539,457.79895 61.408801,460.1255 C 62.022208,462.71447 63.008349,464.97911 62.646881,467.55398 C 62.771013,468.05051 65.03951,470.19571 63.38973,471.0206 C 60.408543,471.86512 58.981305,470.92102 57.199327,468.54444 C 53.70261,470.19924 52.317954,471.67823 48.532762,469.78252 C 45.7761,469.92723 42.707698,469.8853 41.351894,467.80159 L 43.580441,465.32544 C 47.365828,466.3774 49.927932,461.36804 47.256298,458.79515 C 45.538739,457.62501 46.083978,456.74428 47.887463,456.63236 C 47.667374,453.72963 50.400029,452.7776 51.832616,450.61221 C 53.388393,448.94514 55.048788,448.18012 54.712981,445.55727 C 56.369145,443.26033 53.776105,440.08226 57.224217,438.9478 C 60.782861,436.84229 56.39639,433.4357 54.828338,431.50548 C 53.311022,430.59946 52.619288,428.62992 55.158917,429.12718 C 57.341751,427.56895 56.752094,424.07019 57.416364,421.6965 C 57.886309,419.30184 59.564094,416.62524 57.960332,414.5278 C 55.767069,413.35733 58.825269,409.93665 58.268138,407.76624 C 59.137282,405.49035 57.781944,405.4408 55.71363,404.90709 C 55.125089,402.52401 58.793805,400.71375 59.639162,398.51985 C 58.531564,396.52111 61.397733,392.91139 59.441802,388.98112 C 59.608952,386.19044 59.047591,384.89029 61.287538,383.38295 C 64.019735,389.55306 78.240985,385.51211 79.823942,394.3316 C 81.875981,398.58674 84.956453,397.94865 88.509669,396.64832 C 93.062485,394.00563 93.716865,400.45242 96.97213,399.91423 C 98.774535,397.20706 102.11527,397.63953 104.4644,396.43246 L 105.23686,430.90679 C 99.407483,427.79678 101.47838,431.45844 99.789301,431.89725" id="Huasco" inkscape:label="#path11853" sodipodi:nodetypes="csccccccsscccccccccccccccccccccccccccc" style="fill:#fdf9d2;fill-opacity:1;fill-rule:evenodd;stroke:#d38d5f;stroke-width:1px;stroke-linecap:butt;stroke-linejoin:miter;stroke-opacity:1"/>
  </g>
  <g id="Limites">
   <path d="M 378.14689,12.643088 C 378.5755,16.116045 371.35104,15.762464 366.71924,16.70521 C 359.62839,21.680127 352.53752,33.421921 345.44665,27.149028 L 335.5691,27.149028 C 330.72904,29.72424 327.23914,29.599142 325.17168,26.629151 L 318.93322,27.149028 C 321.66686,29.91387 323.55702,32.510026 319.45309,33.907357 C 323.86656,39.860343 322.12806,44.934473 316.85374,49.503485 L 309.05567,54.182333 C 315.16477,55.447103 315.52064,59.013167 314.77425,63.020143 C 317.7549,66.888867 323.79995,71.906747 316.33387,71.857952 C 317.39858,74.803885 316.9504,77.749828 311.13515,80.695761 C 308.67155,85.671507 305.84929,90.503793 289.82044,90.053448 L 274.22429,96.291895 C 272.14482,91.545946 270.06532,92.544766 267.98584,93.172669 C 268.29635,96.429105 264.4451,95.5238 260.70765,94.732282 C 261.26872,98.484087 260.64837,100.66065 257.06854,98.891253 L 258.10829,105.64958 C 246.95418,102.09147 232.63982,105.91965 230.55511,101.49061 C 224.30114,101.68716 216.6226,104.0206 212.87949,100.45087 L 210.28013,105.1297 C 204.89622,101.77546 202.1546,99.301965 200.92245,97.33164 C 196.14432,98.408385 190.61046,99.107262 188.44554,101.49061 L 182.72696,105.64958 L 168.69043,103.5701 L 160.89236,102.01048 C 161.43906,94.745348 155.74251,97.885597 152.57442,96.811772 C 152.65812,110.97089 144.45126,104.4036 139.57764,106.16945 C 135.59233,110.97872 131.32582,115.43648 121.90203,113.44765 C 119.50398,119.5541 116.83639,126.51279 113.06421,123.3252" id="Region Antofagasta" sodipodi:nodetypes="cccccccccccccccccccccccccccccc" style="fill:none;fill-rule:evenodd;stroke:#ffb380;stroke-width:3;stroke-linecap:butt;stroke-linejoin:miter;stroke-miterlimit:4;stroke-dasharray:none;stroke-opacity:1"/>
   <path d="M 205.26141,591.31732 C 199.06897,591.25975 193.49141,596.96504 187.19407,594.30594 C 184.80996,597.09267 182.65318,592.44789 179.58676,593.35502 C 176.63768,588.35149 173.72542,583.63928 170.34932,579.22717 C 166.95785,574.35153 161.51407,571.90727 155.73235,574.82118 C 156.667,582.76569 143.58914,574.61915 145.62558,571.61986 C 147.43709,568.37928 150.08758,567.47404 146.03311,565.09931 C 142.37888,561.43877 148.45079,555.60272 142.2622,552.08638 C 145.99485,545.64145 136.39353,542.28636 136.65982,536.30023 C 138.33554,533.77895 138.33422,530.78295 136.71733,530.01312 C 135.66282,529.51104 133.93994,530.18376 131.87584,530.74702 C 128.92408,531.04056 129.53296,528.74913 128.39158,528.75141 C 127.53458,528.75312 124.1956,530.86968 122.30225,531.31511 C 120.15732,530.22971 111.29409,531.65456 115.60388,534.94178 C 114.76912,540.40139 115.06366,534.81744 104.73078,543.82718 C 102.50976,544.82189 98.859066,544.67733 96.68943,544.1923 C 93.73265,543.53131 92.097396,542.53611 90.881799,546.41298 C 87.840229,548.06384 83.320168,547.4577 86.533915,552.40211 C 80.064448,557.52985 88.268772,562.67456 81.666967,564.9284 C 82.624775,569.7905 75.929506,576.45668 72.127072,573.25437 C 73.692656,569.86411 72.227923,565.55194 69.548711,566.28715 C 67.503614,566.84834 65.03275,568.02956 63.847034,566.05023 C 58.190904,566.56536 60.66841,555.62626 58.795209,551.09773 C 53.230802,550.12419 47.467299,553.78637 44.437596,547.50135 C 41.177475,545.63605 38.127146,545.33148 36.620368,549.58465 C 35.932366,554.81182 27.137962,551.12518 23.501142,551.65069" id="Región Coquimbo" sodipodi:nodetypes="cccccccccscscccsccccsccccc" style="fill:none;fill-rule:evenodd;stroke:#ffb381;stroke-width:3;stroke-linecap:butt;stroke-linejoin:miter;stroke-miterlimit:4;stroke-dasharray:none;stroke-opacity:1"/>
   <path d="M 378.11678,13.033609 C 377.75664,15.752595 375.2316,21.772274 379.11729,22.872554 C 380.44788,25.358788 379.12041,28.554894 375.04718,32.671999 L 371.78263,35.971712 L 372.8972,41.965029 C 373.59184,45.700248 374.97355,49.101351 376.56446,50.992042 C 379.54093,54.529367 378.48896,54.377768 377.67601,58.421468 C 376.09521,66.284525 379.84341,65.069922 381.59648,70.372287 L 394.65241,138.81523 L 383.64389,146.94764 L 372.72762,155.44501 L 369.82822,181.37229 L 396.00757,221.84852 L 409.56197,242.80514 C 410.04462,245.2184 408.90859,246.91354 407.29143,247.77902 C 404.83821,249.09194 403.7396,252.00173 403.66942,257.37229 C 403.61726,261.36358 403.60844,261.37229 399.61715,261.37229 C 393.34474,261.37229 384.19285,264.91862 380.38716,268.82387 C 377.28973,272.00232 376.78894,272.18688 374.05843,271.15623 C 371.30585,270.11724 370.91219,270.27446 368.5669,273.34929 C 366.17462,276.48572 365.85559,276.60481 362.5573,275.59254 C 359.99667,274.80666 358.26764,273.21286 356.02932,269.57513 C 353.02251,264.68844 352.93238,264.63369 348.80085,265.18439 C 346.24782,265.52468 344.22738,266.4412 343.61715,267.53583 C 343.06715,268.52242 341.21549,270.68923 339.50236,272.35096 C 337.10341,274.67793 336.23495,276.5692 335.72349,280.58032 C 335.10886,285.40044 335.24776,285.91176 337.58828,287.44533 C 341.03891,289.70627 340.76716,291.02245 336.36445,293.37251 C 333.27515,295.02151 332.41571,296.18872 331.46998,300.01969 C 330.83903,302.57551 329.37653,305.61291 328.21998,306.76946 C 327.06342,307.92602 326.11715,309.32229 326.11715,309.87229 C 326.11715,310.42229 324.99128,310.87229 323.61521,310.87229 L 321.11326,310.87229 L 323.11521,314.60748 C 324.21628,316.66184 325.11715,318.87145 325.11715,319.51774 C 325.11715,321.0263 320.00011,328.87229 319.01624,328.87229 C 318.60614,328.87229 316.83264,330.08226 315.07513,331.56111 C 311.9193,334.21656 311.88794,334.33082 312.54762,340.76968 C 313.14825,346.63219 313.00637,347.44725 311.14016,348.85493 C 309.90626,349.78567 308.83823,352.03255 308.50611,354.39636 C 307.78676,359.51617 303.33565,374.39937 301.23899,378.69547 C 299.16169,382.9519 297.68968,384.14744 294.37307,384.27183 C 292.50951,384.34172 291.00293,385.39874 289.4226,387.74511 C 288.17318,389.60016 287.40058,391.52187 287.70571,392.01558 C 288.01084,392.50929 287.10324,394.28855 285.68882,395.96949 C 284.2744,397.65043 283.11715,399.90914 283.11715,400.98885 C 283.11715,404.19589 279.38325,410.54662 276.13979,412.85617 C 274.47734,414.03994 273.11715,415.66696 273.11715,416.47177 C 273.11715,418.76936 270.52355,419.18468 267.70566,417.33833 C 264.73802,415.39385 262.11715,415.99495 262.11715,418.62006 C 262.11715,422.24906 255.70328,433.33142 252.80791,434.70525 C 251.26283,435.43837 249.51331,437.10348 248.92008,438.40547 C 248.32685,439.70747 246.50312,441.23929 244.86734,441.80953 C 242.73656,442.55232 242.0675,443.30053 242.50788,444.44814 C 242.85122,445.34287 242.24823,447.16149 241.14187,448.568 C 239.68701,450.41755 239.41434,451.55909 240.1148,452.8679 C 242.04592,456.47623 240.97328,466.11802 238.30177,469.16493 C 236.23684,471.52002 234.01064,477.42412 233.39081,482.18924 C 232.99731,485.21437 233.36596,486.50823 235.16789,488.4263 C 237.28807,490.68313 237.35546,491.13406 236.16669,495.10936 C 235.46555,497.45397 233.73867,501.62229 232.32918,504.37229 C 230.33655,508.26001 229.81123,510.64897 229.96774,515.11128 C 230.11465,519.29976 229.59188,521.98158 228.0328,525.03762 C 226.44211,528.15565 226.01257,530.43207 226.35077,533.95186 C 226.92335,539.91082 225.84632,541.87229 222.00172,541.87229 C 218.16267,541.87229 215.52945,543.23722 210.97536,547.58781 C 207.73433,550.68401 207.38987,551.4867 207.84526,554.88189 C 208.31166,558.3591 208.0822,558.839 205.25398,560.30153 C 199.32878,563.36557 197.59392,572.34139 202.2818,575.67899 C 203.29124,576.39768 204.11715,578.10753 204.11715,579.47865 C 204.11715,580.84978 204.82471,583.33988 205.6895,585.01221 C 207.27971,588.08734 207.029,590.87229 205.16195,590.87229" id="Internacional" sodipodi:nodetypes="cccccsscccccccssssssssssssssssscccsssssssssssssssssssssssssssssssssssssc" style="fill:none;stroke:#f95;stroke-width:3;stroke-miterlimit:4;stroke-dasharray:none;stroke-opacity:1"/>
  </g>
 </g>
</svg>
