<?xml version="1.0" encoding="utf-8"?>
<!-- Created with Inkscape (http://www.inkscape.org/) -->
<svg height="800" id="svg2" inkscape:version="0.44.1" sodipodi:docbase="C:\Documents and Settings\Administrador\Mis documentos\Mis imágenes\Mapas" sodipodi:docname="IV Coquimbo.svg" sodipodi:version="0.32" version="1.0" width="600" xmlns="http://www.w3.org/2000/svg" xmlns:cc="http://web.resource.org/cc/" xmlns:dc="http://purl.org/dc/elements/1.1/" xmlns:inkscape="http://www.inkscape.org/namespaces/inkscape" xmlns:rdf="http://www.w3.org/1999/02/22-rdf-syntax-ns#" xmlns:sodipodi="http://sodipodi.sourceforge.net/DTD/sodipodi-0.dtd" xmlns:svg="http://www.w3.org/2000/svg">
 <metadata id="metadata7">
  <rdf:RDF>
   <cc:Work rdf:about="">
    <dc:format>
     image/svg+xml
    </dc:format>
    <dc:type rdf:resource="http://purl.org/dc/dcmitype/StillImage"/>
   </cc:Work>
  </rdf:RDF>
 </metadata>
 <defs id="defs5"/>
 <sodipodi:namedview bordercolor="#666666" borderopacity="1.0" gridtolerance="10.0" guidetolerance="10.0" height="800px" id="base" inkscape:current-layer="svg2" inkscape:cx="300" inkscape:cy="400" inkscape:guide-bbox="true" inkscape:pageopacity="0.0" inkscape:pageshadow="2" inkscape:window-height="712" inkscape:window-width="1024" inkscape:window-x="-4" inkscape:window-y="-4" inkscape:zoom="0.66625" objecttolerance="10.0" pagecolor="#ffffff" showguides="true" width="600px"/>
 <g id="Region_Coquimbo">
  <g id="Provincia_Elqui">
   <path cod="04106" d="M 427.44291,327.7247 L 425.41236,323.83118 C 424.43116,321.94975 426.26374,318.50098 424.36584,317.55203 C 422.63492,316.68657 417.58376,314.89506 419.13321,311.79614 C 420.7116,308.63936 418.92697,309.92464 418.08669,306.56352 C 417.59435,304.59417 419.2563,301.97725 417.56343,300.28437 C 415.47311,298.19406 417.08445,297.71234 415.47038,296.09827 C 413.92936,294.55726 413.98975,291.47807 412.3308,289.81912 C 410.99414,288.48246 405.05717,288.87669 404.48187,287.72607 C 402.71045,284.18324 405.1788,284.26021 404.54764,281.73555 C 399.29525,277.3 400.73277,269.58958 396.10967,268.36536 C 391.17446,267.37832 397.04445,267.30111 395.5864,263.656 C 394.00844,259.71109 393.8818,259.28368 395.06314,256.33033 C 395.85386,254.35353 401.24792,254.57179 400.29577,252.66749 C 398.30702,249.46673 394.95764,248.16003 391.4003,247.43486 C 388.95982,246.82474 387.73747,245.45846 387.73747,244.29529 C 387.73747,243.48071 388.78399,240.37321 388.78399,240.10919 C 387.80213,237.99646 387.54041,233.34053 385.74233,234.03947 C 384.60573,234.48128 383.99005,241.11098 377.79548,236.44635 C 376.8009,237.44093 374.52972,239.78446 373.08612,239.06267 C 370.93531,237.98726 367.71483,235.0206 367.33023,234.87657 C 363.71637,233.52318 363.69211,235.2466 363.66739,236.96962 C 363.65709,237.68757 360.8075,241.47824 360.00456,241.67898 C 357.51029,242.30254 352.26713,241.14491 351.73721,243.66915 C 351.32508,245.63229 344.79344,244.20429 343.78342,245.34181 C 343.46078,245.70517 340.4817,250.25014 341.16711,251.62096 C 342.18639,253.65953 342.43733,256.27974 343.26016,257.37685 C 346.3171,261.45277 346.64414,260.55088 344.82995,264.17926 C 343.84915,266.14086 342.94734,267.00034 342.21363,269.93515 C 341.461,272.9457 340.69638,274.17378 343.26016,276.73756 C 345.19572,278.67312 345.46107,279.29168 344.82376,281.84091 C 344.12594,284.63221 345.18261,285.28036 343.26016,287.20281 C 342.66326,287.79971 339.34255,289.83285 340.12059,291.38891 C 340.52451,292.19676 341.18137,297.2138 339.07406,297.66806 C 332.09133,299.17327 333.70723,296.37287 332.27165,296.09827 C 330.20035,295.70207 325.45343,296.05803 323.37619,296.09827 C 317.61414,296.20989 320.01885,299.328 317.55257,299.36712 C 315.61829,299.3978 313.4851,301.072 311.34115,303.42395 C 309.90825,304.99587 304.73213,304.22306 302.96895,302.90068 C 298.93561,299.87567 301.98322,302.73478 298.25959,302.37742 C 289.01903,301.49059 289.03525,305.14138 289.0255,305.25845 C 288.85957,307.25124 288.77713,303.76968 284.51314,302.70368 C 281.77664,302.01956 280.31551,301.85416 277.32909,301.85416 C 271.15964,301.85416 277.3917,300.83894 273.14299,298.71458 C 271.84033,298.06325 268.62643,296.42874 266.34058,298.71458 C 265.23057,299.82459 267.87668,303.10048 266.34058,303.42395 C 263.3877,304.04577 265.02429,300.55696 257.44512,305.517 C 254.78963,307.25484 251.92075,303.71569 249.59618,306.04026 C 248.64591,306.99053 245.69701,306.98559 246.45661,303.94721 C 247.20488,300.95413 247.63672,302.6446 245.93335,299.23785 C 244.23118,295.83351 243.10503,296.9884 246.45661,294.52848 C 248.86959,292.75746 249.39216,292.27785 246.24493,287.72706 C 244.61478,285.36991 240.71091,283.59112 238.60767,283.53997 C 236.89624,283.33209 236.48844,282.09992 236.72905,280.35829 C 240.60615,278.14633 242.01726,273.7315 244.71753,270.31644 C 244.00504,266.03382 247.31287,262.72494 248.03638,258.72031 C 245.45741,254.78607 251.63215,255.95393 250.88118,253.1106 C 245.71571,249.10614 254.89946,247.04552 252.14347,242.69667 C 246.98626,239.09855 255.28965,235.55648 251.70637,231.34884 C 255.40445,229.53933 257.19584,224.08574 254.46262,220.94216 C 250.21021,220.85848 252.37671,217.60128 254.86328,216.45105 C 259.45784,214.79658 252.00136,212.46955 256.39827,210.72292 C 260.70227,208.73872 265.37134,207.39373 270.00951,206.51914 C 275.86035,205.45176 269.72086,199.05519 274.21515,196.68427 C 277.5077,192.92705 277.78107,191.33496 281.63187,188.55431 C 279.93159,184.79681 281.61874,181.78703 285.48656,180.69349 C 286.42904,176.48698 290.99921,177.5606 293.03475,174.63563 C 295.02176,170.3082 301.72599,172.91006 305.20893,170.21617 C 312.94315,167.68378 315.33739,167.86473 314.11139,168.28236 C 318.88226,166.66627 324.18755,170.19438 328.858,169.39049 C 332.045,173.15285 337.30527,176.54784 338.90618,169.70519 C 341.34022,164.57061 332.43768,161.47988 338.49018,157.45681 C 338.73583,154.50879 337.6717,150.62711 341.00731,148.85165 C 342.8997,146.56922 346.07213,141.50727 343.90598,139.30209 C 339.66985,136.18133 349.381,130.12742 346.14323,125.318 C 352.30447,123.18268 347.06564,117.9166 346.10069,115.06979 C 353.2633,110.5454 341.10043,104.75342 345.58245,98.912553 C 347.71197,93.615272 350.34586,87.146916 356.101,85.522454 C 358.74164,83.211469 359.89828,86.845558 360.55902,88.153659 C 356.97061,93.438719 380.01514,107.79377 378.36816,93.794721 C 388.55616,88.66011 398.14864,92.96715 404.12476,101.55853 C 410.0738,109.3331 415.20549,117.63651 420.40207,126.45322 C 425.80542,124.85478 429.60589,133.03933 433.80694,128.12886 C 444.90349,132.81445 454.73169,122.76116 465.12658,122.84434 C 469.7034,122.19759 466.36109,127.99775 467.03128,130.84481 C 467.71649,133.75568 469.66352,133.67758 470.81516,136.43385 C 472.35749,140.12517 471.19252,143.92174 470.5503,150.46869 C 469.61482,160.00521 469.10583,160.61022 478.9035,169.07986 C 482.39872,172.10132 486.54696,177.99765 481.02078,185.92873 C 474.93203,194.66719 475.78471,196.31498 479.66046,195.3762 C 481.13743,195.01845 479.7477,201.55837 479.7477,203.32837 C 479.7477,205.09838 483.39645,207.7229 482.50605,208.35873 C 482.10478,208.64527 481.22891,219.33733 477.25517,224.8433 C 475.82316,226.82748 484.23286,228.82389 477.64551,235.01644 C 474.82172,237.67099 474.11183,242.16876 474.84707,245.59411 C 475.78815,249.97849 472.87885,254.19573 470.35633,257.19357 C 466.27514,262.04381 463.55076,258.26438 468.71526,264.65 C 469.63063,265.78181 465.44024,276.55805 476.39093,267.35066 C 479.65607,264.60532 485.10912,267.04533 485.58687,269.04148 C 486.25118,271.81709 490.47691,274.85155 493.66592,272.9482 C 498.07566,270.31625 501.13998,281.03192 496.25943,281.17604 C 492.64336,281.28282 493.68873,284.44716 494.71132,286.44828 C 495.4104,287.81633 493.49576,291.62429 492.01006,294.53648 C 490.00151,298.47357 485.77633,295.752 482.98029,296.07345 C 479.97174,296.41934 482.68315,302.9232 483.01908,305.34509 C 483.25003,307.00998 481.18182,309.16027 480.07516,311.61037 C 476.43624,319.66674 477.91601,321.75873 480.26227,325.33956 C 482.94621,329.43577 479.10239,328.74382 474.11362,328.74382 C 472.39233,328.74382 468.34144,334.7656 466.1029,337.00415 C 462.80663,340.30042 463.42902,336.59553 460.16398,335.94251 C 457.833,335.47633 453.44419,338.74155 452.90911,339.60731 C 451.63832,341.66349 444.16235,339.33936 441.86894,337.24156 C 440.84652,336.30634 437.25576,331.2025 435.21113,329.36905 C 430.58273,327.69412 428.30413,327.31777 427.44291,327.7247 z " id="Vicuna" sodipodi:nodetypes="cssssssssccssccscscsssssssssssssssssssssssssssssssssccccccccccccccccccccccccccccccccsssssssssssssssssssssssssssscc" style="opacity:1;fill:#fdf9d2;fill-opacity:1;fill-rule:evenodd;stroke:#d38d5f;stroke-width:1;stroke-linecap:butt;stroke-linejoin:miter;stroke-miterlimit:4;stroke-dasharray:none;stroke-opacity:1"/>
   <path cod="04104" d="M 360.55902,88.153659 C 359.33027,85.475818 357.92607,84.026097 356.101,85.522454 C 350.34586,87.146916 347.71197,93.615272 345.58245,98.912553 C 341.10043,104.75342 353.2633,110.5454 346.10069,115.06979 C 347.06564,117.9166 352.30447,123.18268 346.14323,125.318 C 349.381,130.12742 339.66985,136.18133 343.90598,139.30209 C 346.07213,141.50727 342.8997,146.56922 341.00731,148.85165 C 337.6717,150.62711 338.73583,154.50879 338.49018,157.45681 C 332.43768,161.47988 341.34022,164.57061 338.90618,169.70519 C 337.30527,176.54784 332.045,173.15285 328.858,169.39049 C 324.18755,170.19438 318.88226,166.66627 314.11139,168.28236 C 314.3169,163.06399 313.31062,154.76914 306.876,153.96195 C 301.03207,152.94146 291.94181,155.89899 289.62302,148.37843 C 285.367,144.3554 282.06403,139.55698 276.80963,137.29864 C 272.83027,131.65203 266.60909,140.12768 263.56375,143.05116 C 260.74071,147.95379 252.4116,152.55497 248.00495,146.11502 C 246.44682,141.91466 243.34288,139.75994 240.71928,144.50025 C 236.45786,144.98313 234.32014,147.79439 231.10568,150.659 C 229.41715,157.3681 220.66245,151.77777 218.55086,157.78104 C 214.48857,160.21075 212.41673,166.80125 206.06854,164.80275 C 205.19424,171.50639 194.59118,164.78883 194.38606,171.02268 C 192.74588,178.65641 186.09786,169.18548 186.76202,165.04321 C 184.92738,165.77054 183.34505,166.16147 183.28455,164.52329 C 183.71813,162.64628 184.37327,160.99562 185.22479,160.34133 C 191.26952,155.69663 192.68826,154.56767 185.28033,149.11836 C 182.28322,146.91367 183.16985,142.2852 182.44286,138.00207 C 181.46721,132.25397 179.6832,126.70825 181.70118,124.4784 C 182.94266,123.10659 183.58459,121.37935 183.1277,120.64009 C 182.67081,119.90083 182.97571,117.80636 183.80526,115.9857 C 185.10019,113.14363 184.82581,112.18772 181.86535,109.22726 C 178.73607,106.09799 178.4912,105.06196 179.21752,98.024649 L 180.01785,90.270198 L 170.26226,80.893832 C 160.40348,71.418285 154.84522,68.495573 152.03266,71.308129 C 151.18962,72.151166 149.66946,72.840925 148.65453,72.840925 C 147.21591,72.840925 147.32701,71.964339 149.15861,68.863687 C 151.48529,64.924924 148.83204,66.237549 147.19502,59.974216 L 145.3633,52.965956 C 151.77176,52.039946 167.26838,58.536183 168.48072,49.325378 C 171.13581,41.830866 176.51081,42.367551 182.25546,45.654389 C 187.5941,56.729239 197.75,50.27611 207.55505,51.991586 C 210.85582,59.971315 206.4902,79.247123 216.45689,78.339416 C 218.54624,81.827192 222.90014,79.745765 226.50382,78.756885 C 231.22485,77.461374 233.80588,85.059852 231.04715,91.033841 C 237.74742,96.676632 249.54516,84.930141 247.85741,76.362628 C 259.49048,72.391135 245.03362,63.325628 256.43348,54.29003 C 250.77051,45.577476 258.73533,46.645552 264.09488,43.736578 C 266.23689,36.905137 269.11838,38.658778 274.32853,39.823506 C 278.15166,40.678182 284.58454,40.932907 288.49822,39.180135 C 306.70579,23.304053 306.18679,33.143537 307.65773,23.523154 C 300.06342,17.730732 315.68134,15.220004 319.46092,17.132586 C 322.79721,16.347692 328.68082,12.618107 330.19095,12.615092 C 332.20218,12.611073 331.12928,16.648809 336.33057,16.131551 C 339.96773,15.139033 343.0036,13.953626 344.86177,14.83835 C 347.71089,16.194874 347.71322,21.474124 344.76043,25.916879 C 344.29121,36.46505 361.20972,42.377054 354.6324,53.733688 C 365.53732,59.929838 354.838,70.21355 361.27713,76.663787 C 368.42151,80.848313 363.75109,82.443433 360.55902,88.153659 z M 132.17065,75.664332 C 134.02373,72.823674 135.71198,69.187559 136.42296,71.812202 C 137.07069,74.203348 136.02693,78.28224 134.56139,78.28224 C 133.90047,78.28224 132.17065,77.490629 132.17065,75.664332 z M 137.66164,65.101956 C 137.33247,66.809945 137.93349,67.810933 139.44524,68.561063 C 140.11665,66.884992 139.11895,65.737233 137.66164,65.101956 z " id="La_Higuera" sodipodi:nodetypes="cccccccccccccccccccccccssssssscccsssccccccsccccscccscscccccsscccc" style="fill:#fdf9d2;fill-opacity:1;fill-rule:evenodd;stroke:#d38d5f;stroke-width:1;stroke-linecap:butt;stroke-linejoin:miter;stroke-miterlimit:4;stroke-dasharray:none;stroke-opacity:1"/>
   <path cod="04105" d="M 427.44291,327.7247 C 424.48062,330.2011 429.37429,334.98807 432.11462,339.14171 C 435.86131,348.15723 433.58724,354.37886 424.01411,358.94883 C 421.25255,360.26712 419.79142,361.44267 419.08768,362.5216 C 418.38394,363.60053 417.00769,359.76044 413.35794,360.62653 C 409.70819,361.49262 407.50471,358.02167 404.26561,357.2663 C 400.96614,357.45913 396.8721,354.93666 399.66981,351.37068 C 402.39501,349.6538 401.89676,346.63881 399.23811,345.17906 C 396.32929,342.54308 392.24685,341.79636 388.47396,342.4513 C 386.10451,344.69725 384.3856,347.83677 380.77875,348.77633 C 377.73,348.90007 375.00022,347.00018 372.00632,346.56706 C 367.05351,346.47288 369.9379,340.03798 366.36183,338.80159 C 363.85842,337.75841 359.64632,338.50361 358.80614,335.18906 C 354.84401,331.27009 362.92852,330.87405 360.23161,327.953 C 357.51737,326.3111 353.85711,326.04021 351.69148,323.5303 C 350.84238,319.4522 348.73314,315.81925 347.48051,311.86935 C 344.50785,309.00134 348.48865,306.63806 347.12611,303.52499 C 345.96446,300.38199 344.50498,297.33033 343.5014,294.1424 C 342.49782,290.95447 340.89863,292.94497 340.12059,291.38891 C 339.34255,289.83285 342.66326,287.79971 343.26016,287.20281 C 345.18261,285.28036 344.12594,284.63221 344.82376,281.84091 C 345.46107,279.29168 345.19572,278.67312 343.26016,276.73756 C 340.69638,274.17378 341.461,272.9457 342.21363,269.93515 C 342.94734,267.00034 343.84915,266.14086 344.82995,264.17926 C 346.64414,260.55088 346.3171,261.45277 343.26016,257.37685 C 342.43733,256.27974 342.18639,253.65953 341.16711,251.62096 C 340.4817,250.25014 343.46078,245.70517 343.78342,245.34181 C 344.79344,244.20429 351.32508,245.63229 351.73721,243.66915 C 352.26713,241.14491 357.51029,242.30254 360.00456,241.67898 C 360.8075,241.47824 363.65709,237.68757 363.66739,236.96962 C 363.69211,235.2466 363.71637,233.52318 367.33023,234.87657 C 367.71483,235.0206 370.93531,237.98726 373.08612,239.06267 C 374.52972,239.78446 376.8009,237.44093 377.79548,236.44635 C 383.99005,241.11098 384.60573,234.48128 385.74233,234.03947 C 387.54041,233.34053 387.80213,237.99646 388.78399,240.10919 C 388.78399,240.37321 387.73747,243.48071 387.73747,244.29529 C 387.73747,245.45846 388.95982,246.82474 391.4003,247.43486 C 394.95764,248.16003 398.30702,249.46673 400.29577,252.66749 C 401.24792,254.57179 395.85386,254.35353 395.06314,256.33033 C 393.8818,259.28368 394.00844,259.71109 395.5864,263.656 C 397.04445,267.30111 391.17446,267.37832 396.10967,268.36536 C 400.73277,269.58958 399.29525,277.3 404.54764,281.73555 C 405.1788,284.26021 402.71045,284.18324 404.48187,287.72607 C 405.05717,288.87669 410.99414,288.48246 412.3308,289.81912 C 413.98975,291.47807 413.92936,294.55726 415.47038,296.09827 C 417.08445,297.71234 415.47311,298.19406 417.56343,300.28437 C 419.2563,301.97725 417.59435,304.59417 418.08669,306.56352 C 418.92697,309.92464 420.7116,308.63936 419.13321,311.79614 C 417.58376,314.89506 422.63492,316.68657 424.36584,317.55203 C 426.26374,318.50098 424.46341,321.93328 425.41236,323.83118 L 427.44291,327.7247 z " id="Paihuano" sodipodi:nodetypes="ccsccccccccccccccssssssssssssssscscsccssccssssssscc" style="fill:#fdf9d2;fill-opacity:1;fill-rule:evenodd;stroke:#d38d5f;stroke-width:1;stroke-linecap:butt;stroke-linejoin:miter;stroke-miterlimit:4;stroke-dasharray:none;stroke-opacity:1"/>
   <path cod="04101" d="M 183.28455,164.52329 C 181.85069,171.90037 182.59487,179.70173 179.45428,186.72206 C 177.85177,190.69366 177.96567,191.39108 180.69051,194.29154 C 182.34127,196.04869 183.69189,198.55268 183.69189,199.85594 C 183.69189,201.15922 184.82006,206.63811 187.93176,206.09805 C 192.85687,205.24325 192.56594,209.61337 192.35283,217.55438 C 192.1801,223.99071 194.5957,226.40968 191.99787,228.23232 C 190.24485,229.46224 190.515,233.06209 190.515,234.96571 L 197.99374,235.60825 L 207.01642,243.32782 L 207.01641,245.53683 L 216.16805,245.53683 L 220.90166,250.90158 L 219.95494,266.99585 L 227.21314,263.52454 L 227.84429,268.25814 L 225.95084,273.30732 L 230.36888,278.04093 L 236.72905,280.35829 C 240.60615,278.14633 242.01726,273.7315 244.71753,270.31644 C 244.00504,266.03382 247.31287,262.72494 248.03638,258.72031 C 245.45741,254.78607 251.63215,255.95393 250.88118,253.1106 C 245.71571,249.10614 254.89946,247.04552 252.14347,242.69667 C 246.98626,239.09855 255.28965,235.55648 251.70637,231.34884 C 255.40445,229.53933 257.19584,224.08574 254.46262,220.94216 C 250.21021,220.85848 252.37671,217.60128 254.86328,216.45105 C 259.45784,214.79658 252.00136,212.46955 256.39827,210.72292 C 260.70227,208.73872 265.37134,207.39373 270.00951,206.51914 C 275.86035,205.45176 269.72086,199.05519 274.21515,196.68427 C 277.5077,192.92705 277.78107,191.33496 281.63187,188.55431 C 279.93159,184.79681 281.61874,181.78703 285.48656,180.69349 C 286.42904,176.48698 290.99921,177.5606 293.03475,174.63563 C 295.02176,170.3082 301.72599,172.91006 305.20893,170.21617 C 308.69187,167.52228 313.90588,173.50073 314.11139,168.28236 C 314.3169,163.06399 313.31062,154.76914 306.876,153.96195 C 301.03207,152.94146 291.94181,155.89899 289.62302,148.37843 C 285.367,144.3554 282.06403,139.55698 276.80963,137.29864 C 272.83027,131.65203 266.60909,140.12768 263.56375,143.05116 C 260.74071,147.95379 252.4116,152.55497 248.00495,146.11502 C 246.44682,141.91466 243.34288,139.75994 240.71928,144.50025 C 236.45786,144.98313 234.32014,147.79439 231.10568,150.659 C 229.41715,157.3681 220.66245,151.77777 218.55086,157.78104 C 214.48857,160.21075 212.41673,166.80125 206.06854,164.80275 C 205.19424,171.50639 194.59118,164.78883 194.38606,171.02268 C 192.74588,178.65641 186.09786,169.18548 186.76202,165.04321 C 184.92738,165.77054 183.34505,166.16147 183.28455,164.52329 z " id="La_Serena" sodipodi:nodetypes="ccsssssccccccccccccccccccccccccccccccccccccccc" style="fill:#ff0000;fill-opacity:1;fill-rule:evenodd;stroke:#d38d5f;stroke-width:1;stroke-linecap:butt;stroke-linejoin:miter;stroke-miterlimit:4;stroke-dasharray:none;stroke-opacity:1"/>
   <path cod="04103" d="M 225.95084,273.30732 L 230.36888,278.04093 L 236.72905,280.35829 C 236.48844,282.09992 236.89624,283.33209 238.60767,283.53997 C 240.71091,283.59112 244.61478,285.36991 246.24493,287.72706 C 249.39216,292.27785 248.86959,292.75746 246.45661,294.52848 C 243.10503,296.9884 244.23118,295.83351 245.93335,299.23785 C 247.63672,302.6446 247.20488,300.95413 246.45661,303.94721 C 245.69701,306.98559 248.64591,306.99053 249.59618,306.04026 C 251.92075,303.71569 254.78963,307.25484 257.44512,305.517 C 265.02429,300.55696 263.3877,304.04577 266.34058,303.42395 L 271.21538,315.83817 L 263.44619,322.54792 L 254.61756,314.42559 L 251.08611,314.07244 L 250.37982,319.01647 L 236.60717,335.96743 L 238.37289,340.55832 L 219.20242,344.18559 L 219.40025,339.43752 L 208.91494,334.09595 L 209.50845,324.59981 L 206.73874,324.00631 L 208.12359,310.15778 L 214.05868,309.56427 L 214.05868,297.29843 L 208.51927,291.16551 L 208.7171,285.82394 L 207.33225,284.24125 L 211.09114,279.49318 L 217.22405,279.49318 L 225.95084,273.30732 z " id="Andacollo" sodipodi:nodetypes="ccccsssssscccccccccccccccccccccc" style="fill:#fdf9d2;fill-opacity:1;fill-rule:evenodd;stroke:#d38d5f;stroke-width:1;stroke-linecap:butt;stroke-linejoin:miter;stroke-miterlimit:4;stroke-opacity:1"/>
   <path cod="04102" d="M 225.95084,273.30732 L 217.22405,279.49318 L 211.09114,279.49318 L 207.33225,284.24125 L 208.7171,285.82394 L 208.51927,291.16551 L 214.05868,297.29843 L 214.05868,309.56427 L 208.12359,310.15778 L 206.73874,324.00631 L 203.19268,323.0138 L 202.81002,325.11843 L 192.47819,328.17971 L 192.28686,333.1543 L 190.56489,333.1543 C 191.77653,335.578 191.93106,339.58734 194.20016,340.42484 L 194.20016,346.54741 L 190.75622,346.73874 C 184.39984,343.66806 186.36942,353.54889 184.25099,357.07057 L 178.89374,361.6625 C 177.85679,368.00758 177.66108,377.48818 171.24053,363.76713 C 166.82412,366.74507 159.9005,375.09575 158.23008,361.6625 L 153.2555,362.42782 L 153.63816,349.60869 L 137.56642,349.22603 C 134.35278,347.10723 132.01348,343.23976 127.42592,343.86879 L 126.42592,335.45775 C 122.00712,334.62999 118.65405,331.85985 113.13969,333.01518 C 111.27033,333.40684 114.35513,326.5365 114.8665,323.20424 C 115.37788,319.87197 117.0943,315.04532 118.68078,312.47834 C 121.37547,308.11824 121.68481,307.97456 123.38152,310.29495 C 124.38045,311.66106 125.19775,313.88609 125.19775,315.23945 C 125.19775,316.59281 126.36944,318.8718 127.80151,320.30387 C 129.91841,322.42078 131.32706,322.69974 135.33502,321.7958 C 143.32677,319.99336 149.21164,318.96959 149.67506,312.75613 L 152.11652,307.20624 C 154.26616,294.54581 153.0711,302.40028 156.04683,294.89949 C 154.78893,287.3987 160.22904,290.96247 161.13134,293.31381 C 162.03364,295.66515 168.58168,294.83555 170.82166,292.59556 C 173.06164,290.35557 173.51053,278.74921 173.94434,278.04729 C 171.39421,275.08239 174.92845,270.68042 173.4271,268.25753 C 169.75776,266.84513 172.31796,255.38268 168.12338,254.3612 C 159.24253,252.1985 167.10381,243.85044 168.39599,245.49944 C 170.61146,248.32669 173.32458,240.80327 173.25417,241.73674 C 172.79398,247.83821 183.45943,243.66687 174.05008,238.71337 L 182.42959,231.85234 C 180.3018,233.16738 179.57356,237.0271 181.84746,237.0271 C 183.10447,237.0271 190.515,237.01322 190.515,234.96571 L 197.99374,235.60825 L 207.01642,243.32782 L 207.01641,245.53683 L 216.16805,245.53683 L 220.90166,250.90158 L 219.95494,266.99585 L 227.21314,263.52454 L 227.84429,268.25814 L 225.95084,273.30732 z " id="Coquimbo" sodipodi:nodetypes="cccccccccccccccccccccccccccssssssscccssccsssccscccccccccc" style="fill:#fdf9d2;fill-opacity:1;fill-rule:evenodd;stroke:#d38d5f;stroke-width:1;stroke-linecap:butt;stroke-linejoin:miter;stroke-miterlimit:4;stroke-opacity:1"/>
  </g>
  <g id="Provincia_Limari">
   <path cod="04302" d="M 254.70891,573.5921 C 255.28504,570.79168 257.97216,568.41864 260.91591,568.78606 C 262.9603,568.43064 262.91362,565.55689 264.956,565.15663 C 267.26026,564.0424 269.47592,564.44561 271.94891,564.52304 C 274.27001,564.09017 276.56544,565.80124 275.18741,568.19035 C 274.85007,570.89353 276.64333,573.90683 279.50774,574.21386 C 282.37215,574.52089 278.3145,583.76294 281.50052,583.78046 C 284.68654,583.79798 288.19651,584.73063 289.89964,587.65907 C 292.89626,590.68999 293.91893,586.05851 295.88486,584.77165 C 299.99524,584.15372 297.8515,580.48162 298.30048,577.82619 C 299.1643,574.69564 303.2658,573.94594 303.34407,570.29412 C 306.67879,570.38865 306.10938,565.74672 308.6048,564.43317 C 311.82835,563.74748 312.7207,557.99126 316.44777,561.33664 C 319.08289,562.86286 316.50691,568.78804 320.30795,567.95224 C 322.76127,565.93031 326.66869,566.37915 328.46528,563.43992 C 330.55405,560.50197 334.10169,559.39578 336.72588,557.17023 C 335.56287,554.18724 338.8251,550.49636 339.66842,550.66502 L 340.03563,542.58642 L 336.73075,540.01596 L 337.09796,528.26526 C 332.76967,526.31786 333.80483,523.02959 333.05866,520.18666 C 329.84883,522.66073 326.58054,524.66717 322.40959,519.45225 L 316.16704,510.63923 C 305.09363,512.36623 302.22033,507.38406 301.84588,500.35737 C 298.27358,500.79233 299.83068,499.18636 297.80658,498.88855 C 295.78248,498.59074 293.41806,497.29946 295.00139,494.99266 C 294.10372,492.14704 291.04848,490.59267 289.75887,487.9082 C 288.19973,485.16397 291.90663,481.55025 288.69284,479.35947 C 286.63354,477.44645 282.31263,478.65172 281.58182,480.93004 C 282.38082,482.58896 285.23077,485.97709 281.25233,485.06525 C 278.68391,484.93822 275.7051,483.24732 277.44888,480.3982 C 277.07958,477.11434 272.80999,478.71705 270.64316,477.75636 C 267.8707,475.09116 265.71222,478.71902 262.90074,478.5588 C 260.20496,477.52824 258.05915,475.35029 255.89103,473.49535 C 253.23105,472.03288 252.54073,469.19018 250.93525,467.01342 C 248.40995,466.69603 245.5239,468.26149 244.46433,470.65142 C 243.86254,473.17326 241.06254,475.35148 240.25969,471.59724 C 238.72123,469.27298 238.73655,466.61353 238.77439,464.12322 C 237.23583,462.37761 232.79473,460.91125 234.76201,458.02914 C 235.17898,459.44453 237.81244,448.16244 224.97973,449.99114 C 220.74898,449.65404 226.51937,456.30532 221.71927,455.34096 C 218.28935,454.99284 213.81832,456.41142 217.58977,458.56156 C 220.98395,463.19661 213.88823,463.13231 211.71755,465.55228 C 209.78984,467.05144 204.23432,466.47977 208.09859,469.11175 C 209.00398,471.91203 207.75573,477.90545 204.24707,475.70493 C 201.33854,475.99779 205.2225,483.23933 200.54282,480.42498 C 195.53223,477.51915 196.01302,486.64743 199.20383,488.02413 C 201.73458,489.66957 203.03657,494.11079 200.23583,495.81826 C 202.84943,498.92147 200.01788,502.45602 198.00016,504.02036 C 201.09184,504.87309 203.50839,507.37838 200.99159,510.32496 C 202.36673,512.94901 199.25188,514.54195 200.10667,517.2481 C 197.48647,519.05696 201.19706,524.32052 196.52024,523.04621 C 196.93025,527.6975 192.85937,536.43599 206.7859,533.9707 C 208.39959,531.83105 211.45721,532.95094 213.7213,532.35842 C 216.27816,532.12782 218.11293,534.95776 220.63817,534.01874 C 222.90177,533.69559 223.87862,536.57853 226.38349,535.49704 C 228.25344,536.45938 227.20076,539.46139 228.9908,540.93242 C 228.76681,543.38359 233.03146,543.83576 230.99574,546.35395 C 231.09925,548.89835 232.05518,551.46296 232.78941,553.80241 C 234.08965,552.33456 238.57654,556.17548 238.10567,559.25289 L 238.48301,567.93188 C 241.27003,574.48082 246.9566,572.66025 244.8979,578.12024 C 254.31861,582.76123 252.63545,576.29836 254.70891,573.5921 z " id="Combarbala" inkscape:label="#path3765" sodipodi:nodetypes="cccccsscccccccccccccccccscccccccccccccccccccccccccccccccccccccc" style="fill:#fdf9d2;fill-opacity:1;fill-rule:evenodd;stroke:#d38d5f;stroke-width:1px;stroke-linecap:butt;stroke-linejoin:miter;stroke-opacity:1"/>
   <path cod="04301" d="M 230.16708,433.53945 L 226.15779,435.68036 C 224.5173,434.65387 222.99281,433.45674 221.40463,432.354 C 218.70927,428.18322 214.21413,435.31812 213.17227,430.70957 C 212.19712,433.6164 209.57894,436.32535 207.65397,431.97959 C 210.96538,427.59404 201.83124,431.12799 201.22038,427.55288 C 202.28504,425.79647 202.31896,417.28792 199.21345,421.44547 C 198.89591,426.55378 193.0005,424.58623 191.1977,428.20637 C 188.13757,430.6598 185.60406,439.8813 180.85024,434.54177 C 177.67762,430.43747 171.87379,432.20021 172.99502,437.77159 C 178.62221,441.13418 176.05774,447.05252 175.99471,452.31824 C 174.3796,457.11649 178.485,461.0803 177.87957,465.60651 C 173.46164,463.5216 169.56879,468.11082 164.55366,467.03853 C 161.32257,469.87943 158.51537,468.0371 155.75968,465.80531 C 150.43667,463.93922 146.17862,469.13297 145.64008,473.9293 C 149.43536,474.70823 148.05346,478.21089 147.13857,480.82304 C 144.95692,484.1422 140.43244,489.83797 146.71823,491.79045 C 146.02951,495.88949 140.53576,500.59203 144.73533,504.52034 C 146.62522,508.83012 149.41026,503.32334 151.54013,505.80884 C 156.09412,507.83918 154.47537,512.63254 156.81327,515.79502 C 161.19803,516.39033 160.25825,519.43497 159.13285,522.44271 C 160.86198,524.61247 160.64284,526.58491 159.88157,528.55321 C 159.12377,530.51252 157.82877,532.46771 157.38353,534.60934 C 154.84739,534.29986 152.56045,531.17905 149.63003,533.65524 C 147.31936,531.63983 143.99194,532.21495 143.5074,534.77859 C 142.78324,531.9805 139.26322,530.00641 135.28348,530.66663 C 136.3499,531.32685 125.71163,551.12539 121.66684,541.18126 C 118.56764,531.23713 118.2984,528.90897 119.46473,522.13926 C 120.33359,517.09619 120.32989,513.09654 119.45404,510.58409 C 118.18272,506.93717 118.45958,502.12849 120.51516,492.15405 C 121.19346,488.86269 120.55305,485.89204 118.02246,480.59125 C 116.14943,476.66783 114.21993,470.09094 113.73469,465.97595 C 113.24944,461.86095 112.24231,456.58488 111.49662,454.25134 C 110.20131,450.19787 104.47965,427.41631 107.53707,423.46567 C 111.4262,418.44033 108.81625,413.45527 106.53358,404.6771 C 105.28903,399.8911 105.83785,393.30718 106.61128,390.39364 C 107.38439,387.48133 109.64171,382.01928 108.26969,373.47359 C 107.21373,366.8965 109.66063,356.35861 110.23209,349.83057 C 110.81572,343.16351 111.38933,337.44646 111.01792,337.07505 C 110.64652,336.70366 111.15131,334.79397 112.63969,332.92326 C 118.65405,331.85985 122.00712,334.62999 126.42592,335.45775 L 127.42592,343.86879 C 132.01348,343.23976 134.35278,347.10723 137.56642,349.22603 L 153.63816,349.60869 L 153.2555,362.42782 L 158.23008,361.6625 C 159.9005,375.09575 166.82412,366.74507 171.24053,363.76713 C 177.66108,377.48818 177.85679,368.00758 178.89374,361.6625 L 184.25099,357.07057 C 186.36942,353.54889 184.39984,343.66806 190.75622,346.73874 L 194.20016,346.54741 L 194.20016,340.42484 C 191.93106,339.58734 191.77653,335.578 190.56489,333.1543 L 192.28686,333.1543 L 192.47819,328.17971 L 202.81002,325.11843 L 203.19268,323.0138 L 206.73874,324.00631 L 209.50845,324.59981 L 208.91494,334.09595 L 219.40025,339.43752 L 219.20242,344.18559 L 238.37289,340.55832 L 242.25749,351.85896 L 236.60717,358.21557 C 245.33177,363.51046 244.27004,370.43641 247.90781,376.57911 L 252.14555,378.34484 L 267.33079,374.1071 L 266.97764,366.69105 C 271.91953,369.0721 273.12148,366.77823 274.39369,364.57218 L 277.57199,371.63508 L 284.35534,375.61416 C 279.32724,375.9253 275.69292,378.53606 275.16624,383.96893 C 271.50454,381.86185 266.03483,385.54339 261.66405,387.22433 C 255.59121,390.38757 261.5328,399.35836 255.16114,402.3975 C 251.84915,400.12478 245.67392,399.6806 246.41383,405.5923 C 251.0133,409.25168 247.32934,413.46323 244.72951,416.4845 L 244.30704,422.14892 L 230.16708,433.53945 z " id="Ovalle" inkscape:label="#path1896" sodipodi:nodetypes="cccccccccccccccccccccscccccsssssssssssscccccccccccccccccccccccccccccccccccccccc" style="opacity:1;fill:#fdf9d2;fill-opacity:1;fill-rule:evenodd;stroke:#d38d5f;stroke-width:1;stroke-linecap:butt;stroke-linejoin:miter;stroke-miterlimit:4;stroke-opacity:1"/>
   <path cod="04305" d="M 284.35534,375.61416 C 288.18137,372.60456 294.06528,375.87856 296.64182,370.57565 C 302.47994,372.32573 307.96358,371.13446 311.42449,366.05045 C 316.34972,369.1091 314.99568,357.94997 319.59625,363.1596 C 324.43452,364.3731 329.874,369.2101 334.42834,364.21904 C 337.46824,361.35427 342.57393,362.47241 343.73731,366.14063 C 347.89386,367.71357 351.20993,370.75363 350.73565,374.70838 C 355.16586,380.80291 364.37496,374.16081 368.1498,380.28325 C 371.22995,384.37302 369.17862,392.52697 374.64403,394.85774 C 380.10149,392.86112 382.50207,399.2633 386.31938,399.87801 C 391.03034,398.00981 392.49313,406.38317 397.99445,403.41814 C 401.496,403.299 399.75817,408.25546 403.29162,408.36217 C 406.82507,408.46888 406.39762,415.49787 406.81996,407.90163 C 407.2423,400.30539 407.29231,392.92689 412.87765,386.63195 C 417.38947,380.32286 419.93278,370.30893 419.6229,368.28218 C 419.35087,366.50294 417.65948,364.71126 419.08768,362.5216 C 418.38394,363.60053 417.00769,359.76044 413.35794,360.62653 C 409.70819,361.49262 407.50471,358.02167 404.26561,357.2663 C 400.96614,357.45913 396.8721,354.93666 399.66981,351.37068 C 402.39501,349.6538 401.89676,346.63881 399.23811,345.17906 C 396.32929,342.54308 392.24685,341.79636 388.47396,342.4513 C 386.10451,344.69725 384.3856,347.83677 380.77875,348.77633 C 377.73,348.90007 375.00022,347.00018 372.00632,346.56706 C 367.05351,346.47288 369.9379,340.03798 366.36183,338.80159 C 363.85842,337.75841 359.64632,338.50361 358.80614,335.18906 C 354.84401,331.27009 362.92852,330.87405 360.23161,327.953 C 357.51737,326.3111 353.85711,326.04021 351.69148,323.5303 C 350.84238,319.4522 348.73314,315.81925 347.48051,311.86935 C 344.50785,309.00134 348.48865,306.63806 347.12611,303.52499 C 345.96446,300.38199 344.50498,297.33033 343.5014,294.1424 C 342.49782,290.95447 340.89863,292.94497 340.12059,291.38891 C 340.52451,292.19676 341.18137,297.2138 339.07406,297.66806 C 332.09133,299.17327 333.70723,296.37287 332.27165,296.09827 C 330.20035,295.70207 325.45343,296.05803 323.37619,296.09827 C 317.61414,296.20989 320.01885,299.328 317.55257,299.36712 C 315.61829,299.3978 313.4851,301.072 311.34115,303.42395 C 309.90825,304.99587 304.73213,304.22306 302.96895,302.90068 C 298.93561,299.87567 301.98322,302.73478 298.25959,302.37742 C 289.01903,301.49059 289.03525,305.14138 289.0255,305.25845 C 288.85957,307.25124 288.77713,303.76968 284.51314,302.70368 C 281.77664,302.01956 280.31551,301.85416 277.32909,301.85416 C 271.15964,301.85416 277.3917,300.83894 273.14299,298.71458 C 271.84033,298.06325 268.62643,296.42874 266.34058,298.71458 C 265.23057,299.82459 267.87668,303.10048 266.34058,303.42395 L 271.21538,315.83817 L 263.44619,322.54792 L 254.61756,314.42559 L 251.08611,314.07244 L 250.37982,319.01647 L 236.60717,335.96743 L 238.37289,340.55832 L 242.25749,351.85896 L 236.60717,358.21557 C 245.33177,363.51046 244.27004,370.43641 247.90781,376.57911 L 252.14555,378.34484 L 267.33079,374.1071 L 266.97764,366.69105 C 271.91953,369.0721 273.12148,366.77823 274.39369,364.57218 L 277.57199,371.63508 L 284.35534,375.61416 z " id="Rio_Hurtado" sodipodi:nodetypes="ccccccccccccccsssccccccccccccssssssssssssssccccccccccccccccc" style="opacity:1;fill:#fdf9d2;fill-opacity:1;fill-rule:evenodd;stroke:#d38d5f;stroke-width:1;stroke-linecap:butt;stroke-linejoin:miter;stroke-miterlimit:4;stroke-opacity:1"/>
   <path cod="04303" d="M 250.43661,437.56462 C 254.06215,435.96305 245.66395,443.46156 248.23335,444.17438 C 249.76992,445.57575 249.44026,447.88517 248.33576,449.46229 C 246.79851,451.88065 243.97686,453.59044 241.24402,454.37414 C 238.42782,454.28741 235.95647,455.37082 234.76201,458.02914 C 232.79473,460.91125 237.23583,462.37761 238.77439,464.12322 C 238.73655,466.61353 238.72123,469.27298 240.25969,471.59724 C 241.06254,475.35148 243.86254,473.17326 244.46433,470.65142 C 245.5239,468.26149 248.40995,466.69603 250.93525,467.01342 C 252.54073,469.19018 253.23105,472.03288 255.89103,473.49535 C 258.05915,475.35029 260.20496,477.52824 262.90074,478.5588 C 265.71222,478.71902 267.8707,475.09116 270.64316,477.75636 C 272.80999,478.71705 277.07958,477.11434 277.44888,480.3982 C 275.7051,483.24732 278.68391,484.93822 281.25233,485.06525 C 285.23077,485.97709 282.38082,482.58896 281.58182,480.93004 C 282.31263,478.65172 286.63354,477.44645 288.69284,479.35947 C 291.90663,481.55025 288.19973,485.16397 289.75887,487.9082 C 291.04848,490.59267 294.10372,492.14704 295.00139,494.99266 C 293.41806,497.29946 295.78248,498.59074 297.80658,498.88855 C 299.83068,499.18636 298.27358,500.79233 301.84588,500.35737 C 302.22033,507.38406 305.09363,512.36623 316.16704,510.63923 L 322.40959,519.45225 C 326.58054,524.66717 329.84883,522.66073 333.05866,520.18666 C 333.80483,523.02959 332.76967,526.31786 337.09796,528.26526 L 336.73075,540.01596 L 340.03563,542.58642 L 339.66842,550.66502 L 350.27145,554.47488 C 351.53009,552.51801 354.68155,546.08982 353.85432,538.67715 C 352.05072,522.51547 355.83794,515.20689 361.3013,512.5607 C 363.25354,511.61513 365.8017,502.57123 366.15755,506.59046 C 366.3626,508.90656 370.32839,516.21134 373.73402,517.4543 C 377.16614,518.70693 372.14329,524.23987 377.35484,522.18381 C 387.10941,518.33545 381.85129,516.77377 383.57851,510.94041 C 385.15221,505.62553 392.52864,495.61893 394.25687,494.45409 C 397.60255,492.19907 402.81996,495.82044 403.1514,492.43284 C 403.42805,489.60537 402.12853,489.50599 400.23015,487.78798 C 396.13733,492.48421 398.83192,479.83795 395.32228,474.43139 C 390.28811,474.49794 389.33536,468.72964 394.20023,464.94997 C 397.28687,462.55186 395.24494,455.18223 397.14055,448.59445 C 398.37976,444.28786 400.6301,440.80547 399.37581,437.76295 C 398.50742,435.65651 399.13749,433.47454 399.95797,432.96745 C 400.74996,432.47797 401.39795,430.65821 401.39795,428.92353 C 401.39795,427.18884 404.79672,421.70103 405.81184,420.85855 C 408.27834,416.32292 405.7053,412.94604 406.81996,407.90163 C 406.39762,415.49787 406.82507,408.46888 403.29162,408.36217 C 399.75817,408.25546 401.496,403.299 397.99445,403.41814 C 392.49313,406.38317 391.03034,398.00981 386.31938,399.87801 C 382.50207,399.2633 380.10149,392.86112 374.64403,394.85774 C 369.17862,392.52697 371.22995,384.37302 368.1498,380.28325 C 364.37496,374.16081 355.16586,380.80291 350.73565,374.70838 C 351.20993,370.75363 347.89386,367.71357 343.73731,366.14063 C 342.57393,362.47241 337.46824,361.35427 334.42834,364.21904 C 329.874,369.2101 324.43452,364.3731 319.59625,363.1596 C 314.99568,357.94997 316.34972,369.1091 311.42449,366.05045 C 307.96358,371.13446 302.47994,372.32573 296.64182,370.57565 C 294.06528,375.87856 288.18137,372.60456 284.35534,375.61416 C 279.32724,375.9253 275.69292,378.53606 275.16624,383.96893 C 271.50454,381.86185 266.03483,385.54339 261.66405,387.22433 C 255.59121,390.38757 261.5328,399.35836 255.16114,402.3975 C 251.84915,400.12478 245.67392,399.6806 246.41383,405.5923 C 251.0133,409.25168 247.32934,413.46323 244.72951,416.4845 L 244.30704,422.14892 L 230.16708,433.53945 C 232.86491,442.99854 239.90714,443.76881 250.43661,437.56462 z " id="Monte_Patria" sodipodi:nodetypes="ccccccccccccccccccccccccccccssssssssccsssssccsccccccccccccccccccc" style="opacity:1;fill:#fdf9d2;fill-opacity:1;stroke:#d38d5f;stroke-width:1;stroke-miterlimit:4;stroke-opacity:1"/>
   <path cod="04304" d="M 159.53448,529.37869 C 161.35996,527.56305 164.56409,533.19104 168.06129,532.88206 C 169.20998,529.58205 174.10374,526.61443 177.13818,529.54039 C 179.88572,529.04076 181.51117,524.38688 185.37561,525.11043 C 189.09056,524.95591 192.76175,523.48927 196.52024,523.04621 C 201.19706,524.32052 197.48647,519.05696 200.10667,517.2481 C 199.25188,514.54195 202.36673,512.94901 200.99159,510.32496 C 203.50839,507.37838 201.09184,504.87309 198.00016,504.02036 C 200.01788,502.45602 202.84943,498.92147 200.23583,495.81826 C 203.03657,494.11079 201.73458,489.66957 199.20383,488.02413 C 196.01302,486.64743 195.53223,477.51915 200.54282,480.42498 C 205.2225,483.23933 201.33854,475.99779 204.24707,475.70493 C 207.75573,477.90545 209.00398,471.91203 208.09859,469.11175 C 204.23432,466.47977 209.78984,467.05144 211.71755,465.55228 C 213.88823,463.13231 220.98395,463.19661 217.58977,458.56156 C 213.81832,456.41142 218.28935,454.99284 221.71927,455.34096 C 226.51937,456.30532 220.74898,449.65404 224.97973,449.99114 C 237.81244,448.16244 235.17898,459.44453 234.76201,458.02914 C 235.95647,455.37082 238.42782,454.28741 241.24402,454.37414 C 243.97686,453.59044 246.79851,451.88065 248.33576,449.46229 C 249.44026,447.88517 249.76992,445.57575 248.23335,444.17438 C 245.66395,443.46156 254.06215,435.96305 250.43661,437.56462 C 239.90714,443.76881 232.86491,442.99854 230.16708,433.53945 L 226.15779,435.68036 C 224.5173,434.65387 222.99281,433.45674 221.40463,432.354 C 218.70927,428.18322 214.21413,435.31812 213.17227,430.70957 C 212.19712,433.6164 209.57894,436.32535 207.65397,431.97959 C 210.96538,427.59404 201.83124,431.12799 201.22038,427.55288 C 202.28504,425.79647 202.31896,417.28792 199.21345,421.44547 C 198.89591,426.55378 193.0005,424.58623 191.1977,428.20637 C 188.13757,430.6598 185.60406,439.8813 180.85024,434.54177 C 177.67762,430.43747 171.87379,432.20021 172.99502,437.77159 C 178.62221,441.13418 176.05774,447.05252 175.99471,452.31824 C 174.3796,457.11649 178.485,461.0803 177.87957,465.60651 C 173.46164,463.5216 169.56879,468.11082 164.55366,467.03853 C 161.32257,469.87943 158.51537,468.0371 155.75968,465.80531 C 150.43667,463.93922 146.17862,469.13297 145.64008,473.9293 C 149.43536,474.70823 148.05346,478.21089 147.13857,480.82304 C 144.95692,484.1422 140.43244,489.83797 146.71823,491.79045 C 146.02951,495.88949 140.53576,500.59203 144.73533,504.52034 C 146.62522,508.83012 149.41026,503.32334 151.54013,505.80884 C 156.09412,507.83918 154.47537,512.63254 156.81327,515.79502 C 161.19803,516.39033 160.25825,519.43497 159.13285,522.44271 C 161.10363,524.91569 160.54355,527.13235 159.53448,529.37869 z " id="Punitaqui" inkscape:label="#path3734" sodipodi:nodetypes="cccccccccccccccccccccccccccccccccccccccccccc" style="opacity:1;fill:#fdf9d2;fill-opacity:1;fill-rule:evenodd;stroke:#d38d5f;stroke-width:1;stroke-linecap:butt;stroke-linejoin:miter;stroke-miterlimit:4;stroke-opacity:1"/>
  </g>
  <g id="Provincia Choapa">
   <path cod="04202" d="M 147.39221,665.59363 C 146.75739,663.5233 146.26375,660.70332 145.64297,656.42198 C 144.72087,650.06244 144.45872,642.71666 143.1881,640.09803 C 142.30774,638.2837 136.49643,635.82892 137.96337,633.48714 C 139.54863,630.95647 142.83686,626.30552 140.72017,622.24218 C 137.78151,616.60095 139.20495,610.68092 138.48193,608.81047 C 131.9288,591.85736 127.34303,578.95347 129.23725,573.39593 C 131.18721,567.67487 130.41165,566.40657 127.23824,566.64028 C 125.08955,566.79852 125.27246,560.82546 125.24595,557.87501 C 125.21944,554.92455 123.60884,547.41237 121.66684,541.18126 C 125.71163,551.12539 136.3499,531.32685 135.28348,530.66663 C 139.26322,530.00641 142.78324,531.9805 143.5074,534.77859 C 143.99194,532.21495 147.31936,531.63983 149.63003,533.65524 C 152.56045,531.17905 154.84739,534.29986 157.38353,534.60934 C 157.82877,532.46771 159.12377,530.51252 159.70803,528.96595 C 161.35996,527.56305 164.56409,533.19104 168.06129,532.88206 C 169.20998,529.58205 174.10374,526.61443 177.13818,529.54039 C 179.88572,529.04076 181.51117,524.38688 185.37561,525.11043 C 189.09056,524.95591 192.76175,523.48927 196.52024,523.04621 C 196.93025,527.6975 192.85937,536.43599 206.7859,533.9707 C 208.39959,531.83105 211.45721,532.95094 213.7213,532.35842 C 216.27816,532.12782 218.11293,534.95776 220.63817,534.01874 C 222.90177,533.69559 223.87862,536.57853 226.38349,535.49704 C 228.25344,536.45938 227.20076,539.46139 228.9908,540.93242 C 228.76681,543.38359 233.03146,543.83576 230.99574,546.35395 C 231.09925,548.89835 232.05518,551.46296 232.78941,553.80241 C 234.08965,552.33456 238.57654,556.17548 238.10567,559.25289 L 238.48301,567.93188 C 224.40806,566.04433 229.10519,574.88369 228.25523,580.55328 L 228.63821,590.51072 L 222.12757,589.74476 C 221.20489,593.81533 220.50406,597.99683 215.61694,600.08518 C 212.70808,595.92767 209.93334,590.16068 206.04247,597.78731 L 200.29779,597.78731 C 198.26241,601.87331 194.55466,605.75027 200.29779,610.80858 L 205.27652,610.80858 C 210.12431,611.72969 209.13015,616.15597 209.1063,620.00007 L 208.72332,624.21283 L 204.89354,627.27666 L 209.1063,635.31921 C 199.29754,639.12213 197.76436,630.6365 189.57439,636.85113 L 177.31908,634.93623 L 177.31908,647.95751 L 183.82972,654.46814 C 186.74159,656.55119 191.33648,655.82921 191.48929,662.51069 L 191.48929,672.46813 C 190.04217,678.14262 182.49317,674.07295 181.14887,678.97877 C 176.51752,678.09939 178.79749,674.4555 178.85099,671.70218 C 178.73148,663.49341 173.17701,663.98055 168.12759,663.65963 L 166.2127,656.38303 C 159.22095,649.03782 158.92077,655.07575 158.93611,661.74473 C 155.64924,661.90551 152.64173,661.50755 147.39221,665.59363 z " id="Canela" sodipodi:nodetypes="cssssssssccccccccccccccccccccccccccccccccccccccccccc" style="opacity:1;fill:#fdf9d2;fill-opacity:1;fill-rule:evenodd;stroke:#d38d5f;stroke-width:1;stroke-linecap:butt;stroke-linejoin:miter;stroke-miterlimit:4;stroke-opacity:1"/>
   <path cod="04203" d="M 147.39221,665.59363 C 147.75386,666.78032 148.23834,667.94148 148.9444,668.96736 C 154.1857,672.68175 156.41903,678.44309 152.25322,684.10402 C 151.08644,688.36413 140.62876,697.3343 150.16542,697.37983 C 158.77657,698.08026 154.91917,704.80914 152.68179,709.86302 C 150.07207,715.94842 156.36029,720.03717 156.91285,724.81647 C 153.34327,730.40988 154.0054,737.0891 153.58354,743.38726 C 153.76005,748.85019 151.36253,755.31101 154.53621,760.12673 C 154.01372,763.07293 152.29575,765.79504 151.28618,768.64911 C 151.50968,772.0643 150.39545,776.5454 154.40416,778.20778 C 158.98248,777.70184 161.72663,773.33708 164.964,770.45386 C 170.47226,772.79274 175.92057,775.30086 181.60816,777.18454 C 189.25935,780.47289 197.99769,778.52305 204.96233,774.52035 C 206.55905,770.07906 211.69499,768.5025 213.95059,763.96723 C 215.0931,758.11296 219.98455,760.45005 221.22367,764.81133 C 226.01582,772.39018 233.17038,763.18085 237.36478,759.71335 C 241.49354,753.81641 247.8439,750.85928 251.94081,745.22572 C 256.14249,742.95616 256.6408,740.32046 252.70481,737.24898 C 251.85243,729.07944 262.05103,734.00129 266.90598,733.92371 C 264.44983,731.85219 267.89409,729.68346 267.70203,728.383 C 263.85649,726.08614 266.14885,721.94114 266.40148,718.55754 C 267.49658,712.3397 259.45734,711.76101 255.19655,709.42933 C 253.46372,703.90704 247.8197,705.39473 243.19139,704.63837 L 242.11253,699.72966 C 236.51255,698.35782 231.50751,700.56885 227.268,703.36954 C 222.05229,700.41822 216.99822,695.23119 212.87617,690.98805 C 213.00991,684.82255 203.76974,688.25115 202.76311,681.8461 C 200.86923,676.59173 197.11893,675.05443 192.23977,672.03473 C 190.33644,676.95785 182.86787,675.36084 180.35925,678.78238 C 175.71995,675.69884 182.15358,665.28019 173.70801,664.18094 C 169.68437,664.41165 167.06125,663.50302 166.95841,659.21673 C 166.81135,656.04889 162.90218,651.68429 159.94675,653.80856 C 158.25028,658.02005 160.54957,663.5387 153.90015,662.19718 C 151.48712,662.76353 149.32975,664.08789 147.39221,665.59363 z " id="Los Vilos" sodipodi:nodetypes="cccccccccccccccccccccccccccccccccc" style="fill:#fdf9d2;fill-opacity:1;stroke:#d38d5f;stroke-opacity:1"/>
   <path cod="04204" d="M 266.90598,733.92372 C 264.44984,731.8522 267.89409,729.68346 267.70203,728.383 C 263.85649,726.08614 266.14885,721.94114 266.40148,718.55754 C 267.49658,712.3397 259.45734,711.76101 255.19655,709.42933 C 253.46372,703.90704 247.8197,705.39473 243.19139,704.63837 L 242.11253,699.72966 L 241.65948,693.91492 C 240.7844,690.69916 238.72874,687.91022 240.06959,684.47873 C 238.67518,681.39846 242.86885,679.14972 240.51642,676.18109 C 243.62506,671.793 241.64904,667.09338 240.51054,662.51069 C 240.29634,658.0567 244.70885,653.55177 248.9658,652.42577 C 250.98542,651.97142 257.16424,653.04091 252.93842,650.119 C 250.80017,646.38824 255.75661,644.09076 258.40501,644.31529 C 261.2982,647.00897 267.14733,651.26518 270.56247,647.58365 C 269.9444,642.83964 274.04485,644.07009 276.40428,646.04086 C 280.85641,645.26129 285.57081,642.26956 286.15439,637.52953 C 289.25502,636.50144 291.52861,640.81973 294.65085,637.98432 C 299.05304,639.10177 303.07802,637.1753 304.81075,633.09146 C 307.34858,631.81696 309.234,631.32009 310.49669,634.39871 C 314.05157,633.11571 316.82814,638.08103 319.28579,637.12796 C 320.83021,632.4451 326.6659,634.96803 329.32955,631.15672 C 333.67413,629.11621 332.1705,622.57258 335.89769,619.78887 C 334.24327,616.91463 336.56317,609.05709 340.85093,613.87241 C 344.01751,622.49975 344.42575,612.75738 346.81953,615.79974 C 344.73093,634.08219 343.71151,628.63331 350.92427,630.83473 C 348.57786,632.60487 357.41424,638.99435 356.63362,645.28787 C 356.53897,646.051 357.60803,649.28838 360.81158,648.66306 C 364.90348,647.86434 368.71029,655.76892 367.28371,661.18954 C 366.96007,662.41932 365.24634,665.69857 366.95481,670.59884 C 371.44814,683.4867 364.25847,683.02792 368.82935,685.81417 C 370.36948,686.75298 373.62017,686.17794 375.27954,688.38482 C 378.30902,692.41389 385.40961,696.50824 392.94415,695.23479 C 409.03189,692.51572 403.10951,697.02633 407.56384,700.49512 C 411.2499,703.36562 411.63531,704.9038 414.07467,706.7314 C 420.12842,711.26697 418.85632,719.07079 414.86174,719.27033 C 412.62833,719.38189 411.82231,726.19726 411.05542,727.2586 C 408.21092,731.1952 404.14989,736.20844 401.15768,736.46284 C 399.8018,736.57811 394.19152,733.1145 392.71095,734.12715 C 392.24236,734.44764 391.72019,729.11114 390.72638,729.04504 C 379.39436,728.29125 381.97039,734.75946 384.75989,735.169 C 392.09126,736.24535 393.29465,740.72135 392.82183,741.40975 C 390.00204,745.51521 391.11684,752.3828 396.95344,753.47837 C 400.86438,754.21249 400.81418,756.29 398.20236,766.20409 C 396.49391,772.6891 401.40452,776.19488 400.39609,779.03376 C 398.82157,783.49363 397.25675,786.71309 391.10892,788.12391 C 389.23846,788.55314 382.46904,791.87496 380.97268,792.23446 C 376.7268,790.61187 378.53603,783.63674 378.15267,779.51191 C 378.15267,777.53638 373.15541,778.45026 371.95455,777.45365 C 372.24442,771.93059 376.28623,764.15637 372.54784,761.05027 L 365.56483,758.72384 C 361.60483,757.48792 357.01781,753.16897 357.3975,754.92458 C 359.77442,765.91506 357.85951,760.26481 344.65154,758.03111 C 339.04923,755.13192 332.65577,750.92728 333.63502,751.01104 C 337.16679,751.31315 327.79702,744.02257 330.91988,741.40729 C 339.38018,734.32211 324.96777,730.5105 326.19907,733.79623 C 327.24911,736.59828 321.71517,732.65863 321.36369,729.62064 C 320.91236,725.71959 315.29947,724.76991 310.96271,727.96348 C 309.49643,729.04324 306.65765,729.96072 304.62329,729.96072 C 302.58892,729.96072 297.04356,731.79667 292.30025,734.04063 C 289.90969,737.81896 284.8813,736.93849 278.23474,739.48302 C 277.42657,746.20046 274.36438,740.86409 271.01672,735.86803 C 270.22534,734.68697 268.69988,734.19723 266.90598,733.92372 z " id="Salamanca" sodipodi:nodetypes="cccccccccccccccccccccccccsssssssssssssssssscscccccscssssssccsc" style="fill:#fdf9d2;fill-opacity:1;fill-rule:evenodd;stroke:#d38d5f;stroke-width:1px;stroke-linecap:butt;stroke-linejoin:miter;stroke-opacity:1"/>
   <path cod="04201" d="M 242.11253,699.72966 C 236.51255,698.35782 231.50751,700.56885 227.268,703.36954 C 222.05229,700.41822 216.99822,695.23119 212.87617,690.98805 C 213.00991,684.82255 203.76974,688.25115 202.76311,681.8461 C 200.86923,676.59173 197.11893,675.05443 191.86453,672.25143 L 191.48929,662.51069 C 191.33648,655.82921 186.74159,656.55119 183.82972,654.46814 L 177.31908,647.95751 L 177.31908,634.93623 L 189.57439,636.85113 C 197.76436,630.6365 199.29754,639.12213 209.1063,635.31921 L 204.89354,627.27666 L 208.72332,624.21283 L 209.1063,620.00007 C 209.13015,616.15597 210.12431,611.72969 205.27652,610.80858 L 200.29779,610.80858 C 194.55466,605.75027 198.26241,601.87331 200.29779,597.78731 L 206.04247,597.78731 C 209.93334,590.16068 212.70808,595.92767 215.61694,600.08518 C 220.50406,597.99683 221.20489,593.81533 222.12757,589.74476 L 228.63821,590.51072 L 228.25523,580.55328 C 229.10519,574.88369 224.40806,566.04433 238.48301,567.93188 C 241.27003,574.48082 246.9566,572.66025 244.8979,578.12024 C 254.31861,582.76123 252.63545,576.29836 254.70891,573.5921 C 255.28504,570.79168 257.97216,568.41864 260.91591,568.78606 C 262.9603,568.43064 262.91362,565.55689 264.956,565.15663 C 267.26026,564.0424 269.47592,564.44561 271.94891,564.52304 C 274.27001,564.09017 276.56544,565.80124 275.18741,568.19035 C 274.85007,570.89353 276.64333,573.90683 279.50774,574.21386 C 282.37215,574.52089 278.3145,583.76294 281.50052,583.78046 C 284.68654,583.79798 288.19651,584.73063 289.89964,587.65907 C 292.89626,590.68999 293.91893,586.05851 295.88486,584.77165 C 299.99524,584.15372 297.8515,580.48162 298.30048,577.82619 C 299.1643,574.69564 303.2658,573.94594 303.34407,570.29412 C 306.67879,570.38865 306.10938,565.74672 308.6048,564.43317 C 311.82835,563.74748 312.7207,557.99126 316.44777,561.33664 C 319.08289,562.86286 316.50691,568.78804 320.30795,567.95224 C 322.76127,565.93031 326.66869,566.37915 328.46528,563.43992 C 330.55405,560.50197 334.10169,559.39578 336.72588,557.17023 C 335.56287,554.18724 338.8251,550.49636 339.66842,550.66502 L 350.27145,554.47488 C 348.15768,557.76124 348.81185,565.686 352.35371,572.21997 C 353.11084,573.61672 346.89437,582.92555 345.49142,587.47231 C 353.0321,595.95351 340.44349,588.9709 346.81953,615.79974 C 344.42575,612.75738 344.01751,622.49975 340.85093,613.87241 C 336.56317,609.05709 334.24327,616.91463 335.89769,619.78887 C 332.1705,622.57258 333.67413,629.11621 329.32955,631.15672 C 326.6659,634.96803 320.83021,632.4451 319.28579,637.12796 C 316.82814,638.08103 314.05157,633.11571 310.49669,634.39871 C 309.234,631.32009 307.34858,631.81696 304.81075,633.09146 C 303.07802,637.1753 299.05304,639.10177 294.65085,637.98432 C 291.52861,640.81973 289.25502,636.50144 286.15439,637.52953 C 285.57081,642.26956 280.85641,645.26129 276.40428,646.04086 C 274.04485,644.07009 269.9444,642.83964 270.56247,647.58365 C 267.14733,651.26518 261.2982,647.00897 258.40501,644.31529 C 255.75661,644.09076 250.80017,646.38824 252.93842,650.119 C 257.16424,653.04091 250.98542,651.97142 248.9658,652.42577 C 244.70885,653.55177 240.29634,658.0567 240.51054,662.51069 C 241.64904,667.09338 243.62506,671.793 240.51642,676.18109 C 242.86885,679.14972 238.67518,681.39846 240.06959,684.47873 C 238.72874,687.91022 240.7844,690.69916 241.65948,693.91492 L 242.11253,699.72966" id="Illapel" sodipodi:nodetypes="cccccccccccccccccccccccccccccsscccccccccccscccccccccccccccccccc" style="fill:#fdf9d2;fill-opacity:1;fill-rule:evenodd;stroke:#d38d5f;stroke-width:1px;stroke-linecap:butt;stroke-linejoin:miter;stroke-opacity:1"/>
  </g>
  <g id="Limites">
   <path d="M 400.65266,778.25028 C 398.82157,783.49363 397.25675,786.71309 391.10892,788.12391 C 389.23846,788.55314 382.46904,791.87496 380.97268,792.23446 C 376.7268,790.61187 378.53603,783.63674 378.15267,779.51191 C 378.15267,777.53638 373.15541,778.45026 371.95455,777.45365 C 372.24442,771.93059 376.28623,764.15637 372.54784,761.05027 L 365.56483,758.72384 C 361.60483,757.48792 357.01781,753.16897 357.3975,754.92458 C 359.77442,765.91506 357.85951,760.26481 344.65154,758.03111 C 339.04923,755.13192 332.65577,750.92728 333.63502,751.01104 C 337.16679,751.31315 327.79702,744.02257 330.91988,741.40729 C 339.38018,734.32211 324.96777,730.5105 326.19907,733.79623 C 327.24911,736.59828 321.71517,732.65863 321.36369,729.62064 C 320.91236,725.71959 315.29947,724.76991 310.96271,727.96348 C 309.49643,729.04324 306.65765,729.96072 304.62329,729.96072 C 302.58892,729.96072 297.04356,731.79667 292.30025,734.04063 C 289.90969,737.81896 284.8813,736.93849 278.23474,739.48302 C 277.42657,746.20046 274.36438,740.86409 271.01672,735.86803 C 270.22534,734.68697 268.69989,734.19724 266.90599,733.92373 C 264.05616,734.1237 251.02607,730.07034 253.38094,734.90208 C 250.47872,738.57387 257.00047,739.76495 255.89272,742.19984 C 251.2554,744.88951 250.20599,747.57918 248.03065,750.26885 C 245.64375,750.42863 242.72834,753.23093 239.44998,757.84799 C 233.82301,762.81819 228.65848,768.04992 225.61536,768.04992 C 224.15009,768.04992 222.00329,766.27216 220.69758,763.97753 C 217.82721,758.93322 216.44485,758.55583 214.27564,763.2943 C 210.86561,770.74323 205.54192,769.38027 206.32833,772.63784 C 206.87245,774.89173 196.70956,778.56346 190.78164,778.93255 C 186.74046,779.18416 180.19842,777.00052 171.26721,773.16253 L 164.964,770.45386 L 162.08499,773.33288 C 153.9069,781.51096 153.34418,777.61572 151.42763,774.69108" id="Region_Valparaiso" sodipodi:nodetypes="cscccccscssssssccscccccssssscccc" style="fill:none;stroke:#ffb381;stroke-width:3;stroke-miterlimit:4;stroke-dasharray:none;stroke-opacity:1"/>
   <path d="M 464.60974,122.82607 C 469.7034,122.19759 466.36109,127.99775 467.03128,130.84481 C 467.71649,133.75568 469.66352,133.67758 470.81516,136.43385 C 472.35749,140.12517 471.19252,143.92174 470.5503,150.46869 C 469.61482,160.00521 469.10583,160.61022 478.9035,169.07986 C 482.39872,172.10132 486.54696,177.99765 481.02078,185.92873 C 474.93203,194.66719 475.78471,196.31498 479.66046,195.3762 C 481.13743,195.01845 479.7477,201.55837 479.7477,203.32837 C 479.7477,205.09838 483.39645,207.7229 482.50605,208.35873 C 482.10478,208.64527 481.22891,219.33733 477.25517,224.8433 C 475.82316,226.82748 484.23286,228.82389 477.64551,235.01644 C 474.82172,237.67099 474.11183,242.16876 474.84707,245.59411 C 475.78815,249.97849 472.87885,254.19573 470.35633,257.19357 C 466.27514,262.04381 463.55076,258.26438 468.71526,264.65 C 469.63063,265.78181 465.44024,276.55805 476.39093,267.35066 C 479.65607,264.60532 485.10912,267.04533 485.58687,269.04148 C 486.25118,271.81709 490.47691,274.85155 493.66592,272.9482 C 498.07566,270.31625 501.13998,281.03192 496.25943,281.17604 C 492.64336,281.28282 493.68873,284.44716 494.71132,286.44828 C 495.4104,287.81633 493.49576,291.62429 492.01006,294.53648 C 490.00151,298.47357 485.77633,295.752 482.98029,296.07345 C 479.97174,296.41934 482.68315,302.9232 483.01908,305.34509 C 483.25003,307.00998 481.18182,309.16027 480.07516,311.61037 C 476.43624,319.66674 477.91601,321.75873 480.26227,325.33956 C 482.94621,329.43577 479.10239,328.74382 474.11362,328.74382 C 472.39233,328.74382 468.34144,334.7656 466.1029,337.00415 C 462.80663,340.30042 463.42902,336.59553 460.16398,335.94251 C 457.833,335.47633 453.44419,338.74155 452.90911,339.60731 C 451.63832,341.66349 444.16235,339.33936 441.86894,337.24156 C 440.84652,336.30634 437.25576,331.2025 435.21113,329.36905 C 430.58273,327.69412 428.30413,327.31777 427.44291,327.7247 C 424.48062,330.2011 429.37429,334.98807 432.11462,339.14171 C 435.86131,348.15723 433.58724,354.37886 424.01411,358.94883 C 421.25255,360.26712 419.79142,361.44267 419.08768,362.5216 C 417.65948,364.71126 419.35087,366.50294 419.6229,368.28218 C 419.93278,370.30893 417.38947,380.32286 412.87765,386.63195 C 407.29231,392.92689 407.2423,400.30539 406.81996,407.90163 C 405.7053,412.94604 408.27834,416.32292 405.81184,420.85855 C 404.79672,421.70103 401.39795,427.18884 401.39795,428.92353 C 401.39795,430.65821 400.74996,432.47797 399.95797,432.96745 C 399.13749,433.47454 398.50742,435.65651 399.37581,437.76295 C 400.6301,440.80547 398.37976,444.28786 397.14055,448.59445 C 395.24494,455.18223 397.28687,462.55186 394.20023,464.94997 C 389.33536,468.72964 390.28811,474.49794 395.32228,474.43139 C 398.83192,479.83795 396.13733,492.48421 400.23015,487.78798 C 402.12853,489.50599 403.42805,489.60537 403.1514,492.43284 C 402.81996,495.82044 397.60255,492.19907 394.25687,494.45409 C 392.52864,495.61893 385.15221,505.62553 383.57851,510.94041 C 381.85129,516.77377 387.10941,518.33545 377.35484,522.18381 C 372.14329,524.23987 377.16614,518.70693 373.73402,517.4543 C 370.32839,516.21134 366.3626,508.90656 366.15755,506.59046 C 365.8017,502.57123 363.25354,511.61513 361.3013,512.5607 C 355.83794,515.20689 352.05072,522.51547 353.85432,538.67715 C 354.68155,546.08982 351.53009,552.51801 350.27145,554.47488 C 348.15768,557.76124 348.81185,565.686 352.35371,572.21997 C 353.11084,573.61672 346.89437,582.92555 345.49142,587.47231 C 353.0321,595.95351 340.44349,588.9709 346.81953,615.79974 C 344.73093,634.08219 343.71151,628.63331 350.92427,630.83473 C 348.57786,632.60487 357.41424,638.99435 356.63362,645.28787 C 356.53897,646.051 357.60803,649.28838 360.81158,648.66306 C 364.90348,647.86434 368.71029,655.76892 367.28371,661.18954 C 366.96007,662.41932 365.24634,665.69857 366.95481,670.59884 C 371.44814,683.4867 364.25847,683.02792 368.82935,685.81417 C 370.36948,686.75298 373.62017,686.17794 375.27954,688.38482 C 378.30902,692.41389 385.40961,696.50824 392.94415,695.23479 C 409.03189,692.51572 403.10951,697.02633 407.56384,700.49512 C 411.2499,703.36562 411.63531,704.9038 414.07467,706.7314 C 420.12842,711.26697 418.85632,719.07079 414.86174,719.27033 C 412.62833,719.38189 411.82231,726.19726 411.05542,727.2586 C 408.21092,731.1952 404.14989,736.20844 401.15768,736.46284 C 399.8018,736.57811 394.19152,733.1145 392.71095,734.12715 C 392.24236,734.44764 391.72019,729.11114 390.72638,729.04504 C 379.39436,728.29125 381.97039,734.75946 384.75989,735.169 C 392.09126,736.24535 393.29465,740.72135 392.82183,741.40975 C 390.00204,745.51521 391.11684,752.3828 396.95344,753.47837 C 400.86438,754.21249 400.81418,756.29 398.20236,766.20409 C 396.49391,772.6891 401.40452,776.19488 400.13952,779.81724" id="Internacional" sodipodi:nodetypes="csssssssssssssssssssssssssssscccssscccsssssccsssssssssscccsssssssssssssssssss" style="fill:none;stroke:#f95;stroke-width:3;stroke-miterlimit:4;stroke-dasharray:none;stroke-opacity:1"/>
   <path d="M 465.64342,122.86261 C 454.73169,122.76116 444.90349,132.81445 433.80694,128.12886 C 429.60589,133.03933 425.80542,124.85478 420.40207,126.45322 C 415.20549,117.63651 410.0738,109.3331 404.12476,101.55853 C 398.14864,92.96715 388.55616,88.66011 378.36816,93.794721 C 380.01514,107.79377 356.97061,93.438719 360.55902,88.153659 C 363.75109,82.443433 368.42151,80.848313 361.27713,76.663787 C 354.838,70.21355 365.53732,59.929838 354.6324,53.733688 C 361.20972,42.377054 344.29121,36.46505 344.76043,25.916879 C 347.71322,21.474124 347.71089,16.194874 344.86177,14.83835 C 343.0036,13.953626 339.96773,15.139033 336.33057,16.131551 C 331.12928,16.648809 332.20218,12.611073 330.19095,12.615092 C 328.68082,12.618107 322.79721,16.347692 319.46092,17.132586 C 315.68134,15.220004 300.06342,17.730732 307.65773,23.523154 C 306.18679,33.143537 306.70579,23.304053 288.49822,39.180135 C 284.58454,40.932907 278.15166,40.678182 274.32853,39.823506 C 269.11838,38.658778 266.23689,36.905137 264.09488,43.736578 C 258.73533,46.645552 250.77051,45.577476 256.43348,54.29003 C 245.03362,63.325628 259.49048,72.391135 247.85741,76.362628 C 249.54516,84.930141 237.74742,96.676632 231.04715,91.033841 C 233.80588,85.059852 231.22485,77.461374 226.50382,78.756885 C 222.90014,79.745765 218.54624,81.827192 216.45689,78.339416 C 206.4902,79.247123 210.85582,59.971315 207.55505,51.991586 C 197.75,50.27611 187.5941,56.729239 182.25546,45.654389 C 176.51081,42.367551 171.13581,41.830866 168.48072,49.325378 C 167.26838,58.536183 151.77176,52.039946 145.3633,52.965956" id="Region_Atacama" sodipodi:nodetypes="cccccccccscscccsccccsccccc" style="fill:none;fill-rule:evenodd;stroke:#ffb381;stroke-width:3;stroke-linecap:butt;stroke-linejoin:miter;stroke-miterlimit:4;stroke-dasharray:none;stroke-opacity:1"/>
  </g>
 </g>
</svg>
