<?xml version="1.0" encoding="utf-8"?>
<!-- Generator: Adobe Illustrator 12.0.0, SVG Export Plug-In . SVG Version: 6.00 Build 51448)  -->
<svg enable-background="new 0 0 612 792" height="600" id="svg2" inkscape:version="0.44.1" overflow="visible" sodipodi:docbase="C:\Documents and Settings\Administrador\Mis documentos\Mis imágenes\Mapas\Santiago" sodipodi:docname="Comuna de Lo_Barnechea.svg" sodipodi:version="0.32" version="1.0" viewBox="0 0 612 792" width="600" xml:space="preserve" xmlns="http://www.w3.org/2000/svg" xmlns:cc="http://web.resource.org/cc/" xmlns:dc="http://purl.org/dc/elements/1.1/" xmlns:inkscape="http://www.inkscape.org/namespaces/inkscape" xmlns:rdf="http://www.w3.org/1999/02/22-rdf-syntax-ns#" xmlns:sodipodi="http://sodipodi.sourceforge.net/DTD/sodipodi-0.dtd" xmlns:svg="http://www.w3.org/2000/svg">
 <metadata id="metadata7550">
  <rdf:RDF>
   <cc:Work rdf:about="">
    <dc:format>
     image/svg+xml
    </dc:format>
    <dc:type rdf:resource="http://purl.org/dc/dcmitype/StillImage"/>
   </cc:Work>
  </rdf:RDF>
 </metadata>
 <defs id="defs7548"/>
 <sodipodi:namedview bordercolor="#666666" borderopacity="1.0" gridtolerance="10.0" guidetolerance="10.0" height="600px" id="base" inkscape:current-layer="svg2" inkscape:cx="300" inkscape:cy="300" inkscape:pageopacity="0.0" inkscape:pageshadow="2" inkscape:window-height="573" inkscape:window-width="942" inkscape:window-x="74" inkscape:window-y="116" inkscape:zoom="0.65666667" objecttolerance="10.0" pagecolor="#ffffff" width="600px"/>
 <path cod="13604" d="M 2.8932879,545.28882 L 29.82397,571.9056 L 20.11699,578.16954 L 13.226661,571.28062 L 3.2057777,581.61541 L -2.1178607,577.54456 L -10.885957,588.19042 L -3.9970415,593.82655 L -9.3206799,598.8377 L -4.6234351,601.65576 L -14.017925,622.95031 L -24.351298,624.51559 L -35.937458,611.99055 L -22.472117,603.22245 L -26.856872,598.52521 L -21.220744,594.45435 L -28.423563,585.68626 L -35.938872,584.43347 L -50.657,602.90855 L -56.293129,600.09048 L -31.240213,574.72508 L -45.958342,555.62219 L -45.958342,551.55134 L -34.372181,545.28882 L -27.483266,556.87498 L -20.280447,553.11662 L -12.451234,559.69305 L 2.8932879,545.28882 z " id="Padre_Hurtado" style="fill:#fdf9d2;fill-opacity:1;stroke:#d38d5f;stroke-width:1.41398096;stroke-opacity:1"/>
 <path cod="13119" d="M 29.732061,571.71047 L -7.0724502,536.0937 L 11.329099,520.65869 L -7.6663222,507.00529 L -1.1365579,485.63438 C 0.24772948,465.0553 -8.1470757,428.8291 3.0177183,423.89714 L 52.2893,410.83761 L 26.762701,402.52764 L 71.284721,373.44064 L 60.620476,354.17515 L 60.599267,347.32158 L 106.90149,356.81929 L 106.30762,364.5368 L 115.79826,356.5266 L 116.09095,360.3896 L 134.20829,366.317 L 130.51639,386.50865 L 119.05183,386.78579 L 118.77469,413.2131 C 116.59857,412.71255 114.42104,416.38749 112.24492,423.30468 L 103.93496,444.67559 L 134.2097,444.67559 L 143.70741,452.3931 L 59.412936,577.64778 L 29.732061,571.71047 z " id="Maipú" style="fill:#fdf9d2;fill-opacity:1;stroke:#d38d5f;stroke-width:1.41398096;stroke-opacity:1"/>
 <path cod="13102" d="M 134.2097,366.317 L 130.5178,386.50865 L 119.05324,386.78579 L 118.7761,413.2131 C 116.59998,412.71255 114.42245,416.38749 112.24634,423.30468 L 103.93637,444.67559 L 134.21112,444.67559 L 143.70883,452.3931 L 128.41097,475.18364 L 164.45617,491.19415 L 165.11509,472.43345 L 199.62188,379.51793 L 198.99831,372.69689 L 152.01455,384.76946 L 134.2097,366.317 z " id="Cerrillos" style="fill:#fdf9d2;fill-opacity:1;stroke:#d38d5f;stroke-width:1.41398096;stroke-opacity:1"/>
 <path cod="13106" d="M 117.29708,328.36717 L 118.29676,356.68638 L 115.68655,356.49973 L 116.05984,360.78975 L 134.15032,366.38487 L 151.8675,384.84864 L 199.61057,372.53993 L 221.61777,372.91323 L 221.05783,360.60452 L 209.49571,361.34969 C 211.97724,354.18222 210.86303,332.62891 211.54739,318.26852 L 208.74913,317.52335 L 208.74913,304.46806 L 186.37005,305.58793 L 186.37005,312.67481 L 160.99757,314.20615 L 162.30268,333.22843 C 151.51259,337.73621 148.78643,335.91783 144.59539,335.24053 L 117.29708,328.36717 z " id="Estación_Central" style="fill:#fdf9d2;fill-opacity:1;stroke:#d38d5f;stroke-width:1.41398096;stroke-opacity:1"/>
 <path cod="13124" d="M 16.761614,129.26875 L 45.869826,156.96863 L 54.790633,167.29776 L 69.814181,178.56578 L 25.212978,225.04616 L 24.274095,249.9294 L 29.907395,250.86828 L 30.376837,253.68493 L 33.662928,258.84879 L 37.887904,264.01265 L 43.521204,268.23763 L 51.503127,270.11539 L 53.380894,265.42098 L 56.668399,270.11539 L 64.650322,272.93346 L 77.326662,273.4029 L 83.429404,276.21955 L 95.636302,276.68899 L 99.861277,276.21955 L 99.391835,309.55415 L 103.06112,310.29366 L 102.96497,325.11925 L 117.52331,328.47746 L 118.31232,356.70052 L 115.89299,356.59588 L 106.16905,364.8097 L 106.79403,357.04553 L 59.485049,347.11231 L 58.076724,337.25262 C 56.023624,328.19183 46.374618,333.48295 39.76567,333.02765 C 41.267318,341.35883 34.150752,344.15144 28.028214,347.58176 C 24.282579,340.67163 11.932868,341.50447 3.1449766,339.13039 L 1.7366515,345.70257 C -8.5033989,346.64853 -16.602682,339.13322 -20.329936,342.41648 C -22.941559,340.24885 -21.622315,334.93652 -29.250742,336.78318 C -34.547515,336.93165 -37.446176,338.72034 -32.067392,346.17343 C -37.087025,356.46721 -42.724567,351.93965 -48.288582,349.17107 L -53.979856,335.67886 L -49.650246,325.41336 L -43.335407,320.35272 C -47.318591,319.40253 -50.007983,316.68627 -47.817727,307.31582 C -45.049152,303.09509 -39.888121,300.52164 -45.664234,290.42723 L -37.836435,284.74727 L -39.110432,276.68899 L -16.574402,268.70707 L -16.773774,264.3916 L -9.8212292,267.11775 L -4.3675045,260.2557 L -6.714713,246.64048 L -1.5508543,247.10992 C 0.33539631,218.05685 -10.846365,177.16311 -4.8369462,156.96722 L 18.637966,155.08945 L 16.761614,129.26875 z " id="Pudahuel" style="fill:#fdf9d2;fill-opacity:1;stroke:#d38d5f;stroke-width:1.41398096;stroke-opacity:1"/>
 <path cod="13117" d="M 99.664734,289.25645 L 99.359314,309.57395 L 103.00456,310.40678 L 102.89285,325.32428 L 144.08212,335.12034 C 152.81487,337.98224 158.4213,334.77816 162.33944,333.22843 L 161.01737,314.19342 L 160.22413,292.03917 L 133.95236,289.36674 L 133.17326,294.48818 L 120.25937,288.58905 L 99.664734,289.25645 z " id="Lo_Prado" style="fill:#fdf9d2;fill-opacity:1;stroke:#d38d5f;stroke-width:1.41398096;stroke-opacity:1"/>
 <path cod="13103" d="M 24.274095,249.9294 L 24.483364,242.73365 L 42.600702,242.88353 L 43.198816,245.12893 L 49.787968,245.27882 L 59.970045,240.18707 L 75.991864,240.0386 L 118.36746,240.0386 L 122.85968,241.83577 L 129.44742,237.64332 L 133.48999,237.64332 L 142.32454,244.38094 L 133.04034,294.54191 L 120.19857,288.71773 L 99.680287,289.37806 L 99.859863,276.22096 L 95.634888,276.6904 L 83.42799,276.22096 L 77.325248,273.40431 L 64.648908,272.93487 L 56.666985,270.11681 L 53.37948,265.42239 L 51.501713,270.11681 L 43.51979,268.23904 L 37.88649,264.01406 L 33.661514,258.85021 L 30.375423,253.68635 L 29.905981,250.8697 L 24.274095,249.9294 z " id="Cerro_Navia" style="fill:#fdf9d2;fill-opacity:1;stroke:#d38d5f;stroke-width:1.41398096;stroke-opacity:1"/>
 <path cod="13101" d="M 207.32807,377.15517 L 224.71156,377.77591 L 224.71156,372.18785 L 220.98572,372.18785 L 277.48416,373.42933 L 306.97414,359.77027 L 285.55516,284.02614 L 221.68564,266.44046 L 222.22861,270.67674 C 216.43553,270.54383 206.62674,262.14761 206.0866,273.15969 L 207.63915,293.3372 L 186.22017,294.57868 L 186.36863,305.58369 L 208.74771,304.46382 L 208.74771,317.51911 L 211.54598,318.26427 C 210.86303,332.62466 211.97724,354.17656 209.49429,361.34545 L 221.05642,360.60028 L 221.27276,372.90898 L 207.68016,372.84677" id="Santiago" style="fill:#fdf9d2;fill-opacity:1;stroke:#d38d5f;stroke-width:1.41398096;stroke-opacity:1"/>
 <path cod="13128" d="M 75.716137,182.65784 L 69.815595,178.56719 L 25.212978,225.04616 L 24.483364,242.73365 L 42.600702,242.88353 L 43.198816,245.12893 L 49.787968,245.27882 L 59.970045,240.18707 L 75.991864,240.0386 L 118.36746,240.0386 L 122.85968,241.83577 L 129.44742,237.64332 L 133.48999,237.64332 L 133.50837,234.16351 L 138.37388,234.39965 L 147.74999,229.17923 L 164.36426,229.17923 L 177.65568,239.14779 L 186.67405,248.52249 L 198.42282,255.99962 L 221.68281,266.44328 L 221.80158,263.35798 L 208.62894,249.23655 L 206.01873,222.65371 L 203.40711,217.19433 L 187.38529,188.23741 L 180.97712,171.74049 L 178.72324,175.53845 L 176.94304,175.53845 L 176.2318,172.68927 L 167.56834,176.96091 L 162.10896,177.07968 L 150.36019,192.38886 L 145.85101,192.50763 L 142.2906,190.72743 L 133.50837,196.89804 L 126.26879,196.89804 L 126.03124,195.11784 L 121.52205,194.88171 L 121.15017,196.76654 L 117.01287,196.54172 L 116.65796,195.59294 L 112.62246,195.47416 L 111.67226,196.89804 L 107.63676,196.66049 L 106.33165,198.67824 L 99.923492,191.43866 L 96.836772,191.31989 L 95.294118,189.53969 L 93.870239,191.43866 L 84.257997,191.43866 L 80.10372,187.04825 L 79.984946,182.77661 L 75.716137,182.65784 z " id="Renca" style="fill:#fdf9d2;fill-opacity:1;stroke:#d38d5f;stroke-width:1.41398096;stroke-opacity:1"/>
 <path cod="13126" d="M 222.22861,270.67816 L 221.68564,266.44187 L 198.42565,255.99821 L 186.67688,248.52107 L 177.65851,239.14638 L 164.36709,229.17781 L 147.75281,229.17781 L 138.37671,234.39823 L 133.5112,234.1621 L 133.49282,237.6419 L 142.32737,244.37952 L 133.95236,289.36533 L 160.22413,292.03775 L 161.01737,314.19201 L 186.36863,312.67056 L 186.36863,305.58369 L 186.22017,294.57868 L 207.63915,293.3372 L 206.0866,273.15969 C 206.62815,262.14902 216.43694,270.54524 222.22861,270.67816 z " id="Quinta_Normal" style="fill:#fdf9d2;fill-opacity:1;stroke:#d38d5f;stroke-width:1.41398096;stroke-opacity:1"/>
 <path cod="13127" d="M 285.55657,284.02755 L 257.41694,276.23934 L 259.9621,247.07599 L 254.17609,246.84409 L 254.40799,223.23485 L 250.24098,223.23485 L 245.8435,219.99401 L 246.30588,212.35568 L 243.52882,209.34673 L 245.65827,208.19999 L 245.42921,170.45943 L 244.51436,170.23036 L 244.51436,164.74129 L 245.65827,164.51222 L 246.34405,160.39471 L 279.37182,176.12808 L 330.34018,216.2512 L 330.2002,224.09314 L 317.07562,232.68449 L 314.92779,238.17215 L 303.23416,250.34228 L 298.22443,250.34228 L 291.06544,255.59239 L 289.63308,265.13818 L 284.14401,275.6384 L 285.81533,275.6384 L 285.55657,284.02755 z " id="Recoleta" style="fill:#fdf9d2;fill-opacity:1;stroke:#d38d5f;stroke-width:1.41398096;stroke-opacity:1"/>
 <path cod="13108" d="M 217.14252,211.43094 L 203.40993,217.19291 L 206.02156,222.65229 L 208.63177,249.23514 L 221.80441,263.35656 L 221.68564,266.44187 L 257.41552,276.23934 L 259.96069,247.07599 L 254.17468,246.84409 L 254.40657,223.23485 L 250.23957,223.23485 L 245.84209,219.99401 L 246.30446,212.35568 L 243.5274,209.34673 L 227.78838,208.88436 L 217.14252,211.43094 z " id="Independencia" style="fill:#fdf9d2;fill-opacity:1;stroke:#d38d5f;stroke-width:1.41398096;stroke-opacity:1"/>
 <path cod="13125" d="M 50.110355,153.40257 L 45.87124,156.97005 L 54.792047,167.29918 L 75.716137,182.65784 L 79.987774,182.77661 L 80.106548,187.04825 L 84.260825,191.43866 L 93.873067,191.43866 L 95.296946,189.53969 L 96.8396,191.31989 L 99.92632,191.43866 L 106.33448,198.67824 L 107.63959,196.66049 L 111.67509,196.89804 L 112.62528,195.47416 L 116.66079,195.59294 L 117.01569,196.54172 L 121.153,196.76654 L 121.52488,194.88171 L 126.03407,195.11784 L 126.27161,196.89804 L 133.5112,196.89804 L 142.29343,190.72743 L 145.85384,192.50763 L 150.36302,192.38886 L 162.11179,177.07968 L 167.57117,176.96091 L 176.23463,172.68927 L 176.94587,175.53845 L 178.72607,175.53845 L 180.97995,171.74049 L 169.30471,142.02851 L 169.30471,138.39882 L 189.41718,138.2348 L 181.834,116.80309 L 181.834,108.06469 L 184.47249,106.25196 L 184.30705,101.47129 L 188.09935,100.31748 C 196.04168,78.126466 196.82502,89.602336 203.26712,82.183178 C 203.6093,79.418845 203.02392,77.317669 200.29918,76.742179 L 200.29918,68.829541 L 200.29918,60.586032 L 193.20947,60.586032 L 190.40696,54.815576 C 190.14962,52.332625 191.5834,52.807723 193.04404,53.332309 L 194.19785,57.454064 C 193.47813,53.394525 198.29415,47.154626 184.14161,48.386204 C 180.89653,45.545516 181.49747,40.507502 172.76614,40.803024 L 168.64438,43.276077 L 162.87393,42.781183 L 155.45477,36.515833 L 143.42038,36.845291 L 140.61787,52.013065 L 103.85436,61.905276 L 134.68339,102.13021 L 131.22196,102.13021 L 131.38598,106.25196 L 116.21821,106.25196 L 116.38364,99.657155 L 106.65687,99.657155 L 106.82231,112.35188 L 104.67871,112.02242 C 102.69065,110.93365 104.95019,112.9613 97.09553,107.57121 L 97.424988,101.80075 C 93.752879,97.898163 88.494284,99.818349 83.576458,100.48151 C 86.435527,102.51622 89.646678,104.99211 90.83018,104.93272 L 81.432863,104.76728 C 81.258943,106.31418 79.941113,107.22337 75.827842,106.58142 L 69.233035,124.55029 L 62.143334,124.55029 L 61.64844,139.55263 L 50.107528,151.75246 L 50.107528,153.40257 L 50.110355,153.40257 z " id="Quilicura" style="fill:#fdf9d2;fill-opacity:1;stroke:#d38d5f;stroke-width:1.41398096;stroke-opacity:1"/>
 <path cod="13104" d="M 243.52882,209.34673 L 245.65827,208.19999 L 245.42921,170.45943 L 244.51436,170.23036 L 244.51436,164.74129 L 245.65827,164.51222 L 246.34405,160.39471 L 199.45361,139.80856 L 189.41718,138.2348 L 169.30471,138.39882 L 169.30471,142.02568 L 180.97995,171.73766 L 187.38811,188.23458 L 203.40993,217.1915 L 217.14252,211.42953 L 227.78979,208.88295 L 243.52882,209.34673 z " id="Conchalí" style="fill:#fdf9d2;fill-opacity:1;stroke:#d38d5f;stroke-width:1.41398096;stroke-opacity:1"/>
 <path cod="13401" d="M 164.60888,490.613 L 201.4346,506.62492 L 188.62535,542.91757 L 183.28757,540.78246 L 183.28757,559.46257 L 173.68098,579.20881 L 221.18085,599.49095 L 241.99606,603.76118 L 220.64636,690.75636 L 228.65232,700.36295 L 227.58477,701.96499 L 230.25295,705.16765 L 223.31454,707.30276 L 239.32646,737.72457 L 238.25891,751.60137 L 232.92254,751.60137 L 230.78743,739.85968 L 225.45107,740.39275 L 224.38351,735.58945 L 189.15842,738.79353 L 187.02331,732.3882 L 184.35513,732.92269 L 186.49024,743.06376 L 193.42864,747.33398 L 197.69886,747.33398 L 198.76642,749.46909 L 205.70482,750.00216 L 204.63727,752.13727 L 182.22001,758.54261 L 174.74854,758.00812 L 155.53536,747.33398 L 161.40621,733.45717 L 155.00229,699.83412 L 150.199,698.76656 L 144.32815,681.68708 L 147.53082,673.68254 L 141.65997,672.61498 L 137.92423,675.28316 L 128.85072,673.68254 L 130.45134,664.60902 L 137.38975,645.39443 L 134.18708,640.59255 L 129.38379,640.59255 L 127.78316,634.18863 L 126.7156,629.917 L 121.91231,626.71433 L 126.18253,616.04019 L 118.17657,608.56871 L 120.31168,598.42764 L 123.51435,594.69049 L 122.4468,587.7535 L 130.45276,579.74754 L 133.12094,542.92182 L 144.32957,523.70864 L 153.93615,529.57949 L 164.60888,490.613 z " id="San_Bernardo" style="fill:#fdf9d2;fill-opacity:1;stroke:#d38d5f;stroke-width:1.41398096;stroke-opacity:1"/>
 <path cod="13105" d="M 201.43602,506.62492 L 234.24179,520.23025 L 258.77436,524.07345 L 241.99889,603.76118 L 221.18367,599.49095 L 173.68381,579.20881 L 183.2904,559.46257 L 183.2904,540.78246 L 188.62818,542.91757 L 201.43602,506.62492 z " id="El_Bosque" style="fill:#fdf9d2;fill-opacity:1;stroke:#d38d5f;stroke-width:1.41398096;stroke-opacity:1"/>
 <path cod="13109" d="M 258.77436,524.07204 L 234.24179,520.22884 L 201.43602,506.62351 L 225.96576,444.56106 L 274.12312,458.12396 L 258.77436,524.07204 z " id="La_Cisterna" style="fill:#fdf9d2;fill-opacity:1;stroke:#d38d5f;stroke-width:1.41398096;stroke-opacity:1"/>
 <path cod="13116" d="M 165.11367,472.43345 L 164.61029,490.613 L 201.43602,506.62492 L 225.96576,444.56247 L 182.36707,425.97569 L 165.11367,472.43345 z " id="Lo_Espejo" style="fill:#fdf9d2;fill-opacity:1;stroke:#d38d5f;stroke-width:1.41398096;stroke-opacity:1"/>
 <path cod="13121" d="M 224.71297,372.18785 L 253.70948,372.92171 L 225.96434,444.56247 L 182.36565,425.97569 L 199.61905,379.51793 L 198.99548,372.69689 L 207.68016,372.84818 L 207.32807,377.15375 L 224.71156,377.77449 L 224.71156,372.18785 L 224.71297,372.18785 z " id="Pedro_Aguirre_Cerda" style="fill:#fdf9d2;fill-opacity:1;stroke:#d38d5f;stroke-width:1.41398096;stroke-opacity:1"/>
 <path cod="13130" d="M 225.96434,444.56247 L 253.70948,372.92171 L 277.45588,373.42933 L 287.06246,459.49128 L 279.27143,459.59309 L 225.96434,444.56247 z " id="San_Miguel" style="fill:#fdf9d2;fill-opacity:1;stroke:#d38d5f;stroke-width:1.41398096;stroke-opacity:1"/>
 <path cod="13131" d="M 287.06388,459.49128 L 279.27284,459.59309 L 274.12171,458.12396 L 258.77436,524.07204 L 255.63249,538.99519 L 298.62883,544.15622 L 287.06388,459.49128 z " id="San_Ramón" style="fill:#fdf9d2;fill-opacity:1;stroke:#d38d5f;stroke-width:1.41398096;stroke-opacity:1"/>
 <path cod="13111" d="M 287.06388,459.49128 L 298.61186,544.18733 L 305.31837,544.98623 L 331.06414,538.48757 L 326.31458,518.74133 L 333.81292,518.74133 L 331.56327,447.75241 L 322.06415,447.75241 L 303.58766,458.41948 L 287.06388,459.49128 z " id="La_Granja" style="fill:#fdf9d2;fill-opacity:1;stroke:#d38d5f;stroke-width:1.41398096;stroke-opacity:1"/>
 <path cod="13129" d="M 287.06388,459.49128 L 277.48557,373.42933 L 306.97556,359.77027 L 310.24327,368.82116 L 314.16424,387.2015 L 320.78167,403.86668 L 326.90845,438.17693 L 331.32007,442.58855 L 331.56469,447.751 L 322.06556,447.751 L 303.58907,458.41807 L 287.06388,459.49128 z " id="San_Joaquín" style="fill:#fdf9d2;fill-opacity:1;stroke:#d38d5f;stroke-width:1.41398096;stroke-opacity:1"/>
 <path cod="13112" d="M 331.06555,538.48757 L 305.31979,544.98623 L 255.64663,539.00509 L 242.0003,603.75835 L 230.50181,650.63889 L 276.34025,654.84548 L 272.79398,679.96344 L 277.10804,679.96344 L 275.67002,691.65848 L 305.57996,691.65848 L 308.93534,674.78686 L 308.93534,643.8235 L 344.02186,637.11275 L 342.77614,626.28024 L 341.91361,605.28545 L 337.12022,598.76841 L 335.10671,570.00804 L 333.2855,570.00804 L 330.40947,551.50751 L 334.91582,551.50751 L 331.06555,538.48757 z " id="La_Pintana" style="fill:#fdf9d2;fill-opacity:1;stroke:#d38d5f;stroke-width:1.41398096;stroke-opacity:1"/>
 <path cod="13123" d="M 325.49164,227.31419 L 317.07562,232.68449 L 314.92779,238.17215 L 303.23416,250.34228 L 298.22443,250.34228 L 291.06544,255.59239 L 289.63308,265.13818 L 284.14401,275.6384 L 285.81533,275.6384 L 285.55657,284.02755 L 294.59615,315.94534 L 317.00634,308.82595 L 317.50265,311.55211 L 321.46745,311.79955 L 334.10561,305.10859 L 353.68218,303.37364 L 362.60298,309.56829 L 380.78678,278.80289 L 376.47838,274.13251 L 345.50371,246.37889 L 334.84795,242.41409 L 340.05282,227.54608 L 325.49164,227.31419 z " id="Providencia" style="fill:#fdf9d2;fill-opacity:1;stroke:#d38d5f;stroke-width:1.41398096;stroke-opacity:1"/>
 <path cod="13120" d="M 294.59474,315.94393 L 317.00493,308.82454 L 317.50123,311.55069 L 321.46604,311.79814 L 334.1042,305.10718 L 353.68076,303.37223 L 362.60157,309.56688 L 380.72881,278.80148 L 395.939,288.48442 L 401.20042,315.93262 L 399.14167,333.08704 L 392.05055,355.27381 L 376.04005,365.10946 L 340.12917,364.8804 L 310.1655,368.76885 L 306.98404,359.76037 L 294.59474,315.94393 z " id="Ñuñoa" style="fill:#fdf9d2;fill-opacity:1;stroke:#d38d5f;stroke-width:1.41398096;stroke-opacity:1"/>
 <path cod="13113" d="M 380.72739,278.80431 L 395.93759,288.48725 L 401.19901,315.93545 L 399.14025,333.08986 L 415.08713,339.84304 L 442.30627,340.7692 L 457.86006,340.02827 L 471.932,345.21334 L 475.26475,332.25137 L 550.99898,336.88075 L 551.36945,332.06614 L 546.74149,323.36309 L 539.88934,318.36325 L 537.8532,315.58619 L 532.85337,311.14205 L 533.22524,301.88472 L 511.56023,282.81294 L 496.3769,279.48019 L 484.34109,273.73943 L 458.97427,277.25741 L 458.04812,268.36913 L 422.49639,272.99709 L 376.3893,273.92324 L 380.72739,278.80431 z " id="La_Reina" style="fill:#fdf9d2;fill-opacity:1;stroke:#d38d5f;stroke-width:1.41398096;stroke-opacity:1"/>
 <path cod="13118" d="M 326.90845,438.17835 L 320.78167,403.8681 L 314.16424,387.20292 L 310.16126,368.77309 L 340.12493,364.88464 L 376.0358,365.11371 L 392.04631,355.27805 L 385.14043,397.84454 L 369.99811,427.58339 L 369.99811,440.17206 L 326.90845,438.17835 z " id="Macul" style="fill:#fdf9d2;fill-opacity:1;stroke:#d38d5f;stroke-width:1.41398096;stroke-opacity:1"/>
 <path cod="13201" d="M 495.53841,667.46526 C 490.56685,668.61624 486.45075,666.49244 482.17205,664.36157 C 475.21526,657.92089 470.92524,669.64138 465.65109,672.30956 C 458.70138,670.57602 451.41937,666.286 443.82205,668.49606 C 438.28066,672.68992 432.35467,678.61875 424.54808,674.96502 C 418.8158,669.46463 411.78407,678.25252 412.19413,684.18842 C 406.69657,684.97176 399.31276,682.95543 395.34513,689.47105 C 388.69518,709.71077 390.31843,702.93356 381.78929,702.01589 C 375.25811,703.16546 374.04068,716.27589 365.33621,713.20613 C 363.61257,706.29035 360.10872,711.79215 355.55995,712.45814 C 348.35854,710.21132 343.04763,718.04478 335.49131,715.31155 C 328.94034,718.2894 322.32291,718.7857 315.56691,715.45861 C 308.2849,713.32491 298.12262,714.23127 295.63543,722.82262 L 304.6736,708.96136 L 305.57854,691.65706 L 308.93392,674.78544 L 308.93392,643.82209 L 344.02045,637.11133 L 342.77473,626.27882 L 341.9122,605.28403 L 337.1188,598.767 L 335.1053,570.00662 L 353.56058,563.48393 L 366.05875,568.9829 L 382.05654,566.98212 L 381.55599,557.98354 L 430.54619,548.48442 L 411.54935,519.98987 L 438.54508,520.49042 L 448.54334,529.98955 L 455.54113,522.48979 L 458.04246,528.48931 L 465.5408,527.48963 L 472.04087,524.98971 L 475.03993,525.49026 L 475.54047,559.48519 L 461.04293,553.98622 L 458.04387,578.48344 L 454.04372,577.98289 L 453.54317,599.98019 L 461.04293,609.47932 L 463.0423,621.97749 L 476.54016,628.47615 L 483.04023,619.97813 L 537.03168,616.97766 L 536.53113,625.4771 C 534.92485,625.4771 529.96602,626.3467 531.53129,629.47584 C 532.50129,631.4144 532.75439,633.08432 532.03184,635.97591 C 531.40828,638.47724 531.16366,641.89766 528.53224,643.47566 C 525.88668,645.06215 524.97184,645.65036 522.03358,644.47535 C 520.22227,643.74997 517.86658,641.64456 517.03375,644.9759 C 516.1896,648.34965 518.03343,648.29734 518.03343,651.97369 C 518.03343,655.92859 515.76541,655.54682 515.03438,658.47376 C 514.4702,660.73471 512.44962,662.97305 509.53541,662.97305 C 507.24193,662.97305 504.01381,662.88396 503.53588,660.97368 C 503.42984,660.54665 502.62528,654.59238 502.03565,654.47361 C 500.64995,654.19788 495.30934,654.01972 497.03723,657.47407 C 497.95066,659.30376 498.52049,661.50675 497.03723,664.47187 C 496.53809,665.46589 496.03754,666.46558 495.53841,667.46526 z " id="Puente_Alto" style="fill:#fdf9d2;fill-opacity:1;stroke:#d38d5f;stroke-width:1.41398096;stroke-opacity:1"/>
 <path cod="13202" d="M 390.05401,725.45687 C 390.55739,718.90731 382.13148,731.03785 378.62339,731.11986 C 371.63267,733.03722 364.32663,734.29283 357.67526,737.18867 C 354.1191,741.52535 350.57708,747.19541 345.53058,746.02605 C 339.67952,751.28606 331.52651,748.08339 324.66729,748.25307 C 320.51867,752.50208 310.05238,755.73444 308.06857,747.9533 C 308.95372,743.14153 321.61592,735.64884 310.15843,735.82276 C 302.36881,736.27948 295.45727,730.69142 295.63543,722.82262 C 298.12262,714.23127 308.28349,713.32491 315.56691,715.45861 C 322.32291,718.78712 328.94034,718.29081 335.49131,715.31155 C 343.04763,718.04619 348.35854,710.21274 355.55995,712.45814 C 360.10872,711.79215 363.61257,706.29177 365.33621,713.20613 C 374.03926,716.27589 375.25811,703.16546 381.78929,702.01589 C 390.31843,702.93356 388.69518,709.71077 395.34513,689.47105 C 399.31276,682.95543 406.69657,684.97035 412.19413,684.18842 C 411.78407,678.25252 418.81721,669.46463 424.54808,674.96502 C 432.35467,678.61875 438.28066,672.68992 443.82205,668.49606 C 451.41796,666.286 458.69996,670.57744 465.65109,672.30956 C 470.92383,669.64138 475.21526,657.92089 482.17205,664.36157 C 486.45075,666.49244 490.56826,668.61766 495.53841,667.46526 L 496.53809,666.46558 L 498.53746,670.46573 L 486.53983,670.96628 L 471.54315,675.9647 L 471.54315,686.96265 L 476.54157,691.46193 L 459.04497,694.96154 L 453.04545,700.96106 L 453.04545,693.96185 L 435.0483,696.96232 L 436.54853,690.46225 L 422.05099,697.46146 L 423.05067,714.95806 L 409.05367,720.95758 L 408.05399,709.45908 L 397.05605,714.45751 L 402.55502,721.45671 L 390.05401,725.45687 z M 528.53224,643.47142 C 525.88668,645.05791 524.97184,645.64612 522.03358,644.4711 C 520.22227,643.74573 517.86658,641.64031 517.03375,644.97165 C 516.1896,648.34541 518.03343,648.29309 518.03343,651.96945 C 518.28936,651.83088 518.59478,651.763 518.80122,651.55656 C 519.28622,651.07157 519.6185,650.33064 520.43437,649.92341 C 521.04097,649.61941 521.81159,649.10613 522.8848,649.10613 C 523.91842,649.10613 524.95487,649.10613 525.98849,649.10613 C 526.83971,649.10613 527.67678,649.13441 528.43892,648.94353 C 529.10349,648.77809 530.01268,648.35531 530.23609,647.79962 C 530.57544,646.94981 530.83844,646.61329 530.56272,645.51179 C 530.26154,644.30708 530.2276,644.42161 529.25479,643.87865 C 529.01582,643.74149 528.77403,643.60575 528.53224,643.47142 z M 532.03184,635.97166 C 529.8628,639.08101 537.74433,631.37481 539.46231,630.39492 C 542.06545,629.128 544.33913,627.26437 546.56615,625.45306 C 549.10001,623.53853 550.86041,620.60452 553.65161,619.00955 C 555.73724,616.92393 558.87203,618.63767 561.16834,619.44081 C 563.55231,620.75016 567.10281,620.6936 567.96393,617.55739 C 569.52638,615.44066 570.0849,612.88135 570.14146,610.30932 C 571.28113,606.32472 572.50139,612.52645 574.22079,613.10194 C 576.59345,615.24836 579.67735,615.23563 581.96234,613.00861 C 584.17664,610.35598 587.82471,611.6823 590.7771,611.46879 C 593.78039,611.50272 597.02831,612.12629 599.72053,610.38709 C 601.60819,608.55316 602.07763,604.02559 599.57772,602.36275 C 597.20081,602.2765 594.92855,601.44932 592.50781,601.79857 C 589.70813,601.21743 586.924,602.95521 585.19753,605.07759 C 583.5969,606.95395 580.56533,606.68388 578.56737,605.73085 C 576.08301,604.63219 574.11333,602.56636 571.49323,601.64021 C 569.40336,600.78616 566.21483,600.03392 564.46857,601.79292 C 562.27124,604.23062 563.1267,606.90587 562.68554,609.40296 C 561.75655,611.46313 561.86543,613.43705 558.84234,612.03014 C 557.18657,610.43234 554.76866,608.25198 552.64486,610.47193 C 549.41957,614.02951 545.9129,617.33681 542.51651,620.72895 C 540.0477,622.19525 536.66687,621.50805 536.53113,625.47144 C 534.92485,625.47144 529.96602,626.34104 531.53129,629.47018 C 532.50129,631.41016 532.75439,633.08007 532.03184,635.97166 z M 628.59543,584.80535 L 627.5406,583.54973 C 625.83817,581.88124 624.39025,579.98226 622.92254,578.11439 C 621.72207,576.81494 619.89238,576.15037 618.1447,576.4572 C 616.63174,576.48831 614.78225,576.74566 614.00881,578.23882 C 612.45343,580.28626 611.90339,582.86112 610.73403,585.10228 C 609.56325,586.97439 607.44935,588.70652 605.10214,588.17062 C 603.27386,587.91752 601.85847,586.67604 600.3243,585.78382 C 598.76326,585.05845 596.99013,585.10228 595.31739,585.26772 C 593.9727,586.3579 595.79956,587.54564 596.61684,588.2696 L 596.27466,591.69002 C 600.32854,588.58492 603.98085,595.73684 608.56639,593.98067 C 613.45028,593.88876 615.48924,588.36858 619.29144,586.2971 C 622.58601,588.42514 625.15946,584.75869 628.59543,584.80535 z " id="Pirque" style="fill:#fdf9d2;fill-opacity:1;stroke:#d38d5f;stroke-width:1.41398096;stroke-opacity:1"/>
 <path cod="13203" d="M 596.27466,591.69144 L 596.61684,588.27102 C 595.79956,587.54706 593.9727,586.35931 595.31739,585.26913 C 596.99013,585.1037 598.76468,585.06128 600.3243,585.78524 C 601.85847,586.67746 603.27386,587.91893 605.10214,588.17204 C 607.44935,588.70794 609.56325,586.97581 610.73403,585.1037 C 611.90339,582.86112 612.45484,580.28768 614.00881,578.24023 C 614.78225,576.74707 616.63033,576.49114 618.1447,576.45862 C 619.89238,576.15178 621.72207,576.81636 622.92254,578.1158 C 624.39025,579.98226 625.83817,581.88265 627.5406,583.55115 L 628.59543,584.80676 C 632.65497,587.69977 637.08073,586.01006 641.28874,584.52255 C 645.42746,585.36953 649.19148,583.34753 652.92722,581.93497 C 657.06453,581.46977 661.71653,580.99184 665.51448,583.02515 C 669.28698,587.88783 669.08619,577.52052 665.71102,577.56718 C 661.31213,574.9697 657.17906,579.45626 652.67412,579.03772 C 651.28983,577.20096 647.78598,576.95634 645.04852,575.54377 C 641.24067,576.55477 640.95928,570.01935 638.44947,571.19154 C 636.70744,576.00049 629.92175,574.82123 628.82591,570.25973 C 625.31076,568.18117 628.05105,559.7694 623.08939,560.51598 C 622.03315,563.06115 619.74957,565.48613 619.611,568.16703 C 624.22906,572.85862 615.31957,572.40473 612.49726,571.74299 C 608.48155,573.82154 603.49162,573.4426 602.21903,568.2745 C 599.5155,569.28832 598.89052,574.23725 595.521,575.32885 C 597.79044,577.6704 598.05627,582.35633 593.73515,584.52114 C 592.20663,586.49081 591.60004,594.64666 587.86854,590.31139 C 586.40931,585.85452 584.23602,590.58853 585.21733,592.86504 C 583.50924,597.75176 576.88049,598.01617 576.62456,592.12977 C 575.10171,594.51091 571.75057,600.68435 568.66526,595.51908 C 566.8384,589.57895 561.37054,600.73809 558.22867,595.30274 C 552.18814,592.18916 548.58249,599.44147 548.12436,604.41444 C 547.66765,609.39024 545.93976,617.35802 547.64361,615.66266 C 549.34746,613.96729 551.03151,612.25072 552.64344,610.47193 C 554.76724,608.25198 557.18515,610.43234 558.84092,612.03014 C 561.86401,613.43564 561.75514,611.46313 562.68412,609.40296 C 563.12529,606.90587 562.26983,604.23062 564.46715,601.79292 C 566.21201,600.03392 569.40195,600.78616 571.49181,601.64021 C 574.11192,602.56495 576.08159,604.63078 578.56596,605.73085 C 580.56391,606.68388 583.5969,606.95395 585.19612,605.07759 C 586.92259,602.95521 589.7053,601.21743 592.5064,601.79857 C 594.92713,601.45073 597.1994,602.27791 599.5763,602.36275 L 599.72194,599.88687 C 598.97112,597.31767 593.26429,594.64807 596.27466,591.69144 z " id="San_José_de_Maipo" style="fill:#fdf9d2;fill-opacity:1;stroke:#d38d5f;stroke-width:1.41398096;stroke-opacity:1"/>
 <path cod="13110" d="M 326.90845,438.17835 L 331.32007,442.58997 L 331.56469,447.75241 L 333.81433,518.74133 L 326.31599,518.74133 L 331.06555,538.48757 L 334.91441,551.50468 L 330.40805,551.50468 L 333.28409,570.00521 L 335.1053,570.00521 L 353.56058,563.48251 L 366.05875,568.98149 L 382.05654,566.9807 L 381.55599,557.98213 L 430.54619,548.483 L 411.54935,519.98846 L 438.54508,520.48901 L 448.54334,529.98813 L 455.24985,522.84894 L 463.06492,516.17778 L 458.68017,503.78706 L 448.02723,495.68495 L 448.76674,492.92203 L 460.20444,492.92203 L 459.4423,478.05261 L 493.3736,481.10257 L 492.80235,467.18617 L 473.54959,465.66189 L 473.16781,444.88344 L 478.69507,438.21087 L 470.11786,438.21087 L 465.35274,442.9774 L 458.87105,445.07433 L 422.84423,444.31078 L 370.0886,440.16499 L 326.90845,438.17835 z " id="La_Florida" style="fill:#fdf9d2;fill-opacity:1;stroke:#d38d5f;stroke-width:1.41398096;stroke-opacity:1"/>
 <path cod="13122" d="M 550.99898,336.88075 L 475.26475,332.25137 L 471.932,345.21334 L 457.86006,340.02827 L 442.30627,340.7692 L 415.08713,339.84304 L 399.14025,333.08986 L 392.04914,355.27664 L 385.14326,397.84312 L 370.00093,427.58197 L 370.09143,440.16499 L 422.84706,444.31078 L 458.87388,445.07433 L 465.35557,442.9774 L 470.12069,438.21087 L 478.69789,438.21087 L 481.57817,433.4302 L 484.98445,433.80914 L 501.26079,419.42613 L 516.78064,419.04718 L 522.45778,414.12653 L 531.92014,413.74758 L 531.92014,408.82693 L 548.95295,416.77492 L 559.17321,417.91034 L 574.69165,404.66275 L 587.18276,404.66275 L 593.23884,399.7421 L 598.91739,398.98562 L 614.43583,405.79818 L 624.27714,405.41923 L 637.52472,398.22773 L 646.22919,398.60667 L 645.85024,391.41517 L 643.20044,384.98155 L 630.3318,383.46718 L 626.16904,380.0609 L 619.73402,379.68195 L 610.64919,368.32627 L 607.24291,368.32627 L 603.45768,364.91999 L 583.77506,364.16351 L 574.69024,357.72848 L 573.93376,352.42888 L 565.60682,343.34405 L 550.99898,336.88075 z " id="Peñalolén" style="fill:#fdf9d2;fill-opacity:1;stroke:#d38d5f;stroke-width:1.41398096;stroke-opacity:1"/>
 <path cod="13114" d="M 643.20044,384.98297 L 630.3318,383.46859 L 626.16904,380.06231 L 619.73402,379.68337 L 610.64919,368.32768 L 607.24291,368.32768 L 603.45768,364.9214 L 583.77506,364.16492 L 574.69024,357.7299 L 573.93376,352.4303 L 565.60682,343.34547 L 550.99757,336.87792 L 551.36803,332.06331 L 546.74007,323.36026 L 539.88792,318.36042 L 537.85179,315.58337 L 532.85195,311.13922 L 533.22383,301.88189 L 511.55881,282.81011 L 496.37548,279.47736 L 484.33968,273.7366 L 458.97286,277.25458 L 458.0467,268.3663 L 422.49498,272.99426 L 376.43313,274.02505 L 345.5023,246.37607 L 334.84654,242.41126 L 340.0514,227.54325 L 461.41622,175.62328 L 473.45061,160.91647 L 501.52803,147.54586 L 517.23736,145.87454 L 527.59901,139.18924 L 533.6155,139.52435 L 540.96962,133.17275 L 557.01406,135.51289 L 568.71334,135.51289 L 568.71334,145.20572 L 561.02411,150.5534 L 557.68146,159.91254 L 557.68146,163.58889 L 565.70439,173.61685 L 568.37823,179.29963 L 567.70941,186.65375 L 571.72088,188.65878 L 573.72732,188.32508 L 587.43021,197.0154 L 610.82876,201.69568 L 614.84023,207.71217 L 614.17141,238.46484 L 616.17644,240.13617 L 616.17644,246.82147 L 633.55851,258.85445 L 648.93414,260.85947 L 655.28433,285.92794 L 653.613,293.94946 L 660.29972,306.98636 L 661.97104,331.72113 L 651.94309,340.07776 L 648.60044,349.1032 L 653.28071,355.7885 L 651.9445,374.17308 L 648.93555,374.17308 L 643.20044,384.98297 z " id="Las_Condes" style="fill:#fdf9d2;fill-opacity:1;stroke:#d38d5f;stroke-width:1.41398096;stroke-opacity:1"/>
 <path cod="13132" d="M 330.77993,202.34611 C 329.84387,206.87651 330.93688,211.70667 330.34018,216.2512 L 330.2002,224.09314 L 325.49164,227.31419 L 340.04999,227.54749 L 461.4148,175.62753 L 473.4492,160.92071 L 491.60471,152.14413 L 486.85232,146.58436 L 451.14647,149.07579 L 440.35214,141.6029 L 426.78924,128.59428 L 417.93065,123.88855 L 407.41346,123.88855 L 405.75344,121.95139 L 401.87913,121.39711 L 399.3877,117.52139 L 394.40483,118.07567 L 390.53052,121.11997 L 386.16274,112.51873 L 377.55301,107.84976 L 374.5087,114.49264 L 370.6344,116.70694 L 359.56293,117.53694 L 351.53576,126.67126 L 344.61573,133.86701 L 350.98147,139.12561 L 349.87433,155.17995 L 346.00002,158.77711 L 346.27716,168.46571 L 346.51471,168.81779 L 340.58306,171.51284 L 340.3144,176.90435 L 343.27952,181.48706 L 343.01086,188.49617 L 336.54049,193.88768 L 330.77993,202.34611 z " id="Vitacura" style="fill:#fdf9d2;fill-opacity:1;stroke:#d38d5f;stroke-width:1.41398096;stroke-opacity:1"/>
 <path cod="13115" d="M 390.52911,121.12139 L 394.40342,118.07709 L 399.38629,117.5228 L 401.87772,121.39853 L 405.75203,121.95281 L 407.41204,123.88996 L 417.92923,123.88996 L 426.78782,128.59569 L 440.35073,141.60432 L 451.14506,149.0772 L 486.85091,146.58577 L 491.6033,152.14554 L 501.52662,147.55152 L 517.23595,145.88019 L 527.5976,139.19489 L 533.61409,139.53001 L 540.9682,133.1784 L 557.01265,135.51854 L 568.71192,135.51854 L 569.08946,135.77871 L 577.15198,134.22758 L 579.01136,138.25884 L 586.45314,137.01877 L 586.14207,142.2901 L 588.62361,146.01169 L 605.98588,130.81847 L 605.98588,127.71761 L 614.35806,122.44629 L 614.66772,113.14371 L 641.33258,109.11245 L 647.22322,104.77152 L 655.5954,87.717499 L 595.75431,50.511417 L 591.4148,49.89068 L 582.4233,57.642124 L 571.25992,45.240096 L 532.81378,55.471663 L 502.11766,44.000035 L 484.13324,33.457393 L 450.957,36.867915 L 450.957,40.588099 L 441.0351,48.958866 L 435.45411,44.617945 L 438.24531,39.967361 L 431.42427,38.7273 L 430.18421,43.068221 L 423.36316,41.208836 L 417.78218,43.688959 L 417.16286,48.649204 L 422.12451,56.400648 L 436.07627,67.252952 L 431.42568,68.80409 L 432.35608,75.004396 L 426.7751,78.414918 L 422.12451,67.252952 L 418.40292,67.562614 L 415.30347,70.663475 L 405.38015,75.625134 L 404.76083,84.616639 L 408.48243,89.267223 L 395.45966,96.709005 L 399.49092,103.22039 L 389.87868,111.59115 L 390.52911,121.12139 z " id="Lo_Barnechea" style="fill:red;fill-opacity:1;stroke:#d38d5f;stroke-width:1.41398096;stroke-opacity:1"/>
 <path cod="13107" d="M 181.834,108.06469 L 181.834,116.80309 L 189.41718,138.2348 L 199.45361,139.80856 L 246.34405,160.39471 L 279.37182,176.12808 L 330.34018,216.2512 C 330.93547,211.70667 329.84246,206.87509 330.77993,202.34611 L 336.54049,193.88909 L 343.01086,188.49758 L 343.27952,181.48848 L 343.81825,182.38777 L 335.19155,173.76107 L 331.23806,174.47937 L 325.4874,169.80617 L 335.55211,169.80617 L 335.91127,164.41466 L 322.97051,162.97664 L 323.69023,160.1006 L 332.31693,151.11475 L 322.61277,150.0373 L 321.53391,153.27249 L 317.22126,153.27249 L 316.50155,155.06966 L 312.54806,154.35135 L 311.11004,160.10201 L 292.41862,152.19362 L 294.93551,132.7839 L 289.544,125.95437 L 283.07362,125.59522 L 275.52579,130.26843 L 270.13428,142.13032 L 264.38362,141.41201 L 261.50758,147.88239 L 251.44287,143.20918 L 254.67806,135.30079 L 248.20768,134.94164 L 253.24004,120.92343 L 250.72315,116.96994 L 240.65844,117.32909 L 240.65844,111.93758 L 228.79655,109.06296 L 233.10919,94.685598 L 227.71768,89.653239 L 228.79655,86.778616 L 220.16985,82.46456 L 219.09098,86.778616 L 214.05862,86.778616 L 212.97976,84.981446 L 210.10372,84.981446 L 211.18259,88.575786 L 205.07278,94.685598 L 199.32211,94.685598 L 200.04042,98.279938 L 195.72777,102.59399 L 190.69542,102.59399 L 188.17994,108.34465 L 181.834,108.06469 z " id="Huechuraba" style="fill:#fdf9d2;fill-opacity:1;stroke:#d38d5f;stroke-width:1.41398096;stroke-opacity:1"/>
</svg>