<?xml version="1.0" encoding="utf-8"?>
<!-- Created with Inkscape (http://www.inkscape.org/) -->
<svg height="500" id="svg4400" version="1.0" width="600" xmlns="http://www.w3.org/2000/svg" xmlns:svg="http://www.w3.org/2000/svg">
 <defs id="defs4403"/>
 <g id="g2167">
  <path cod="15101" d="M 111.82307,245.177 C 122.03002,231.09145 139.74909,231.14213 159.25858,236.82448 L 172.82477,236.38686 L 198.20665,221.94544 L 218.77473,221.94544 L 249.40805,194.37546 L 258.16042,181.2469 L 268.66327,160.67882 C 272.14504,163.15984 277.8701,165.5203 273.03946,169.43119 C 272.91568,175.21594 266.65656,175.29208 276.10279,182.55975 C 280.2662,186.58975 292.7813,183.90009 294.92039,189.12404 C 293.91651,189.87695 290.54421,191.37013 290.54421,192.62498 C 291.63949,201.73704 291.06921,206.95387 290.98183,216.2564 C 289.62194,220.32672 284.74049,221.38807 283.10469,225.44639 C 281.85688,232.00244 287.1033,231.83006 290.98183,235.94924 C 291.85328,240.87928 287.37454,246.13672 293.60754,250.82828 C 297.13841,252.76117 300.96496,255.51002 301.9223,259.58065 C 304.00612,265.20199 309.97759,268.48095 311.98753,274.02207 C 316.20276,278.14314 312.3465,282.59334 312.86276,287.58825 C 314.50511,299.89725 305.96088,299.03938 322.928,309.03157 C 329.09862,312.20531 334.84703,315.61462 339.55751,320.84728 C 341.68065,323.80483 343.03491,327.91885 344.37131,331.35013 C 344.8568,333.82327 345.17929,336.35753 344.37131,338.78965 C 342.81445,338.78965 339.0593,342.35118 338.24465,343.16583 C 334.83767,345.65202 331.93336,343.31779 326.86656,347.1044 C 314.38246,346.88963 308.90738,349.15769 298.42135,355.85678 C 292.35251,357.51462 272.74031,361.17182 267.35042,364.60915 C 250.96257,369.87397 255.07948,373.39729 246.34472,372.92391 C 235.48219,382.25756 228.33295,376.03332 224.9014,379.48819 C 218.47129,381.44315 211.10157,381.51252 205.20855,385.17723 L 205.20855,396.55532 L 138.25288,375.54962 L 119.43528,379.48819 C 118.49181,376.87026 119.05575,374.07483 119.02778,371.3708 C 118.61747,366.39632 116.11831,369.58426 118.83207,356.20172 C 125.72521,354.30034 121.51516,347.83361 119.82252,343.57967 C 123.0133,341.49939 124.4038,336.62623 122.49036,332.58667 C 121.54059,328.25831 117.11342,322.7618 121.72246,319.02875 C 127.89841,311.87138 115.47425,303.89892 120.1337,305.31841 C 125.14564,301.52432 125.92237,295.73498 127.95329,290.45974 C 139.37241,270.21371 127.83309,258.32135 111.82307,245.177 z " id="Arica" style="fill:#ff0000;fill-opacity:1;fill-rule:evenodd;stroke:#d38d5f;stroke-width:1px;stroke-linecap:butt;stroke-linejoin:miter;stroke-opacity:1"/>
  <path cod="15102" d="M 344.37131,338.78965 C 342.81445,338.78965 339.0593,342.35118 338.24465,343.16583 C 334.83767,345.65202 331.93336,343.31779 326.86656,347.1044 C 314.38246,346.88963 308.90738,349.15769 298.42135,355.85678 C 292.35251,357.51462 272.74031,361.17182 267.35042,364.60915 C 250.96257,369.87397 255.07948,373.39729 246.34472,372.92391 C 235.48219,382.25756 228.33295,376.03332 224.9014,379.48819 C 218.47129,381.44315 211.10157,381.51252 205.20855,385.17723 L 205.20855,396.55532 L 138.25288,375.54962 L 119.43528,379.48819 C 123.24668,381.27171 120.06989,384.75536 120.00082,388.72435 C 119.93174,392.69333 122.85197,394.11378 124.01703,398.98801 C 125.32467,404.67504 128.59966,408.87788 129.81823,414.60662 C 135.72433,421.75142 130.37774,421.24556 130.26448,426.20902 C 130.26448,428.2416 136.17002,434.45013 136.95817,436.02644 C 139.06857,440.55528 140.18276,445.48218 141.42063,450.30631 C 141.99896,452.61961 141.37191,452.93507 144.54435,456.10751 C 146.84179,460.25266 144.77504,465.6922 141.42063,468.60241 C 146.60465,472.52519 138.61988,480.25039 138.29691,481.54354 C 165.14702,467.68051 177.31957,457.55113 190.95395,448.96757 C 206.82198,446.25804 216.48771,439.41364 225.31491,432.01022 C 235.4559,436.02004 247.6262,426.4376 258.33712,431.56397 C 280.43035,423.30553 286.94544,426.17433 301.17675,423.53154 C 317.71294,422.45553 317.80915,424.66752 323.48906,425.76277 C 333.65121,425.58253 348.18854,422.4855 348.47884,428.8865 C 351.08057,427.93988 353.9303,428.45402 356.51127,427.54776 C 361.55791,426.76294 363.18571,431.20414 363.20497,435.13394 C 365.23569,442.50657 374.15267,440.40628 380.16232,441.38139 C 386.48152,443.80127 385.61005,450.24405 390.42598,454.32253 C 394.25236,453.44109 397.34262,449.90252 401.13589,448.07508 C 408.02,446.56536 419.51432,441.34007 426.12567,440.4889 C 430.57277,439.75293 437.56377,442.05672 439.9593,437.36517 C 441.87679,433.17962 449.29047,431.39908 448.43798,426.20902 C 443.19422,420.13743 438.83241,413.04449 434.60435,411.92914 C 432.49727,405.96693 429.14775,400.71965 426.57192,394.97179 C 428.22115,389.75685 427.16133,385.74819 427.01817,381.58441 C 428.38895,376.37386 425.43149,369.76322 423.00195,365.51954 C 420.19644,362.48203 418.96238,364.52112 407.82958,363.28832 C 401.72387,360.81266 395.75995,364.34453 386.40976,369.53576 C 382.83304,374.02049 376.65317,373.17379 372.12989,370.8745 C 363.72306,367.72331 364.36508,360.43851 362.75872,354.80963 C 358.6224,351.72718 356.42641,346.94121 352.9413,343.20724 C 351.29904,341.56497 346.41255,339.14241 344.37131,338.78965 z " id="Camarones" style="fill:#fdf9d2;fill-opacity:1;fill-rule:evenodd;stroke:#d38d5f;stroke-width:1px;stroke-linecap:butt;stroke-linejoin:miter;stroke-opacity:1"/>
 </g>
 <g id="g2184">
  <path cod="15202" d="M 390.80223,140.73098 L 393.22743,140.13171 C 388.60717,133.21397 387.99855,122.30578 391.03228,115.51138 C 397.21252,100.09203 379.4646,92.07716 381.99348,79.006123 L 349.18512,46.022705 L 349.18512,18.452724 L 297.98373,60.464124 L 266.03756,56.087936 L 255.09134,68.77888 L 255.09134,82.237761 L 262.09899,86.28363 L 262.09899,114.29123 L 273.9147,133.98407 L 274.35231,147.55025 L 268.66327,160.67882 C 272.14504,163.15984 277.8701,165.5203 273.03946,169.43119 C 272.91568,175.21594 266.65656,175.29208 276.10279,182.55975 C 280.2662,186.58975 292.7813,183.90009 294.92039,189.12404 C 296.78345,189.41599 298.66786,189.30959 300.54429,189.25927 C 303.26891,189.52162 304.61868,187.58176 303.35753,185.27386 C 300.56193,184.0832 299.35215,182.61911 298.19993,179.88183 C 296.35597,175.95869 299.36663,172.78181 301.2476,169.56663 C 302.65296,166.72061 299.52397,165.55839 299.37211,162.76798 C 300.60444,158.94895 300.84126,155.04862 302.18534,151.28061 C 309.10397,151.0281 317.50564,149.13171 319.06475,144.95083 C 324.29611,142.39905 330.9297,141.10035 336.41303,143.54421 C 338.56155,144.40362 338.27063,142.72816 339.69514,142.37203 C 344.41283,142.50675 349.19272,141.53694 353.76131,142.84091 C 354.71369,143.03138 357.59634,145.99035 357.74672,146.59189 C 361.33755,147.59714 364.01584,144.727 369.46853,144.01309 C 372.24481,142.91457 374.60923,143.99344 378.37711,141.90316 C 382.50267,141.41773 386.69802,141.29698 390.80223,140.73098 z " id="General_Lagos" style="fill:#fdf9d2;fill-opacity:1;fill-rule:evenodd;stroke:#d38d5f;stroke-width:1;stroke-linecap:butt;stroke-linejoin:miter;stroke-miterlimit:4;stroke-dasharray:none;stroke-opacity:1"/>
  <path cod="15201" d="M 448.43798,426.20902 C 443.19422,420.13743 438.83241,413.04449 434.60435,411.92914 C 432.49727,405.96693 429.14775,400.71965 426.57192,394.97179 C 428.22115,389.75685 427.16133,385.74819 427.01817,381.58441 C 428.38895,376.37386 425.43149,369.76322 423.00195,365.51954 C 420.19644,362.48203 418.96238,364.52112 407.82958,363.28832 C 401.72387,360.81266 395.75995,364.34453 386.40976,369.53576 C 382.83304,374.02049 376.65317,373.17379 372.12989,370.8745 C 363.72306,367.72331 364.36508,360.43851 362.75872,354.80963 C 358.6224,351.72718 356.42641,346.94121 352.9413,343.20724 C 351.29904,341.56497 346.41255,339.14241 344.37131,338.78965 C 345.17929,336.35753 344.8568,333.82327 344.37131,331.35013 C 343.03491,327.91885 341.68065,323.80483 339.55751,320.84728 C 334.84703,315.61462 329.09862,312.20531 322.928,309.03157 C 305.96088,299.03938 314.50511,299.89725 312.86276,287.58825 C 312.3465,282.59334 316.20276,278.14314 311.98753,274.02207 C 309.97759,268.48095 304.00612,265.20199 301.9223,259.58065 C 300.96496,255.51002 297.13841,252.76117 293.60754,250.82828 C 287.37454,246.13672 291.85328,240.87928 290.98183,235.94924 C 287.1033,231.83006 281.85688,232.00244 283.10469,225.44639 C 284.74049,221.38807 289.62194,220.32672 290.98183,216.2564 C 291.06921,206.95387 291.63949,201.73704 290.54421,192.62498 C 290.54421,191.37013 293.91651,189.87695 294.92039,189.12404 C 296.78345,189.41599 298.66786,189.30959 300.54429,189.25927 C 303.26891,189.52162 304.61868,187.58176 303.35753,185.27386 C 300.56193,184.0832 299.35215,182.61911 298.19993,179.88183 C 296.35597,175.95869 299.36663,172.78181 301.2476,169.56663 C 302.65296,166.72061 299.52397,165.55839 299.37211,162.76798 C 300.60444,158.94895 300.84126,155.04862 302.18534,151.28061 C 309.10397,151.0281 317.50564,149.13171 319.06475,144.95083 C 324.29611,142.39905 330.9297,141.10035 336.41303,143.54421 C 338.56155,144.40362 338.27063,142.72816 339.69514,142.37203 C 344.41283,142.50675 349.19272,141.53694 353.76131,142.84091 C 354.71369,143.03138 357.59634,145.99035 357.74672,146.59189 C 361.33755,147.59714 364.01584,144.727 369.46853,144.01309 C 372.24481,142.91457 374.60923,143.99344 378.37711,141.90316 C 382.50267,141.41773 386.69802,141.29698 390.80223,140.73098 L 393.216,140.11456 C 395.1075,142.9602 397.69474,145.14447 400.99232,146.07911 C 403.21523,140.92939 405.07039,156.48539 412.59058,150.92404 C 423.91306,155.72499 437.52827,152.02297 443.10848,164.36695 C 451.13219,165.89495 456.88372,175.00256 445.90832,178.65702 C 443.06902,187.94826 423.14884,191.2694 434.25193,202.18851 C 434.12282,216.2481 457.14306,208.37549 450.6306,225.54353 C 446.55193,232.6233 450.65873,236.73523 456.76402,240.28249 C 449.0848,250.92285 453.59326,266.91537 459.30997,278.24026 C 469.49291,286.48847 459.52408,303.55291 461.3156,315.1058 C 450.37338,321.27568 468.47305,323.45248 465.39012,333.5297 C 472.40677,345.9247 463.14878,345.27088 479.21466,369.20003 C 482.91082,378.16195 485.71578,393.57949 486.53049,392.67715 C 490.20161,388.61115 476.99534,400.6903 477.97719,406.22698 C 476.39394,405.76579 474.5969,405.01534 473.42776,406.57419 C 472.69404,408.40789 472.43909,413.5243 471.15793,412.30649 C 470.44728,411.63099 468.37835,410.05164 465.39533,415.49911 C 456.61711,413.42937 457.28607,423.46777 450.66921,426.65527 C 449.92547,426.50652 449.18172,426.35777 448.43798,426.20902 z " id="Putre" style="fill:#fdf9d2;fill-opacity:1;fill-rule:evenodd;stroke:#d38d5f;stroke-width:1;stroke-linecap:butt;stroke-linejoin:miter;stroke-miterlimit:4;stroke-dasharray:none;stroke-opacity:1"/>
 </g>
 <path d="M 477.97719,406.22698 C 476.99534,400.6903 490.20161,388.61115 486.53049,392.67715 C 485.71578,393.57949 482.91082,378.16195 479.21466,369.20003 C 463.14878,345.27088 472.40677,345.9247 465.39012,333.5297 C 468.47305,323.45248 450.37338,321.27568 461.3156,315.1058 C 459.52408,303.55291 469.49291,286.48847 459.30997,278.24026 C 453.59326,266.91537 449.0848,250.92285 456.76402,240.28249 C 450.65873,236.73523 446.55193,232.6233 450.6306,225.54353 C 457.14306,208.37549 434.12282,216.2481 434.25193,202.18851 C 423.14884,191.2694 443.06902,187.94826 445.90832,178.65702 C 456.88372,175.00256 451.13219,165.89495 443.10848,164.36695 C 437.52827,152.02297 423.91306,155.72499 412.59058,150.92404 C 405.07039,156.48539 403.21523,140.92939 400.99232,146.07911 C 389.72441,142.88544 386.75048,125.10098 391.03228,115.51138 C 397.21252,100.09203 379.4646,92.07716 381.99348,79.006123 L 349.18512,46.022705 L 349.18512,18.452724 L 297.98373,60.464124 L 266.03756,56.087936 L 255.09134,68.77888 L 255.09134,82.237761 L 262.09899,86.28363 L 262.09899,114.29123 L 273.9147,133.98407 L 274.35231,147.55025 L 258.16042,181.2469 L 249.40805,194.37546 L 218.77473,221.94544 L 198.20665,221.94544 L 172.82477,236.38686 L 159.25858,236.82448 C 139.74909,231.14213 123.07795,231.4913 112.871,245.57685" id="LÃMITE INTER" style="fill:none;fill-rule:evenodd;stroke:#ff9955;stroke-width:3;stroke-linecap:butt;stroke-linejoin:miter;stroke-miterlimit:4;stroke-opacity:1"/>
 <path d="M 138.2831,481.54727 C 165.13321,467.68423 177.30497,457.53708 190.93935,448.95352 C 206.80738,446.244 216.48715,439.41944 225.31435,432.01602 C 235.45534,436.02584 247.63468,426.45215 258.3456,431.57852 C 280.43883,423.32009 286.95804,426.15881 301.18935,423.51602 C 317.72554,422.44 317.82194,424.67077 323.50185,425.76602 C 333.664,425.58576 348.1803,422.49002 348.4706,428.89102 C 351.07233,427.9444 353.92088,428.45353 356.50185,427.54727 C 361.54848,426.76245 363.17009,431.21122 363.18935,435.14102 C 365.22006,442.51365 374.14845,440.41591 380.1581,441.39102 C 386.47731,443.81091 385.62342,450.25004 390.43935,454.32852 C 394.26573,453.44707 397.33358,449.90596 401.12685,448.07852 C 408.01097,446.56881 419.5155,441.33594 426.12685,440.48477 C 430.57396,439.74881 437.57507,442.05132 439.9706,437.35977 C 441.88808,433.17422 449.29184,431.39358 448.43935,426.20352 C 449.18309,426.35227 449.91436,426.49227 450.6581,426.64102 C 457.27496,423.45352 456.62987,413.41503 465.4081,415.48477 C 468.39112,410.0373 470.44746,411.62177 471.1581,412.29727 C 472.43926,413.51508 472.70564,408.41222 473.43935,406.57852 C 474.60849,405.01967 476.38735,405.77357 477.9706,406.23477" id="path6551" style="fill:none;fill-opacity:1;fill-rule:evenodd;stroke:#ffb380;stroke-width:3;stroke-linecap:butt;stroke-linejoin:miter;stroke-miterlimit:4;stroke-dasharray:none;stroke-opacity:1"/>
</svg>